<svg width="55" height="55" viewBox="0 0 55 55" fill="none" xmlns="http://www.w3.org/2000/svg">
<mask id="mask0_272_38" style="mask-type:alpha" maskUnits="userSpaceOnUse" x="0" y="0" width="55" height="55">
<rect width="55" height="55" fill="#D9D9D9"/>
</mask>
<g mask="url(#mask0_272_38)">
</g>
<g opacity="0.8" clip-path="url(#clip0_272_38)">
<path d="M18.0021 45.7975C20.2015 46.3688 22.3208 46.5425 24.4701 46.4924C34.7783 46.2452 44.0743 38.6589 46.2169 28.4905C46.7655 25.885 46.7722 23.1374 46.7872 20.4534C46.8005 18.1468 46.4854 15.8368 46.2853 13.5319C46.2136 12.6968 46.0985 12.6083 45.2615 12.655C31.8336 13.4183 22.1707 19.9105 16.188 31.9195C14.7673 34.7706 13.9452 37.8372 13.52 41.0023C13.4033 41.8691 12.9181 42.3184 12.2411 42.2216C11.5641 42.1247 11.229 41.5401 11.3607 40.6966C11.3957 40.4695 11.4074 40.239 11.4524 40.0152C11.6358 39.0949 11.8176 38.1746 12.0243 37.261C12.1027 36.9135 12.081 36.6563 11.8193 36.3657C7.54227 31.5738 5.6197 25.9468 6.06158 19.5581C6.42508 14.2952 8.4877 9.72376 12.0727 5.85549C12.9715 4.88509 14.2637 4.72808 15.4359 5.45297C19.5979 8.03014 22.2224 11.7164 23.2913 16.5016C23.4347 17.1446 23.5164 17.801 23.6414 18.5276C23.8465 18.3789 24.0116 18.267 24.1683 18.1434C30.4296 13.1895 37.5562 10.6457 45.5266 10.447C46.994 10.4102 48.1045 11.3088 48.3379 12.7569C49.1149 17.5672 49.2133 22.3975 48.608 27.2312C47.3258 37.4681 38.7401 46.6995 27.5032 48.3814C23.6047 48.966 19.7763 48.6971 16.0195 47.4978C15.6294 47.3742 15.3326 47.4277 14.9691 47.6081C12.788 48.6887 10.5887 49.7343 8.396 50.7899C8.32096 50.8266 8.24259 50.855 8.16422 50.8834C7.43722 51.1523 6.84361 50.9369 6.60349 50.3205C6.37505 49.7326 6.65185 49.1748 7.32883 48.8758C8.45269 48.3797 9.59489 47.9254 10.6987 47.3893C19.9447 42.893 27.2264 36.2321 32.5606 27.435C32.7223 27.1677 32.869 26.8871 33.0591 26.6399C33.4143 26.1756 33.9679 26.0754 34.4531 26.3543C34.9217 26.6249 35.1168 27.1844 34.91 27.7122C34.85 27.8659 34.7566 28.0078 34.6716 28.1515C30.6413 35.0278 25.3505 40.73 18.7858 45.2447C18.5507 45.4067 18.3189 45.5721 18.0021 45.7942V45.7975ZM17.03 25.6144C18.384 24.0544 19.8513 22.3791 21.2937 20.6839C21.4337 20.5202 21.4804 20.2262 21.4754 19.9957C21.357 14.6376 19.056 10.4804 14.6122 7.49567C14.0986 7.14993 13.7735 7.18166 13.3466 7.65434C7.96246 13.6037 6.59182 22.3157 9.9217 29.6079C10.6771 31.2615 11.6175 32.7998 12.808 34.1894C13.4183 32.778 14.0103 31.4101 14.5989 30.0389C14.6389 29.9453 14.6589 29.8368 14.6572 29.7349C14.6389 27.4617 14.7456 25.1785 14.5555 22.9203C14.3638 20.6421 13.8735 18.3906 13.5167 16.1274C13.4 15.3875 13.7201 14.8681 14.3504 14.7562C14.9924 14.6409 15.4993 14.9984 15.646 15.7166C15.8761 16.839 16.1363 17.9597 16.283 19.0938C16.5731 21.3202 16.7966 23.555 17.0283 25.6127L17.03 25.6144Z" fill="white"/>
</g>
<defs>
<clipPath id="clip0_272_38">
<rect width="43" height="46" fill="white" transform="translate(6 5)"/>
</clipPath>
</defs>
</svg>
