<svg width="55" height="55" viewBox="0 0 55 55" fill="none" xmlns="http://www.w3.org/2000/svg">
<mask id="mask0_272_42" style="mask-type:alpha" maskUnits="userSpaceOnUse" x="0" y="0" width="55" height="55">
<rect width="55" height="55" fill="#D9D9D9"/>
</mask>
<g mask="url(#mask0_272_42)">
</g>
<g opacity="0.8" clip-path="url(#clip0_272_42)">
<path d="M6.59514 49C6.12185 48.8598 5.99557 48.5358 6.00012 48.0704C6.01832 46.0533 6.00694 44.0351 6.00808 42.0179C6.00922 39.1329 7.87052 37.2111 10.7876 37.0799C10.8821 37.0754 10.9765 37.0665 11.1471 37.0541C9.89225 35.8365 9.35979 34.4147 9.6044 32.753C9.78075 31.5555 10.3667 30.561 11.3201 29.7952C13.2701 28.2299 16.0871 28.3813 17.8358 30.1282C19.5571 31.8471 19.8871 34.8453 17.6685 37.0328C18.2385 37.0967 18.7744 37.1573 19.3501 37.2223C20.2284 35.1133 21.8508 34.0503 24.2787 34.0884C23.0101 32.8248 22.4424 31.3929 22.728 29.692C22.9157 28.573 23.4561 27.6379 24.3219 26.8922C26.1468 25.3191 28.8716 25.3191 30.6817 26.8922C31.7637 27.8318 32.3269 29.0271 32.3485 30.4432C32.3701 31.8549 31.799 33.0434 30.7125 34.0873C33.1381 34.0492 34.7548 35.0964 35.6467 37.2156C36.1974 37.1573 36.7401 37.1001 37.3488 37.0351C36.1439 35.851 35.5944 34.4641 35.8163 32.8304C35.9881 31.5667 36.5979 30.5285 37.615 29.7402C39.6049 28.1974 42.4275 28.4171 44.15 30.2224C45.7736 31.9233 46.0841 34.8856 43.861 37.0541C44.0567 37.0665 44.199 37.0766 44.3423 37.0844C46.6576 37.2156 48.3766 38.5869 48.8693 40.7229C48.9569 41.1019 48.9865 41.4999 48.9887 41.889C49.0001 43.9622 48.9853 46.0365 49.0013 48.1097C49.0047 48.566 48.8477 48.8587 48.4074 48.9977H32.7922C32.3542 48.8441 32.2142 48.5313 32.2313 48.0861C32.2575 47.3921 32.2381 46.6969 32.2381 45.9984H22.7701C22.7701 46.7182 22.7519 47.4044 22.7769 48.0884C22.7928 48.5335 22.6495 48.8441 22.2126 48.9977H6.59514V49ZM7.21065 47.7486H21.5641C21.5641 45.6676 21.6176 43.6224 21.5482 41.5806C21.4844 39.6711 20.0498 38.3066 18.1043 38.2707C15.6309 38.2258 13.1564 38.2292 10.683 38.2696C8.78525 38.301 7.2937 39.6622 7.22771 41.4864C7.15262 43.5563 7.21065 45.6317 7.21065 47.7486ZM47.7998 47.7621C47.7998 45.7921 47.8021 43.8736 47.7998 41.9551C47.7975 39.7295 46.3208 38.264 44.0681 38.2584C41.7654 38.2528 39.4626 38.2528 37.1588 38.2617C36.8061 38.2629 36.4443 38.2909 36.103 38.3727C34.4658 38.7641 33.4418 40.1039 33.4305 41.8688C33.4191 43.7177 33.4271 45.5678 33.4293 47.4168C33.4293 47.5244 33.4475 47.632 33.4589 47.7621H47.7998ZM22.7689 44.7571H32.237C32.237 43.7985 32.2461 42.8746 32.2347 41.9518C32.2142 40.2441 32.8798 38.8795 34.3031 37.8928C34.4942 37.7605 34.5147 37.6518 34.4339 37.4443C33.9538 36.2244 32.6853 35.2994 31.3416 35.2882C28.7829 35.2657 26.2242 35.2489 23.6666 35.2949C22.2285 35.3207 21.2307 36.1011 20.6016 37.3614C20.4741 37.6181 20.506 37.7617 20.7643 37.9399C21.7723 38.6329 22.4322 39.5803 22.6552 40.7778C22.7496 41.2824 22.7541 41.8071 22.7655 42.324C22.7826 43.1324 22.7701 43.9409 22.7701 44.7571H22.7689ZM27.5121 26.8866C25.5029 26.881 23.8429 28.5102 23.8418 30.4903C23.8407 32.4637 25.5108 34.1064 27.5109 34.0974C29.5019 34.0884 31.1482 32.4705 31.1596 30.5116C31.171 28.5326 29.5201 26.8922 27.5109 26.8866H27.5121ZM14.3646 37.0777C16.3772 37.0911 18.0155 35.5124 18.036 33.5413C18.0576 31.5309 16.4637 29.9163 14.4351 29.8927C12.4032 29.8703 10.766 31.4445 10.7398 33.4493C10.7125 35.4373 12.3383 37.0642 14.3646 37.0777ZM40.6117 37.0788C42.6369 37.0788 44.2695 35.4664 44.2615 33.474C44.2524 31.4916 42.6426 29.9028 40.6311 29.8927C38.5991 29.8826 36.9665 31.477 36.9642 33.4751C36.9608 35.4765 38.582 37.0777 40.6117 37.0777V37.0788Z" fill="white"/>
<path d="M21.9178 21.6213C22.1351 20.4955 22.3627 19.3137 22.5925 18.1308C22.6801 17.6767 22.7552 17.2204 22.8656 16.7719C22.927 16.5196 22.8599 16.3581 22.671 16.1854C21.5026 15.1191 20.3455 14.0405 19.1828 12.9675C18.9609 12.7623 18.7368 12.5593 18.8415 12.214C18.9507 11.8529 19.2556 11.7913 19.5776 11.752C21.1419 11.5603 22.7051 11.354 24.2729 11.1813C24.5903 11.1465 24.7348 11.0187 24.86 10.7496C25.5108 9.3503 26.182 7.95995 26.843 6.56623C26.9784 6.28143 27.1104 6 27.4995 6C27.8874 6 28.0217 6.27919 28.1582 6.56511C28.8204 7.95995 29.4905 9.34918 30.1424 10.7485C30.2664 11.0154 30.4063 11.1443 30.7272 11.1791C32.3223 11.3529 33.9139 11.5637 35.5067 11.7621C35.8037 11.7991 36.1222 11.8888 36.1416 12.2117C36.1552 12.4393 36.0437 12.7421 35.8788 12.9002C34.7354 13.9923 33.5692 15.062 32.3962 16.1227C32.1607 16.3357 32.0868 16.5274 32.1539 16.8481C32.4668 18.3416 32.75 19.8419 33.0333 21.3421C33.0709 21.5428 33.0959 21.7693 33.0402 21.9599C32.9321 22.3322 32.5225 22.423 32.0879 22.1898C30.866 21.5327 29.619 20.9149 28.4392 20.1906C27.7623 19.7746 27.248 19.7779 26.5722 20.1917C25.3788 20.9216 24.1216 21.5484 22.8849 22.2077C22.3627 22.4858 21.8917 22.22 21.9201 21.6224L21.9178 21.6213ZM23.3309 20.6099C23.5277 20.5112 23.6642 20.4473 23.7951 20.3767C24.8782 19.7903 25.9636 19.2095 27.0398 18.6107C27.3595 18.4336 27.6394 18.428 27.958 18.6096C28.6099 18.9796 29.2743 19.3283 29.9353 19.6849C30.4917 19.9854 31.048 20.2847 31.6738 20.6222C31.403 19.2128 31.1641 17.8797 30.8831 16.5543C30.7989 16.1552 30.9058 15.8894 31.1948 15.6282C32.1163 14.794 33.0242 13.9463 33.9355 13.1009C34.022 13.0202 34.0971 12.9282 34.2188 12.797C32.7876 12.6154 31.4269 12.4293 30.0616 12.2768C29.6725 12.233 29.4495 12.0682 29.2902 11.7262C28.7646 10.5938 28.2197 9.47027 27.6804 8.34454C27.6315 8.2425 27.5677 8.14608 27.4813 7.99695C26.868 9.2819 26.281 10.494 25.7133 11.7139C25.5563 12.0514 25.3446 12.2454 24.9521 12.2801C24.3162 12.3351 23.6836 12.4304 23.0499 12.5111C22.3126 12.6053 21.5754 12.7017 20.8382 12.797C20.8199 12.8329 20.8017 12.8688 20.7835 12.9058C20.9064 12.9989 21.0384 13.0818 21.151 13.185C22.0453 14.0069 22.9304 14.8377 23.8303 15.654C24.1102 15.9085 24.1967 16.172 24.1171 16.5499C23.8406 17.8763 23.5983 19.2095 23.3298 20.6133L23.3309 20.6099Z" fill="white"/>
<path d="M36.7262 22.8837C36.8719 22.1269 36.9481 21.3061 37.1984 20.5403C37.5192 19.557 37.3144 18.8618 36.4566 18.2541C35.8502 17.8246 35.328 17.2718 34.8103 16.7348C34.6533 16.5711 34.5202 16.2392 34.5839 16.0542C34.6499 15.8658 34.9571 15.6741 35.1835 15.6382C36.2621 15.47 37.3486 15.3433 38.4351 15.2267C38.7025 15.1975 38.8231 15.0798 38.9277 14.8567C39.3703 13.9036 39.8311 12.9584 40.2793 12.0065C40.4056 11.7385 40.5547 11.5064 40.8903 11.4996C41.2475 11.4929 41.4034 11.7396 41.5354 12.0199C41.9722 12.9461 42.4296 13.861 42.8472 14.795C42.9791 15.091 43.1498 15.2099 43.4706 15.2424C44.5014 15.35 45.5276 15.4913 46.5561 15.6135C46.869 15.6505 47.2103 15.7212 47.2387 16.0598C47.2581 16.2941 47.1272 16.6081 46.9543 16.7785C46.192 17.5309 45.3808 18.2361 44.6106 18.9818C44.4877 19.1006 44.4058 19.3507 44.4343 19.5188C44.614 20.5661 44.8234 21.6089 45.0373 22.6505C45.0976 22.9476 45.0919 23.2134 44.8279 23.4073C44.5583 23.6058 44.2966 23.5127 44.0338 23.3681C43.1168 22.8647 42.1861 22.3814 41.2794 21.86C40.9915 21.6941 40.7833 21.7187 40.5103 21.8735C39.5739 22.4016 38.6285 22.9117 37.6774 23.4141C37.2029 23.6652 36.7365 23.4129 36.7262 22.8826V22.8837ZM36.4464 16.6529C37.1187 17.2786 37.7161 17.8504 38.3327 18.3998C38.6285 18.6633 38.7195 18.9403 38.6319 19.3316C38.4522 20.1277 38.319 20.9339 38.1507 21.8174C38.9766 21.37 39.7253 20.9765 40.4614 20.5605C40.7651 20.3889 41.0348 20.3822 41.3385 20.5582C41.8152 20.8341 42.3067 21.0863 42.7925 21.3476C43.0542 21.4878 43.3182 21.6245 43.6515 21.8006C43.5036 21.0348 43.4183 20.3519 43.234 19.696C43.0519 19.0513 43.168 18.5837 43.7175 18.1576C44.2784 17.7226 44.771 17.2001 45.3547 16.6585C44.7585 16.5823 44.2568 16.5251 43.7562 16.4545C41.9586 16.2022 42.3875 16.524 41.6332 14.9912C41.5285 14.7771 41.4284 14.5618 41.3238 14.3465C41.1941 14.0785 41.0644 13.8117 40.8994 13.473C40.5046 14.296 40.1383 15.0193 39.8106 15.7604C39.649 16.1259 39.4044 16.302 39.0108 16.3435C38.1928 16.4309 37.377 16.5386 36.4452 16.6518L36.4464 16.6529Z" fill="white"/>
<path d="M10.6213 19.3026C10.5656 19.2286 10.4928 19.0997 10.3881 19.0021C9.61444 18.2789 8.82146 17.5759 8.06715 16.8336C7.8908 16.6598 7.7429 16.3571 7.75428 16.1227C7.77134 15.7853 8.10469 15.6989 8.42212 15.6619C9.45175 15.5397 10.4791 15.3951 11.5099 15.2874C11.8284 15.2538 12.0128 15.1495 12.147 14.8501C12.5736 13.9049 13.0378 12.9754 13.4793 12.0369C13.6067 11.7656 13.7614 11.5458 14.0982 11.5447C14.4349 11.5447 14.5908 11.7633 14.7182 12.0347C15.1654 12.9866 15.6318 13.9307 16.0676 14.8871C16.1893 15.1551 16.3577 15.2504 16.6433 15.2818C17.7161 15.3995 18.789 15.524 19.8539 15.6933C20.0746 15.7281 20.3636 15.9366 20.4319 16.1306C20.4922 16.3021 20.3511 16.6239 20.1941 16.7764C19.4284 17.5266 18.6354 18.2509 17.8333 18.964C17.6103 19.1625 17.5705 19.3542 17.6262 19.6267C17.8344 20.6414 18.0165 21.6617 18.2258 22.6753C18.2873 22.9714 18.2975 23.2382 18.0347 23.4367C17.7525 23.6497 17.4772 23.5466 17.2019 23.3952C16.2712 22.885 15.3326 22.3883 14.4076 21.8692C14.1812 21.7425 14.0083 21.7469 13.7842 21.8725C12.8581 22.3905 11.9195 22.8873 10.9888 23.3963C10.7146 23.5466 10.4404 23.6553 10.1571 23.4378C9.89546 23.2371 9.9057 22.9691 9.966 22.6742C10.1788 21.6315 10.3767 20.5865 10.5792 19.5426C10.5895 19.4876 10.5974 19.4316 10.6179 19.3015L10.6213 19.3026ZM16.8549 21.8579C16.6785 20.9531 16.5283 20.1301 16.3543 19.3105C16.2826 18.973 16.3577 18.7117 16.6194 18.4841C16.9595 18.187 17.2861 17.8753 17.6171 17.5692C17.9073 17.3001 18.1974 17.0298 18.5512 16.7013C17.6843 16.5903 16.9277 16.4535 16.1666 16.4087C15.5988 16.375 15.3064 16.1194 15.0994 15.6227C14.8127 14.932 14.4611 14.2682 14.0982 13.5125C13.7045 14.3321 13.3416 15.0542 13.0117 15.792C12.8433 16.1676 12.5987 16.3492 12.1777 16.3874C11.362 16.4636 10.5496 16.5858 9.6463 16.7013C10.3073 17.3135 10.8955 17.8753 11.5042 18.4157C11.808 18.6859 11.9251 18.964 11.8284 19.3777C11.643 20.1738 11.5144 20.9834 11.3495 21.8591C12.155 21.4229 12.8945 21.0372 13.6181 20.6268C13.9503 20.4384 14.2415 20.434 14.5749 20.6223C15.2996 21.0327 16.038 21.4184 16.8537 21.8591L16.8549 21.8579Z" fill="white"/>
</g>
<defs>
<clipPath id="clip0_272_42">
<rect width="43" height="43" fill="white" transform="translate(6 6)"/>
</clipPath>
</defs>
</svg>
