<svg width="44" height="34" viewBox="0 0 44 34" fill="none" xmlns="http://www.w3.org/2000/svg">
<g clip-path="url(#clip0_119_29)">
<path d="M28.1653 34.0003C27.3538 32.8179 26.6319 31.7649 25.8838 30.6744C31.3697 27.5935 35.3299 23.3799 36.2403 16.7422C34.9883 17.3771 33.7362 17.5877 32.4285 17.5455C27.9999 17.402 24.5591 14.5004 23.7738 10.2276C22.7119 4.45411 27.6954 -0.746905 33.4348 0.0892506C37.528 0.685167 40.0769 3.19987 41.6459 6.82529C43.4142 10.914 43.3184 15.1369 41.9581 19.3146C40.2933 24.4313 36.9638 28.2923 32.6233 31.3C31.2151 32.275 29.6925 33.0815 28.1638 34.0003H28.1653Z" fill="#7B7B7B"/>
<path d="M12.5655 16.7453C11.3196 17.3756 10.0675 17.5877 8.75672 17.5472C3.96487 17.3974 -0.0123678 13.5988 -1.75861e-06 8.96098C0.0170016 2.91601 5.18756 -1.81388 12.0399 0.685228C15.2365 1.8521 17.1146 4.39801 18.2291 7.46339C19.9465 12.1855 19.5322 16.8889 17.4624 21.4191C15.0588 26.6794 11.0321 30.3734 6.05164 33.0909C5.52917 33.3764 4.9928 33.6322 4.43632 33.9146C3.68972 32.8257 2.96631 31.7743 2.21198 30.6745C7.70406 27.5873 11.6643 23.3737 12.567 16.7453H12.5655Z" fill="#7B7B7B"/>
</g>
<defs>
<clipPath id="clip0_119_29">
<rect width="44" height="34" fill="white"/>
</clipPath>
</defs>
</svg>
