<svg width="70" height="70" viewBox="0 0 70 70" fill="none" xmlns="http://www.w3.org/2000/svg">
<mask id="mask0_36_404" style="mask-type:alpha" maskUnits="userSpaceOnUse" x="0" y="0" width="70" height="70">
<rect width="70" height="70" fill="#D9D9D9"/>
</mask>
<g mask="url(#mask0_36_404)">
</g>
<g clip-path="url(#clip0_36_404)">
<path d="M0 37.1243C0.264095 36.7865 0.497611 36.4196 0.796455 36.1165C2.01268 34.8767 3.24698 33.6549 4.4785 32.4289C5.32638 31.5866 6.05195 31.588 6.90261 32.4359C8.19529 33.723 9.47823 35.0185 10.7765 36.3C11.2769 36.7935 11.5423 37.3425 11.2491 38.0291C10.9586 38.7116 10.3887 38.9299 9.68117 38.8993C9.23221 38.8812 8.78325 38.8951 8.18417 38.8951C8.39127 40.1391 8.50525 41.347 8.79993 42.5076C10.0426 47.4184 12.8642 51.1922 17.1662 53.8582C18.356 54.5962 18.5172 55.1439 17.8584 56.3851C17.5818 56.9064 17.3177 57.4346 17.023 57.9447C16.5643 58.7411 15.7665 58.9691 14.9784 58.4993C8.80549 54.8242 4.96082 49.4811 3.54582 42.4256C3.31787 41.2886 3.22752 40.1238 3.0635 38.8951C2.70628 38.8951 2.29346 38.8645 1.88619 38.9007C1.00912 38.9813 0.366953 38.6741 0 37.854C0 37.6108 0 37.3675 0 37.1243ZM2.12805 37.2285C2.50751 37.2285 2.83416 37.2257 3.1608 37.2285C4.23247 37.2369 4.74954 37.7525 4.80236 38.8103C5.15124 45.6796 8.03961 51.2408 13.4466 55.4858C14.136 56.0265 14.888 56.4866 15.6442 57.0065C15.9527 56.4241 16.2168 55.9264 16.4865 55.4177C16.3113 55.3065 16.1793 55.2245 16.05 55.1397C10.2038 51.309 7.04578 45.9075 6.59543 38.9312C6.52454 37.8359 7.10694 37.241 8.20919 37.2313C8.54556 37.2285 8.88054 37.2313 9.24611 37.2313C8.01598 35.997 6.84145 34.8197 5.67665 33.6507C4.52298 34.8141 3.35262 35.9942 2.12666 37.2313L2.12805 37.2285Z" fill="#524B2B"/>
<path d="M25.7493 64.75C25.399 64.4748 25.0195 64.2287 24.7026 63.9188C23.4739 62.715 22.2632 61.4947 21.0512 60.2756C20.2088 59.4292 20.2116 58.7036 21.0595 57.8515C22.3466 56.5602 23.6435 55.2773 24.925 53.9791C25.4185 53.4801 25.9633 53.2076 26.6528 53.5037C27.3339 53.797 27.5521 54.3669 27.5243 55.073C27.5076 55.5219 27.5215 55.9709 27.5215 56.5741C28.7836 56.3601 30.0082 56.2392 31.1841 55.9375C36.1088 54.6741 39.8839 51.8302 42.5388 47.4962C43.1907 46.4329 43.8176 46.2536 44.924 46.8402C45.4452 47.1168 45.9678 47.3892 46.4849 47.6741C47.3731 48.1648 47.6164 48.9585 47.1021 49.8189C43.5576 55.7638 38.4203 59.5362 31.6678 61.0902C30.9937 61.2458 30.3028 61.3404 29.6162 61.4335C28.9462 61.5238 28.2707 61.5753 27.5229 61.6517C27.5229 62.0632 27.4937 62.4927 27.5285 62.918C27.6007 63.7812 27.2699 64.3927 26.4804 64.7514H25.7507L25.7493 64.75ZM25.8563 62.615C25.8563 62.1674 25.8438 61.7699 25.8591 61.3737C25.8897 60.5689 26.4373 60.0129 27.2379 59.9573C27.6702 59.9268 28.1053 59.9156 28.5362 59.8712C35.714 59.1442 41.2558 55.729 45.2187 49.7188C45.3479 49.5228 45.4619 49.3157 45.5981 49.0905C45.0393 48.7959 44.5417 48.5331 44.0636 48.2816C44.0052 48.3344 43.9885 48.3427 43.9802 48.3566C43.8954 48.4873 43.8134 48.6193 43.7272 48.75C39.8923 54.5684 34.4978 57.7056 27.5465 58.1559C26.4554 58.2268 25.8633 57.6375 25.8549 56.5338C25.8521 56.2002 25.8549 55.8666 25.8549 55.515C24.6192 56.7409 23.4378 57.9127 22.2896 59.0511C23.4544 60.2145 24.629 61.389 25.8563 62.615Z" fill="#524B2B"/>
<path d="M53.375 39.0007C53.0984 39.351 52.8523 39.7291 52.5424 40.046C51.3387 41.2733 50.1169 42.4826 48.8979 43.696C48.0528 44.5384 47.3244 44.537 46.4738 43.6891C45.1811 42.402 43.8981 41.1065 42.6013 39.8236C42.1023 39.3301 41.8312 38.7825 42.1259 38.0944C42.4178 37.4134 42.9905 37.1965 43.6952 37.2243C44.1442 37.241 44.5931 37.2271 45.1894 37.2271C44.9823 35.9817 44.8697 34.7752 44.575 33.6146C43.3241 28.6871 40.4913 24.9036 36.1657 22.2376C35.0398 21.544 34.8675 20.9533 35.4888 19.7829C35.7571 19.277 36.0212 18.7696 36.2978 18.2679C36.7856 17.3811 37.5807 17.1364 38.4425 17.6493C44.4055 21.2035 48.1973 26.3519 49.7138 33.1336C50.0085 34.4499 50.1238 35.8052 50.3351 37.2257C50.6854 37.2257 51.1163 37.2549 51.5402 37.2202C52.4034 37.1493 53.015 37.4787 53.375 38.2682V38.9979V39.0007ZM51.2191 38.8951C50.7938 38.8951 50.3949 38.9062 49.9959 38.8923C49.1981 38.8659 48.6379 38.3141 48.581 37.5121C48.5504 37.0798 48.5393 36.6447 48.4948 36.2138C47.7637 28.9929 44.3165 23.4316 38.2493 19.4771C38.0825 19.3687 37.9046 19.277 37.7114 19.1644C37.4222 19.7079 37.1623 20.1958 36.908 20.6753C36.9441 20.7226 36.9608 20.7573 36.9872 20.7754C37.0873 20.8435 37.1915 20.9074 37.293 20.9728C43.1489 24.791 46.3125 30.1897 46.7768 37.1632C46.8518 38.2904 46.2722 38.8895 45.1449 38.8951C44.8155 38.8965 44.4875 38.8951 44.1692 38.8951C45.3812 40.1224 46.5488 41.3039 47.6775 42.4478C48.8367 41.2831 50.0098 40.1071 51.2177 38.8937L51.2191 38.8951Z" fill="#524B2B"/>
<path d="M27.6257 11.375C27.9635 11.6391 28.3304 11.8726 28.6348 12.1715C29.8747 13.3877 31.0979 14.6206 32.3238 15.8521C33.1634 16.6958 33.1606 17.4269 32.3127 18.2776C31.0256 19.5703 29.7288 20.8532 28.4472 22.1501C27.9538 22.6491 27.4061 22.9187 26.7181 22.6213C26.037 22.3266 25.8202 21.7567 25.8493 21.0506C25.8674 20.603 25.8521 20.1527 25.8521 19.5522C24.5872 19.7677 23.3641 19.8886 22.1868 20.1902C17.2621 21.4551 13.4855 24.2976 10.8362 28.6343C10.1871 29.6962 9.56163 29.8769 8.45382 29.289C7.93258 29.0124 7.40995 28.7399 6.89288 28.455C6.00329 27.9629 5.76005 27.1721 6.27295 26.3103C9.81321 20.3612 14.9533 16.5805 21.7072 15.0459C23.0388 14.7429 24.4135 14.6289 25.8521 14.4149C25.8521 14.0827 25.8827 13.6698 25.8466 13.264C25.7687 12.3869 26.0759 11.7447 26.8946 11.3764C27.1378 11.3764 27.3811 11.3764 27.6243 11.3764L27.6257 11.375ZM27.5215 13.5086C27.5215 13.8992 27.5243 14.2439 27.5215 14.5886C27.5104 15.5838 26.9752 16.1273 25.9911 16.176C18.937 16.5332 13.2756 19.5286 9.01398 25.1594C8.56918 25.7473 8.18833 26.3839 7.76022 27.0261C8.33428 27.3305 8.83328 27.5932 9.34062 27.8615C9.46294 27.6711 9.55329 27.5237 9.6478 27.3806C13.48 21.5579 18.8772 18.4222 25.8299 17.9704C26.921 17.8995 27.5145 18.4889 27.5215 19.5925C27.5243 19.9261 27.5215 20.2611 27.5215 20.6281C28.7641 19.3924 29.9442 18.2192 31.1034 17.0656C29.9317 15.9021 28.7516 14.7304 27.5215 13.5086Z" fill="#524B2B"/>
<path d="M26.7334 26.4951C33.1009 26.5188 38.2813 31.7478 38.2535 38.1223C38.2257 44.4883 32.9883 49.666 26.6139 49.6299C20.2478 49.5937 15.0826 44.3563 15.1216 37.9763C15.1605 31.6339 20.3812 26.4715 26.7334 26.4951ZM36.5855 38.0583C36.5828 32.6208 32.1432 28.1714 26.7084 28.1631C21.2458 28.1534 16.7881 32.6041 16.7881 38.0667C16.7881 43.5042 21.2277 47.9522 26.6639 47.9619C32.1251 47.9716 36.5869 43.5168 36.5855 38.0583Z" fill="#524B2B"/>
<path d="M25.7131 39.9223C27.281 38.3488 28.728 36.8991 30.1735 35.4493C30.4557 35.1672 30.7337 34.8795 31.0228 34.6042C31.4343 34.2164 31.9291 34.2011 32.2682 34.5528C32.6046 34.9017 32.5963 35.3576 32.2099 35.7593C31.6205 36.3723 31.0103 36.9658 30.4085 37.5677C29.1436 38.8325 27.8801 40.0974 26.6138 41.3609C25.9703 42.0031 25.6311 42.0031 24.9931 41.3679C23.7505 40.1294 22.512 38.8895 21.2694 37.6511C20.9858 37.3689 20.7676 37.0714 20.9247 36.6392C21.1512 36.0165 21.8379 35.883 22.3536 36.389C23.371 37.3856 24.3746 38.3947 25.3754 39.408C25.5074 39.5414 25.5866 39.7263 25.7131 39.9223Z" fill="#524B2B"/>
</g>
<defs>
<clipPath id="clip0_36_404">
<rect width="53.375" height="53.375" fill="white" transform="translate(0 11.375)"/>
</clipPath>
</defs>
</svg>
