<svg width="36" height="36" viewBox="0 0 36 36" fill="none" xmlns="http://www.w3.org/2000/svg">
<g clip-path="url(#clip0_325_2)">
<path d="M18 36C27.9411 36 36 27.9411 36 18C36 8.05888 27.9411 0 18 0C8.05888 0 0 8.05888 0 18C0 27.9411 8.05888 36 18 36Z" fill="#EFEFEF"/>
<path d="M13.0666 29.88C12.9866 29.72 13.0666 29.56 13.0666 29.3867C13.1733 27.56 13.4933 25.7867 14.0799 24.0534C14.7466 22.0934 15.7333 20.3334 17.1866 18.84C17.8799 18.1334 18.6533 17.52 19.5333 17.0534C19.1999 17.1067 18.8933 17.2267 18.5866 17.3467C16.2799 18.24 14.5999 19.84 13.3866 21.96C12.4399 23.6134 11.8533 25.3867 11.4799 27.2534C11.3599 27.8267 11.2933 28.4 11.1866 29.0267C11.0533 28.8 10.9199 28.5867 10.8133 28.3867C10.1733 27.2267 9.65327 26 9.39994 24.6934C8.79994 21.5734 9.70661 19 12.1466 16.96C13.2799 16.0267 14.5866 15.44 15.9333 14.8934C17.5466 14.24 19.0666 13.4 20.3333 12.16C21.2533 11.2667 21.9333 10.2267 22.1733 8.93338C22.2933 8.26672 22.2933 7.61338 22.1333 6.94672C22.1333 6.90672 22.1066 6.86672 22.1333 6.80005C22.3199 7.05338 22.4933 7.29338 22.6666 7.54672C23.8133 9.25338 24.7599 11.0534 25.4933 12.9734C25.5199 13.0534 25.5466 13.1334 25.5733 13.2134C25.3866 15.4534 24.7999 17.5734 23.8666 19.6134C23.0799 21.3467 22.0666 22.9334 20.8133 24.3734C19.1999 26.2267 17.3199 27.76 15.1333 28.9334C14.4666 29.2934 13.7733 29.6267 13.0666 29.88Z" fill="#499F10"/>
<path d="M13.0667 29.8801C13.3867 29.6267 13.7866 29.5334 14.1466 29.3601C14.84 29.0401 15.4933 28.6667 16.1466 28.2667C16.9333 27.8001 17.68 27.2534 18.3733 26.6667C19.1466 26.0267 19.8533 25.3201 20.52 24.5734C21.4 23.6001 22.16 22.5467 22.8267 21.4401C23.4267 20.4534 23.9066 19.4134 24.32 18.3334C24.7466 17.2267 25.0533 16.0801 25.28 14.9067C25.3733 14.4134 25.4667 13.9334 25.48 13.4267C25.48 13.3334 25.5066 13.2667 25.56 13.2001C26 14.3467 26.32 15.5334 26.5333 16.7467C26.8133 18.3734 26.88 20.0134 26.6266 21.6534C26.36 23.4267 25.8533 25.1067 24.7466 26.5467C23.6533 27.9601 22.2133 28.8801 20.52 29.4134C18.72 29.9867 16.8666 30.1467 14.9866 30.0534C14.36 30.0267 13.7467 29.9467 13.12 29.8934C13.1067 29.8934 13.08 29.8801 13.0667 29.8667V29.8801Z" fill="#3A7E0D"/>
<path d="M12.1066 8.5867C12.7333 8.5867 13.2533 9.1067 13.24 9.73336C13.24 10.3467 12.7066 10.8667 12.0933 10.8534C11.4666 10.8534 10.96 10.3467 10.96 9.72003C10.96 9.08003 11.4666 8.57336 12.0933 8.57336L12.1066 8.5867Z" fill="#499F10"/>
<path d="M18.68 9.22668C19.2534 9.22668 19.72 9.69335 19.7334 10.2667C19.7334 10.84 19.24 11.3334 18.6667 11.32C18.0934 11.32 17.6267 10.84 17.6267 10.2667C17.6267 9.69335 18.0934 9.22668 18.6667 9.22668H18.68Z" fill="#499F10"/>
<path d="M10.5067 14.0668C10.8534 14.0668 11.1467 14.3468 11.1467 14.7068C11.1467 15.0534 10.8534 15.3468 10.5067 15.3468C10.16 15.3468 9.8667 15.0534 9.8667 14.7068C9.8667 14.3468 10.1467 14.0801 10.5067 14.0801V14.0668Z" fill="#3A7F0D"/>
<path d="M12.9733 14.0401C12.9733 14.2801 12.7733 14.4934 12.5333 14.5067C12.2933 14.5067 12.08 14.3201 12.0667 14.0801C12.0667 13.8267 12.2533 13.6134 12.5067 13.6134C12.7467 13.6134 12.96 13.8134 12.96 14.0534L12.9733 14.0401Z" fill="#4AA011"/>
<path d="M15.6132 12.6801C15.4132 12.6801 15.2532 12.5201 15.2532 12.3201C15.2532 12.1201 15.4132 11.9601 15.6132 11.9601C15.8132 11.9601 15.9732 12.1201 15.9732 12.3201C15.9732 12.5067 15.7998 12.6801 15.6132 12.6801Z" fill="#4AA012"/>
</g>
<defs>
<clipPath id="clip0_325_2">
<rect width="36" height="36" fill="white"/>
</clipPath>
</defs>
</svg>
