<svg width="9" height="9" viewBox="0 0 9 9" fill="none" xmlns="http://www.w3.org/2000/svg">
<path d="M4.63096 4.34343C4.66037 4.32062 4.68753 4.29498 4.71207 4.26687C4.80777 4.13628 4.9018 4.03573 4.99248 3.90102C5.40855 3.28221 5.7239 2.62173 5.8019 1.8658C5.84712 1.42847 5.75261 1.03136 5.47507 0.686581C5.22624 0.377421 4.9085 0.162512 4.55009 0.00672046C4.51438 -0.00423081 4.47597 -0.00173498 4.44194 0.013747C4.16827 0.128052 3.91767 0.292304 3.70262 0.498323C3.34565 0.841403 3.15902 1.25668 3.19754 1.76282C3.22415 2.13666 3.30651 2.50426 3.44183 2.85312C3.54136 3.1068 3.66315 3.34303 3.85144 3.54703C4.01151 3.72075 4.14286 3.92161 4.28714 4.11011C4.29982 4.12683 4.33092 4.1874 4.35581 4.21575L4.50271 4.43235L4.63096 4.34343Z" fill="#77B81E"/>
<path d="M4.97466 4.81204C4.9839 4.81737 4.99369 4.82168 5.00385 4.82488C5.21655 4.89223 5.42758 4.96613 5.64243 5.02549C6.26762 5.19849 6.90047 5.27117 7.54456 5.14664C7.95561 5.06765 8.31665 4.89878 8.57482 4.54964C8.8404 4.19081 8.96361 3.77941 8.99998 3.3382C8.99992 3.3032 8.98724 3.26943 8.96433 3.24322C8.75427 2.99464 8.49772 2.79059 8.20946 2.64283C7.78238 2.42744 7.3443 2.39085 6.90812 2.60067C6.65009 2.724 6.40111 2.86586 6.16307 3.02516C5.86638 3.22505 5.61277 3.47073 5.4405 3.80048C5.34121 3.99141 5.20291 4.16174 5.08161 4.34127C5.06534 4.3655 5.04859 4.38973 5.02299 4.42583L4.84235 4.70034L4.97466 4.81204Z" fill="#77B81E"/>
<path d="M4.09957 5.05322C4.05937 5.06025 4.0364 5.06218 4.01463 5.06824C3.55958 5.19204 3.1216 5.37298 2.7109 5.60685C2.29554 5.84647 1.92134 6.13649 1.63063 6.52754C1.41328 6.81677 1.30969 7.17741 1.33993 7.53958C1.36553 7.91706 1.49162 8.26281 1.6737 8.59038C1.68643 8.61537 1.7049 8.6369 1.72755 8.65317C1.75019 8.66945 1.77636 8.67998 1.80386 8.6839C2.09576 8.74278 2.38933 8.76289 2.68458 8.71952C3.16143 8.64998 3.54281 8.42587 3.80121 8.0038C3.99908 7.68083 4.1534 7.33872 4.24073 6.96899C4.28428 6.78509 4.32902 6.59562 4.33069 6.40833C4.33356 6.08318 4.31371 5.75925 4.29744 5.43361C4.29893 5.41256 4.29893 5.39143 4.29744 5.37037L4.33189 5.05273L4.09957 5.05322Z" fill="#77B81E"/>
<path d="M4.9875 5.17339C5.15977 5.22742 5.30572 5.27709 5.45382 5.31877C5.61747 5.36407 5.78352 5.40017 5.94813 5.44233C5.99431 5.45325 6.03935 5.46867 6.0826 5.48837C6.58524 5.72525 7.0253 6.07938 7.36671 6.52173C7.67344 6.91908 7.7256 7.3724 7.61913 7.85286C7.56026 8.11808 7.459 8.37179 7.31934 8.60395C7.30291 8.63437 7.27612 8.6577 7.24397 8.66961C6.77765 8.77525 6.31564 8.78276 5.86583 8.59135C5.49378 8.43314 5.25715 8.13754 5.07459 7.78695C4.82911 7.31546 4.69823 6.80908 4.65014 6.28259C4.62143 5.96761 4.62478 5.64949 4.61401 5.33258C4.61454 5.31529 4.61614 5.29805 4.6188 5.28097L4.62957 5.05273L4.9875 5.17339Z" fill="#77B81E"/>
<path d="M4.11827 4.47946C4.11336 4.46285 4.1072 4.44665 4.09985 4.431C4.01275 4.30501 3.92949 4.17563 3.83666 4.05352C3.41341 3.49335 2.92531 3.0078 2.29319 2.68992C1.96923 2.52686 1.63259 2.42801 1.26604 2.49294C0.753065 2.5838 0.361395 2.87818 0.0249942 3.26148C0.0153118 3.27396 0.00820399 3.28828 0.0040939 3.3036C-1.6187e-05 3.31892 -0.00104478 3.33491 0.00106809 3.35064C0.043178 3.56313 0.0728461 3.7807 0.139121 3.98519C0.308997 4.49981 0.617643 4.89741 1.14737 5.06895C1.49805 5.18176 1.86591 5.22977 2.23337 5.21069C2.45277 5.20002 2.68031 5.19154 2.88727 5.12661L4.1733 4.75349L4.22833 4.74113L4.11827 4.47946Z" fill="#77B81E"/>
</svg>
