<svg width="144" height="82" viewBox="0 0 144 82" fill="none" xmlns="http://www.w3.org/2000/svg">
<path d="M138.941 38.3921H70.2564C70.2214 38.3921 70.1903 38.3805 70.1513 38.3805C66.349 38.3805 62.5622 38.7269 58.8415 39.408V36.5239C63.6752 32.4332 66.3256 27.0737 66.3256 21.3639C66.3256 15.6541 63.4923 9.93267 58.3433 5.79141C57.853 5.39831 57.1563 5.39831 56.6659 5.79141C51.517 9.93267 48.6837 15.4595 48.6837 21.3639C48.6837 27.2683 51.3379 32.4332 56.1678 36.5239V39.9568C53.6264 40.5367 51.1239 41.2723 48.672 42.1597V34.3326C48.672 33.9668 48.5241 33.632 48.2828 33.3907L40.7948 25.8594C40.5418 25.6064 40.2032 25.4663 39.8452 25.4663H24.5617C24.2076 25.4663 23.8651 25.6064 23.6121 25.8594L16.1241 33.3907C15.8828 33.632 15.7349 33.9668 15.7349 34.3326V39.4391C14.8048 39.2679 13.8668 39.1161 12.9289 38.9876V34.2197C16.5833 31.0749 18.5877 26.9764 18.5877 22.6094C18.5877 18.2424 16.4004 13.7742 12.4307 10.5827C11.9403 10.1896 11.2437 10.1896 10.7572 10.5827C6.78746 13.7742 4.60021 18.0478 4.60021 22.6094C4.60021 27.171 6.60454 31.0749 10.259 34.2197V38.6802C8.30919 38.4972 6.34767 38.4038 4.37838 38.4038C3.63892 38.4038 3.04346 39.0032 3.04346 39.7427C3.04346 40.4822 3.64281 41.0777 4.37838 41.0777C15.0694 41.0777 25.523 43.9073 34.7429 49.2707C32.5362 50.7731 30.4268 52.4117 28.4303 54.1748C20.9617 50.3683 12.6642 48.36 4.38227 48.36C3.64281 48.36 3.04735 48.9594 3.04735 49.6989C3.04735 50.4384 3.6467 51.0339 4.38227 51.0339C11.917 51.0339 19.4711 52.7853 26.3286 56.1131C24.2971 58.0787 22.3978 60.1843 20.6426 62.4068C15.443 60.2271 9.97881 59.1218 4.38227 59.1218C3.64281 59.1218 3.04735 59.7212 3.04735 60.4568C3.04735 61.1924 3.6467 61.7918 4.38227 61.7918C9.39502 61.7918 14.2949 62.7415 18.9808 64.6136C18.0584 65.898 17.1788 67.2175 16.3537 68.5681L14.3183 71.9075C13.933 72.538 14.1315 73.3593 14.7619 73.7446C14.9799 73.877 15.2212 73.9392 15.4586 73.9392C15.9101 73.9392 16.3498 73.7096 16.5989 73.297L18.6344 69.9576C19.6969 68.2178 20.845 66.5402 22.067 64.9328C22.1137 64.8783 22.1604 64.8238 22.1993 64.7615C30.995 53.2952 43.7254 45.3319 57.7751 42.3466C57.7751 42.3466 57.779 42.3466 57.7829 42.3466C61.8149 41.4903 65.9559 41.0427 70.1436 41.0427H138.944C139.668 41.0427 140.256 40.4472 140.256 39.7116C140.256 38.976 139.668 38.3805 138.944 38.3805L138.941 38.3921ZM11.5978 20.2041C10.8584 20.2041 10.259 20.8035 10.259 21.543V30.4405C8.31697 28.1324 7.27394 25.4312 7.27394 22.6133C7.27394 19.2038 8.79957 15.9655 11.5939 13.3889C14.3883 15.9616 15.9139 19.1999 15.9139 22.6133C15.9139 25.4312 14.8709 28.1324 12.9289 30.4405V21.543C12.9289 20.8035 12.3295 20.2041 11.5939 20.2041H11.5978ZM24.5656 28.6968L28.8389 32.9937H20.2923L24.5656 28.6968ZM26.1691 42.2921C25.1105 41.9029 24.0402 41.5409 22.9622 41.2062V40.1942H26.1691V42.2921ZM30.7148 44.172C30.096 43.8879 29.4733 43.6115 28.8428 43.3469V38.8553C28.8428 38.1158 28.2435 37.5164 27.5079 37.5164H21.6272C20.8878 37.5164 20.2923 38.1158 20.2923 38.8553V40.4433C19.6696 40.2798 19.0469 40.128 18.4203 39.984V35.6676H30.7187V44.1681L30.7148 44.172ZM27.7803 28.1363H39.2964L44.1263 32.9937H32.6102L27.7803 28.1363ZM45.9983 43.199C43.7098 44.1486 41.472 45.2307 39.3003 46.4489C38.6076 46.8381 37.9226 47.2429 37.2454 47.6555C35.9805 46.8848 34.6962 46.157 33.3885 45.4798V35.6676H45.9983V43.1951V43.199ZM57.5066 21.2744C56.7671 21.2744 56.1717 21.8738 56.1717 22.6094V32.8458C53.0504 29.5414 51.3613 25.548 51.3613 21.36C51.3613 16.6077 53.5369 12.1084 57.5105 8.5782C61.4841 12.1045 63.6597 16.6077 63.6597 21.36C63.6597 25.548 61.9706 29.5414 58.8493 32.8458V22.6094C58.8493 21.8699 58.2499 21.2744 57.5144 21.2744H57.5066Z" fill="#383838"/>
<path d="M63.6052 74.0059H58.6119V69.0122H48.6253V74.0059H43.6515V59.0444C43.6515 57.6627 43.9122 56.3666 44.4337 55.1561C44.9552 53.9457 45.6675 52.887 46.5665 51.9801C47.4655 51.0733 48.5202 50.361 49.7345 49.8395C50.9449 49.3179 52.2409 49.0571 53.6225 49.0571C55.0041 49.0571 56.3001 49.3179 57.5105 49.8395C58.7209 50.361 59.7795 51.0733 60.6863 51.9801C61.5892 52.8831 62.3053 53.9418 62.8268 55.1561C63.3483 56.3666 63.6091 57.6627 63.6091 59.0444V74.0059H63.6052ZM58.6119 64.038V59.0444C58.6119 58.3594 58.4796 57.7133 58.2188 57.1061C57.958 56.4989 57.6 55.9657 57.1485 55.5142C56.6971 55.0627 56.1639 54.7047 55.5568 54.4439C54.9496 54.1831 54.2997 54.0508 53.6186 54.0508C52.9375 54.0508 52.2876 54.1831 51.6804 54.4439C51.0733 54.7047 50.5401 55.0627 50.0886 55.5142C49.6372 55.9657 49.2791 56.4989 49.0184 57.1061C48.7576 57.7133 48.6253 58.3633 48.6253 59.0444V64.038H58.6119Z" fill="#383838"/>
<path d="M87.7855 71.4837C86.6257 72.4684 85.3336 73.2274 83.9053 73.7529C82.477 74.2783 80.9942 74.543 79.453 74.543C78.2698 74.543 77.1295 74.3873 76.0359 74.0837C74.9384 73.7762 73.9148 73.3403 72.9652 72.7798C72.0156 72.2193 71.1438 71.546 70.3576 70.7637C69.5676 69.9813 68.8982 69.1095 68.3377 68.152C67.7812 67.1946 67.3492 66.167 67.0417 65.0656C66.7343 63.9641 66.5825 62.8198 66.5825 61.6366C66.5825 60.4533 66.7343 59.3168 67.0417 58.227C67.3492 57.1372 67.7812 56.1136 68.3377 55.1561C68.8943 54.1986 69.5676 53.3307 70.3576 52.5445C71.1477 51.7622 72.0156 51.0927 72.9652 50.5361C73.9148 49.9795 74.9384 49.5475 76.0359 49.24C77.1334 48.9326 78.2698 48.7808 79.453 48.7808C80.9942 48.7808 82.4809 49.0454 83.9053 49.5709C85.3336 50.1002 86.6257 50.8553 87.7855 51.84L85.1741 56.1875C84.419 55.4208 83.5511 54.8214 82.5626 54.3855C81.5779 53.9495 80.5388 53.7316 79.4491 53.7316C78.3594 53.7316 77.3358 53.9418 76.3784 54.3582C75.421 54.7747 74.5842 55.3429 73.8642 56.0552C73.1442 56.7675 72.576 57.6043 72.1596 58.5618C71.7431 59.5192 71.533 60.5429 71.533 61.6327C71.533 62.7225 71.7431 63.7656 72.1596 64.7308C72.576 65.6922 73.1442 66.5329 73.8642 67.2529C74.5842 67.973 75.421 68.5413 76.3784 68.9577C77.3358 69.3742 78.3594 69.5843 79.4491 69.5843C80.0757 69.5843 80.6828 69.5104 81.2744 69.3586C81.8659 69.2068 82.4264 69.0005 82.9635 68.732V61.6327H87.7816V71.4798L87.7855 71.4837Z" fill="#383838"/>
<path d="M96.624 74.0059H91.6307V49.0571H101.617C102.532 49.0571 103.415 49.1778 104.26 49.4152C105.104 49.6526 105.898 49.9912 106.634 50.4233C107.37 50.8592 108.043 51.3808 108.65 51.9879C109.257 52.5951 109.782 53.2723 110.214 54.0157C110.65 54.7591 110.985 55.5531 111.222 56.3977C111.46 57.2462 111.581 58.1259 111.581 59.0405C111.581 59.9007 111.472 60.7336 111.258 61.5471C111.043 62.3605 110.736 63.1312 110.335 63.8629C109.934 64.5946 109.444 65.268 108.864 65.879C108.284 66.494 107.634 67.0272 106.914 67.4787L109.681 74.002H104.377L102.201 68.9733L96.6162 69.0083V74.002L96.624 74.0059ZM96.624 54.0508V64.038H101.617C102.302 64.038 102.944 63.9057 103.548 63.6449C104.151 63.3842 104.68 63.0261 105.132 62.5746C105.583 62.1231 105.941 61.5899 106.202 60.9827C106.463 60.3755 106.595 59.7255 106.595 59.0444C106.595 58.3633 106.467 57.7133 106.202 57.1061C105.941 56.4989 105.583 55.9657 105.132 55.5142C104.68 55.0627 104.151 54.7047 103.548 54.4439C102.944 54.1831 102.302 54.0508 101.617 54.0508H96.624Z" fill="#383838"/>
<path d="M139.295 61.6364C139.295 62.8197 139.139 63.9601 138.835 65.0538C138.528 66.1513 138.096 67.175 137.539 68.1325C136.983 69.0899 136.31 69.9618 135.523 70.7519C134.733 71.542 133.866 72.2153 132.912 72.7797C131.962 73.3441 130.935 73.7761 129.834 74.0836C128.732 74.391 127.588 74.5428 126.405 74.5428C125.222 74.5428 124.081 74.3871 122.988 74.0836C121.89 73.7761 120.867 73.3402 119.909 72.7797C118.952 72.2192 118.08 71.542 117.29 70.7519C116.5 69.9618 115.827 69.0899 115.262 68.1325C114.698 67.175 114.266 66.1513 113.958 65.0538C113.651 63.9562 113.499 62.8197 113.499 61.6364C113.499 60.4532 113.651 59.3128 113.958 58.2074C114.266 57.106 114.702 56.0784 115.262 55.1287C115.823 54.1791 116.5 53.3072 117.29 52.5171C118.08 51.727 118.952 51.0575 119.909 50.501C120.867 49.9444 121.894 49.5124 122.988 49.2049C124.085 48.8974 125.222 48.7456 126.405 48.7456C127.588 48.7456 128.728 48.9013 129.834 49.2049C130.935 49.5124 131.962 49.9444 132.912 50.501C133.862 51.0575 134.733 51.7309 135.523 52.5171C136.314 53.3072 136.983 54.1752 137.539 55.1287C138.096 56.0784 138.528 57.106 138.835 58.2074C139.143 59.3089 139.295 60.4532 139.295 61.6364ZM134.336 61.6364C134.336 60.5466 134.126 59.5152 133.71 58.55C133.293 57.5808 132.725 56.7401 132.013 56.0278C131.301 55.3156 130.46 54.7473 129.491 54.3309C128.522 53.9144 127.494 53.7042 126.405 53.7042C125.315 53.7042 124.272 53.9144 123.307 54.3309C122.346 54.7473 121.505 55.3156 120.785 56.0278C120.065 56.7401 119.497 57.5808 119.08 58.55C118.664 59.5191 118.454 60.5466 118.454 61.6364C118.454 62.7262 118.664 63.7499 119.08 64.7073C119.497 65.6648 120.065 66.5016 120.785 67.2217C121.505 67.9417 122.346 68.51 123.307 68.9264C124.268 69.3429 125.299 69.5531 126.405 69.5531C127.51 69.5531 128.526 69.3429 129.491 68.9264C130.46 68.51 131.301 67.9417 132.013 67.2217C132.725 66.5016 133.293 65.6648 133.71 64.7073C134.126 63.7499 134.336 62.7262 134.336 61.6364Z" fill="#383838"/>
<path d="M75.024 33.8577L74.1561 32.8185C73.9148 32.8769 73.6696 32.908 73.4205 32.908C72.8873 32.908 72.3931 32.7835 71.9494 32.5305C71.5018 32.2814 71.1477 31.9311 70.8869 31.4874C70.6261 31.0437 70.4938 30.5377 70.4938 29.9772C70.4938 29.4167 70.6261 28.9185 70.8869 28.4748C71.1477 28.0311 71.5018 27.6808 71.9494 27.4317C72.397 27.1826 72.8873 27.0542 73.4205 27.0542C73.9537 27.0542 74.4519 27.1787 74.8955 27.4317C75.3392 27.6808 75.6934 28.0311 75.9502 28.4748C76.211 28.9185 76.3394 29.4206 76.3394 29.9772C76.3394 30.4832 76.2305 30.9464 76.0164 31.3628C75.8024 31.7793 75.5066 32.1179 75.1368 32.3826L76.4445 33.8538H75.0201L75.024 33.8577ZM71.891 30.9853C72.0389 31.2733 72.2452 31.4952 72.5098 31.6508C72.7745 31.8065 73.078 31.8844 73.4205 31.8844C73.763 31.8844 74.0666 31.8065 74.3273 31.6508C74.5881 31.4952 74.7944 31.2733 74.9423 30.9853C75.0901 30.6973 75.1641 30.3625 75.1641 29.9772C75.1641 29.5919 75.0901 29.2611 74.9423 28.973C74.7944 28.685 74.592 28.4671 74.3273 28.3153C74.0666 28.1635 73.763 28.0856 73.4205 28.0856C73.078 28.0856 72.7745 28.1635 72.5098 28.3153C72.2452 28.4671 72.0389 28.6889 71.891 28.973C71.7431 29.2611 71.6692 29.5919 71.6692 29.9772C71.6692 30.3625 71.7431 30.6934 71.891 30.9853Z" fill="#383838"/>
<path d="M81.4884 28.3154V32.8498H80.3364V32.2776C80.1885 32.4723 79.9978 32.6279 79.7604 32.7408C79.523 32.8537 79.2662 32.9082 78.9859 32.9082C78.6318 32.9082 78.3165 32.8342 78.0441 32.6824C77.7717 32.5306 77.5576 32.3127 77.4019 32.0208C77.2463 31.7289 77.1684 31.3824 77.1684 30.9777V28.3193H78.3126V30.8142C78.3126 31.1762 78.4022 31.4525 78.5812 31.6432C78.7602 31.8378 79.0054 31.9351 79.3168 31.9351C79.6281 31.9351 79.8811 31.8378 80.0601 31.6432C80.2391 31.4486 80.3286 31.1723 80.3286 30.8142V28.3193H81.4806L81.4884 28.3154Z" fill="#383838"/>
<path d="M82.5976 29.3471C82.7805 28.9929 83.0296 28.7204 83.341 28.5297C83.6562 28.339 84.0065 28.2417 84.3918 28.2417C84.7304 28.2417 85.0262 28.3118 85.2791 28.448C85.5321 28.5842 85.7345 28.7555 85.8902 28.9618V28.3157H87.0422V32.85H85.8902V32.1883C85.7423 32.4024 85.5399 32.5776 85.2791 32.7177C85.0184 32.8578 84.7226 32.9279 84.384 32.9279C84.0026 32.9279 83.6562 32.8306 83.341 32.6321C83.0257 32.4374 82.7805 32.1572 82.5976 31.803C82.4147 31.4449 82.3213 31.0363 82.3213 30.5731C82.3213 30.1099 82.4147 29.709 82.5976 29.3549V29.3471ZM85.7267 29.8686C85.6177 29.6701 85.4698 29.5183 85.283 29.4093C85.0962 29.3043 84.8977 29.2498 84.6876 29.2498C84.4774 29.2498 84.2789 29.3004 84.0999 29.4055C83.9209 29.5105 83.773 29.6623 83.664 29.8608C83.5511 30.0593 83.4966 30.2968 83.4966 30.5692C83.4966 30.8417 83.5511 31.0791 83.664 31.2854C83.7769 31.4917 83.9247 31.6473 84.1077 31.7563C84.2906 31.8653 84.4852 31.9198 84.6914 31.9198C84.8977 31.9198 85.104 31.8653 85.2869 31.7602C85.4698 31.6551 85.6216 31.4994 85.7306 31.3009C85.8396 31.1024 85.894 30.865 85.894 30.5848C85.894 30.3045 85.8396 30.0671 85.7306 29.8686H85.7267Z" fill="#383838"/>
<path d="M89.3111 26.7935V32.8497H88.1669V26.7935H89.3111Z" fill="#383838"/>
<path d="M90.5176 27.5837C90.3853 27.4553 90.3152 27.2957 90.3152 27.105C90.3152 26.9143 90.3814 26.7547 90.5176 26.6263C90.6499 26.4978 90.8173 26.4355 91.0197 26.4355C91.222 26.4355 91.3894 26.5017 91.5217 26.6263C91.654 26.7547 91.7202 26.9143 91.7202 27.105C91.7202 27.2957 91.654 27.4553 91.5217 27.5837C91.3894 27.7122 91.222 27.7745 91.0197 27.7745C90.8173 27.7745 90.6499 27.7122 90.5176 27.5837ZM91.584 28.3155V32.8498H90.4398V28.3155H91.584Z" fill="#383838"/>
<path d="M94.0476 29.2572V31.4485C94.0476 31.6002 94.0826 31.7131 94.1565 31.7793C94.2305 31.8493 94.355 31.8805 94.5301 31.8805H95.0633V32.8457H94.3433C93.3782 32.8457 92.8956 32.3748 92.8956 31.4368V29.2533H92.3546V28.3114H92.8956V27.1904H94.0476V28.3114H95.0633V29.2533H94.0476V29.2572Z" fill="#383838"/>
<path d="M100.224 28.3154L97.4179 34.9905H96.1998L97.1805 32.733L95.363 28.3154H96.6473L97.8188 31.4836L99.0058 28.3154H100.224Z" fill="#383838"/>
<path d="M106.731 29.7673C106.587 30.0359 106.361 30.25 106.054 30.4134C105.747 30.5769 105.357 30.6586 104.886 30.6586H103.929V32.8499H102.785V27.1401H104.886C105.326 27.1401 105.704 27.218 106.015 27.3698C106.326 27.5216 106.56 27.7317 106.716 28.0003C106.871 28.2689 106.949 28.5686 106.949 28.9072C106.949 29.2108 106.875 29.4988 106.731 29.7673ZM105.54 29.5144C105.692 29.3703 105.77 29.168 105.77 28.9033C105.77 28.3467 105.459 28.0704 104.836 28.0704H103.929V29.7323H104.836C105.151 29.7323 105.389 29.6584 105.54 29.5144Z" fill="#383838"/>
<path d="M109.483 28.4558C109.72 28.3196 109.993 28.2495 110.296 28.2495V29.4522H109.993C109.635 29.4522 109.362 29.5378 109.179 29.7052C108.996 29.8725 108.907 30.1683 108.907 30.5887V32.8462H107.763V28.3118H108.907V29.0163C109.055 28.775 109.245 28.5881 109.483 28.4519V28.4558Z" fill="#383838"/>
<path d="M111.9 32.6321C111.549 32.4375 111.277 32.165 111.078 31.8108C110.88 31.4566 110.779 31.048 110.779 30.5848C110.779 30.1216 110.88 29.7129 111.086 29.3588C111.293 29.0046 111.569 28.7282 111.927 28.5375C112.285 28.3468 112.678 28.2456 113.114 28.2456C113.55 28.2456 113.947 28.3429 114.301 28.5375C114.655 28.7321 114.935 29.0046 115.138 29.3588C115.34 29.7129 115.445 30.1216 115.445 30.5848C115.445 31.048 115.34 31.4566 115.13 31.8108C114.92 32.165 114.636 32.4414 114.278 32.6321C113.92 32.8267 113.523 32.924 113.079 32.924C112.635 32.924 112.25 32.8267 111.9 32.6321ZM113.663 31.7758C113.846 31.6746 113.99 31.5228 114.099 31.3204C114.208 31.118 114.262 30.8728 114.262 30.5848C114.262 30.1528 114.149 29.8219 113.923 29.5923C113.698 29.3588 113.421 29.2459 113.094 29.2459C112.768 29.2459 112.495 29.3627 112.273 29.5923C112.051 29.8258 111.942 30.1567 111.942 30.5848C111.942 31.0129 112.051 31.3477 112.266 31.5773C112.48 31.8069 112.752 31.9237 113.079 31.9237C113.285 31.9237 113.48 31.8731 113.663 31.7719V31.7758Z" fill="#383838"/>
<path d="M116.262 29.3467C116.445 28.9925 116.694 28.7201 117.01 28.5293C117.325 28.3386 117.679 28.2413 118.064 28.2413C118.36 28.2413 118.64 28.3075 118.909 28.432C119.178 28.5605 119.388 28.7317 119.547 28.9419V26.7896H120.711V32.8457H119.547V32.1763C119.403 32.402 119.205 32.5811 118.948 32.7173C118.691 32.8535 118.395 32.9236 118.057 32.9236C117.675 32.9236 117.325 32.8263 117.01 32.6278C116.694 32.4332 116.445 32.1529 116.262 31.7988C116.08 31.4407 115.986 31.032 115.986 30.5688C115.986 30.1057 116.08 29.7048 116.262 29.3506V29.3467ZM119.392 29.8682C119.283 29.6697 119.135 29.518 118.948 29.409C118.761 29.3039 118.563 29.2494 118.352 29.2494C118.142 29.2494 117.944 29.3 117.765 29.4051C117.586 29.5102 117.438 29.662 117.329 29.8605C117.216 30.059 117.162 30.2964 117.162 30.5688C117.162 30.8413 117.216 31.0787 117.329 31.285C117.442 31.4913 117.59 31.647 117.773 31.7559C117.955 31.8649 118.15 31.9194 118.356 31.9194C118.563 31.9194 118.769 31.8649 118.952 31.7598C119.135 31.6547 119.286 31.4991 119.395 31.3006C119.504 31.1021 119.559 30.8646 119.559 30.5844C119.559 30.3042 119.504 30.0667 119.395 29.8682H119.392Z" fill="#383838"/>
<path d="M126.109 28.3154V32.8498H124.957V32.2776C124.809 32.4723 124.618 32.6279 124.381 32.7408C124.144 32.8537 123.887 32.9082 123.606 32.9082C123.252 32.9082 122.937 32.8342 122.665 32.6824C122.392 32.5306 122.178 32.3127 122.022 32.0208C121.867 31.7289 121.789 31.3824 121.789 30.9777V28.3193H122.933V30.8142C122.933 31.1762 123.023 31.4525 123.202 31.6432C123.381 31.8378 123.626 31.9351 123.937 31.9351C124.249 31.9351 124.502 31.8378 124.681 31.6432C124.86 31.4486 124.949 31.1723 124.949 30.8142V28.3193H126.101L126.109 28.3154Z" fill="#383838"/>
<path d="M127.23 29.351C127.421 29.0007 127.685 28.7282 128.024 28.5336C128.362 28.339 128.748 28.2417 129.187 28.2417C129.748 28.2417 130.215 28.3818 130.581 28.6621C130.95 28.9423 131.196 29.3354 131.32 29.8453H130.086C130.02 29.6507 129.911 29.495 129.756 29.3821C129.6 29.2692 129.409 29.2147 129.18 29.2147C128.853 29.2147 128.592 29.3315 128.401 29.5689C128.211 29.8063 128.113 30.145 128.113 30.5809C128.113 31.0168 128.211 31.3476 128.401 31.5851C128.592 31.8225 128.853 31.9392 129.18 31.9392C129.643 31.9392 129.946 31.733 130.086 31.3165H131.32C131.196 31.8069 130.947 32.1961 130.577 32.488C130.207 32.7761 129.744 32.9201 129.187 32.9201C128.752 32.9201 128.362 32.8228 128.024 32.6282C127.685 32.4336 127.421 32.1611 127.23 31.8108C127.039 31.4605 126.942 31.0479 126.942 30.5809C126.942 30.1138 127.039 29.7013 127.23 29.351Z" fill="#383838"/>
<path d="M133.5 29.2572V31.4485C133.5 31.6002 133.535 31.7131 133.609 31.7793C133.683 31.8493 133.807 31.8805 133.982 31.8805H134.515V32.8457H133.795C132.83 32.8457 132.348 32.3748 132.348 31.4368V29.2533H131.807V28.3114H132.348V27.1904H133.5V28.3114H134.515V29.2533H133.5V29.2572Z" fill="#383838"/>
<path d="M136.076 32.7255C135.78 32.5931 135.547 32.4102 135.376 32.1806C135.204 31.9509 135.111 31.6979 135.095 31.4177H136.247C136.271 31.5928 136.356 31.7369 136.504 31.8497C136.656 31.9626 136.843 32.021 137.065 32.021C137.286 32.021 137.454 31.9782 137.574 31.8887C137.695 31.7991 137.757 31.6902 137.757 31.5539C137.757 31.406 137.683 31.297 137.532 31.2231C137.38 31.1491 137.142 31.0674 136.816 30.9818C136.477 30.9 136.201 30.8144 135.987 30.7288C135.773 30.6432 135.586 30.5069 135.43 30.3279C135.274 30.1489 135.197 29.9037 135.197 29.6001C135.197 29.351 135.27 29.1213 135.414 28.9112C135.558 28.7049 135.765 28.5414 136.037 28.4207C136.306 28.3001 136.625 28.2417 136.991 28.2417C137.532 28.2417 137.96 28.3779 138.283 28.6465C138.606 28.915 138.781 29.2809 138.816 29.7402H137.718C137.703 29.5611 137.625 29.4171 137.493 29.312C137.36 29.207 137.181 29.1525 136.956 29.1525C136.749 29.1525 136.59 29.1914 136.477 29.2653C136.364 29.3393 136.31 29.4483 136.31 29.5845C136.31 29.7363 136.387 29.8531 136.539 29.9309C136.691 30.0087 136.928 30.0905 137.251 30.1722C137.578 30.2539 137.847 30.3396 138.061 30.4252C138.275 30.5108 138.458 30.6471 138.614 30.83C138.769 31.0129 138.851 31.2542 138.855 31.5539C138.855 31.8147 138.781 32.0521 138.637 32.2584C138.493 32.4647 138.287 32.6282 138.014 32.7449C137.746 32.8617 137.43 32.9201 137.069 32.9201C136.707 32.9201 136.364 32.8539 136.072 32.7216L136.076 32.7255Z" fill="#383838"/>
</svg>
