<svg width="75" height="75" viewBox="0 0 75 75" fill="none" xmlns="http://www.w3.org/2000/svg">
<mask id="mask0_84_4" style="mask-type:alpha" maskUnits="userSpaceOnUse" x="0" y="0" width="75" height="75">
<rect width="75" height="75" fill="#D9D9D9"/>
</mask>
<g mask="url(#mask0_84_4)">
</g>
<g clip-path="url(#clip0_84_4)">
<path d="M22.479 21.9302C22.5691 21.0293 22.2988 20.2552 21.8224 19.5446C21.2688 18.7325 21.3589 18.3138 22.1958 17.7935C24.5003 16.347 26.998 15.3318 29.6759 14.7481C30.5128 14.5705 30.9248 14.8496 31.0792 15.6871C31.414 17.5778 32.9074 18.8594 34.7871 18.8721C36.7054 18.8721 38.1989 17.6159 38.5465 15.6871C38.701 14.8623 39.1259 14.5705 39.9498 14.7608C42.6664 15.3572 45.1898 16.3977 47.533 17.8824C48.2668 18.3519 48.3569 18.796 47.8677 19.5193C46.7734 21.1308 46.915 22.9961 48.2282 24.3031C49.5543 25.6228 51.4855 25.775 53.1334 24.6838C53.8544 24.2143 54.3307 24.3158 54.7942 25.0264C56.3006 27.3231 57.3434 29.8229 57.9485 32.4876C58.1287 33.2744 57.8326 33.6931 57.0215 33.8327C55.0646 34.1753 53.7514 35.6473 53.7643 37.5253C53.7643 39.3652 55.0775 40.8372 56.9958 41.1798C57.8455 41.332 58.1287 41.7381 57.9485 42.5629C57.3434 45.2149 56.3134 47.6893 54.82 49.9734C54.2793 50.7982 53.8801 50.8743 53.0304 50.3287C51.4597 49.3136 49.5157 49.4785 48.2153 50.7601C46.9279 52.0291 46.7605 53.9578 47.8033 55.4932C48.3569 56.3053 48.2539 56.7368 47.43 57.257C45.1512 58.6782 42.6921 59.6807 40.0657 60.2644C39.113 60.4801 38.7139 60.2136 38.5336 59.2873C38.186 57.422 36.6539 56.153 34.7743 56.1657C32.9332 56.1657 31.4269 57.46 31.0921 59.3127C30.9248 60.2009 30.5256 60.4674 29.663 60.2771C27.0238 59.706 24.5647 58.729 22.273 57.3205C21.3589 56.7621 21.2688 56.3688 21.8482 55.4932C22.3117 54.7953 22.5691 54.0466 22.479 53.1584C21.9512 53.3234 21.4619 53.4883 20.9727 53.6279C20.1101 53.8817 19.6466 53.6025 19.4406 52.727C19.093 51.2296 17.9343 50.2526 16.4795 50.2526C15.0246 50.2526 13.8531 51.2169 13.5054 52.7143C13.2994 53.6279 12.8746 53.9198 11.9991 53.5898C10.6473 53.095 9.3212 52.5366 8.00799 51.9402C7.24839 51.5976 7.15827 51.0647 7.60888 50.3795C8.47148 49.0344 8.35561 47.5371 7.29989 46.5219C6.24417 45.4941 4.7636 45.3926 3.37314 46.2428C2.71654 46.6488 2.15006 46.56 1.81532 45.8748C1.21021 44.6059 0.656605 43.3116 0.167371 42.0046C-0.180243 41.0656 0.102998 40.6722 1.10722 40.4438C2.47192 40.1266 3.39889 39.1368 3.54051 37.8298C3.66926 36.6243 2.97403 35.3935 1.82819 34.8732C1.5192 34.7336 1.18446 34.6702 0.849724 34.5814C0.231744 34.4164 -0.141619 33.9723 0.077249 33.4013C0.643731 31.9293 1.27459 30.4828 1.94406 29.0489C2.20156 28.5032 2.81954 28.4652 3.39889 28.8458C4.14562 29.3407 4.94384 29.5691 5.85794 29.3661C7.905 28.922 8.88346 26.6633 7.77625 24.8868C7.13252 23.859 7.19689 23.4529 8.31698 22.9454C9.52719 22.387 10.7889 21.9048 12.0506 21.4607C12.8617 21.1815 13.2994 21.4861 13.4797 22.3109C13.8273 23.859 14.986 24.8234 16.4666 24.8234C17.9472 24.8234 19.0801 23.859 19.4406 22.2982C19.6337 21.4734 20.0586 21.2323 20.8955 21.4734C21.1658 21.5495 21.4362 21.6384 21.7066 21.7145C21.9512 21.7906 22.1958 21.8795 22.479 21.9683V21.9302ZM46.9794 40.6341C45.885 44.3521 43.6835 47.1183 40.1301 48.6791C34.8901 50.9759 30.1394 49.9607 25.9037 46.3062C24.6291 47.2833 24.3458 48.8821 25.1956 50.2399C25.762 51.1281 25.659 51.5215 24.7321 52.0544C24.5776 52.1433 24.3587 52.3336 24.3845 52.4478C24.5776 53.6787 24.333 54.8334 23.8051 55.9754C25.5689 57.0032 27.3842 57.7392 29.3412 58.2341C30.2939 55.8104 32.0191 54.3639 34.6584 54.3004C37.4522 54.237 39.2932 55.7089 40.3103 58.2468C42.2801 57.7519 44.0955 57.0159 45.8078 56.0008C44.8293 53.4122 45.0224 51.3819 46.5287 49.7323C48.5114 47.5624 50.919 47.2325 53.5969 48.3492C54.6269 46.6234 55.3993 44.8343 55.8757 42.9309C53.3394 41.9284 51.8588 40.19 51.8717 37.4999C51.8846 34.8225 53.3909 33.0967 55.8757 32.1324C55.3607 30.1909 54.614 28.389 53.584 26.7267C51.1507 27.7546 48.8977 27.6023 46.9794 25.8131C44.9452 23.9097 44.7263 21.6003 45.8078 19.0878C44.0826 18.0727 42.2801 17.324 40.3232 16.8418C39.4091 19.164 37.7869 20.6105 35.2506 20.7628C32.341 20.9405 30.4355 19.4558 29.3541 16.8418C27.3971 17.3367 25.5689 18.0727 23.8309 19.1132C24.3845 20.2172 24.5518 21.3465 24.436 22.5393C24.4231 22.6789 24.5647 22.8946 24.7063 22.9834C25.7492 23.6433 25.8135 23.859 25.1827 24.9249C24.3845 26.2446 24.7578 28.0084 25.9809 28.7443C30.1652 25.1406 34.8386 24.1128 40.0142 26.308C43.6577 27.8561 45.9236 30.6604 47.018 34.4418C46.3614 34.6068 45.782 34.759 45.2027 34.8986C43.1942 27.2978 33.8859 24.8614 28.5043 29.3027C28.8777 29.1758 29.2382 29.0235 29.56 28.8332C30.2681 28.4271 30.8218 28.5032 31.1565 29.2392C31.7616 30.5462 32.3281 31.8786 32.8302 33.2236C33.1134 33.9723 32.7787 34.4164 31.9676 34.5941C30.384 34.9494 29.3927 36.0787 29.3927 37.5253C29.3927 38.9845 30.384 40.1139 31.9547 40.4692C32.7658 40.6468 33.1006 41.0909 32.8173 41.8396C32.3023 43.21 31.723 44.5551 31.105 45.8748C30.7445 46.6361 30.2167 46.6996 29.4699 46.2428C29.1738 46.0651 28.8519 45.9382 28.543 45.786C30.0493 47.3467 33.4739 48.2984 36.0102 47.9304C40.6966 47.2579 43.6706 44.5805 45.1383 40.19C45.7563 40.355 46.3356 40.4946 46.9665 40.6595L46.9794 40.6341ZM2.21443 32.8683C4.27436 33.7946 5.44595 35.292 5.44595 37.4745C5.44595 39.6824 4.26149 41.1798 2.20156 42.1061C2.49767 42.804 2.78091 43.4638 3.06415 44.1364C5.20133 43.3369 7.10677 43.5907 8.69035 45.1515C10.261 46.7123 10.4928 48.603 9.68169 50.6713C10.3898 50.9632 11.0721 51.2296 11.7545 51.5088C12.7072 49.4912 14.2135 48.3238 16.428 48.3238C18.6681 48.3238 20.1873 49.5039 21.1272 51.5088C21.8353 51.2169 22.5177 50.9378 23.1871 50.6586C22.4147 48.6664 22.6206 46.8645 24.0497 45.3291C25.6462 43.6288 27.616 43.3623 29.8304 44.1617C30.1137 43.4638 30.3969 42.804 30.6801 42.1315C28.6202 41.2051 27.4486 39.7078 27.4486 37.5253C27.4486 35.3173 28.6331 33.82 30.693 32.8937C30.3969 32.1958 30.1137 31.536 29.8304 30.8761C27.4615 31.574 25.7234 31.3076 24.3201 29.9371C22.685 28.351 22.4147 26.4476 23.2129 24.3158C22.5177 24.0366 21.8353 23.7575 21.1529 23.4783C20.2131 25.4959 18.6939 26.6506 16.4795 26.6633C14.2393 26.6633 12.7072 25.4959 11.7674 23.4783C11.0721 23.7702 10.3898 24.0493 9.69456 24.3285C10.5185 26.4222 10.2739 28.3002 8.69035 29.861C7.0939 31.4344 5.16271 31.6628 3.0384 30.8634C2.75516 31.536 2.4848 32.1704 2.18868 32.8683H2.21443Z" fill="#77B81E"/>
<path d="M46.3742 9V10.9034C46.1425 10.9034 45.9108 10.9034 45.679 10.9034C41.0184 10.9034 36.3449 10.9034 31.6843 10.9034C31.3496 10.9034 31.002 10.9668 30.693 11.0937C24.9509 13.4539 19.2217 15.8395 13.4797 18.1997C13.0548 18.3773 12.5527 18.4789 12.0892 18.4789C8.3041 18.5042 4.53185 18.4789 0.746718 18.4789C0.52785 18.4789 0.321857 18.4789 0.07724 18.4789V16.5755C0.296108 16.5755 0.502101 16.5755 0.720969 16.5755C4.44172 16.5755 8.16248 16.5755 11.8832 16.5755C12.2308 16.5755 12.6042 16.4993 12.9261 16.3598C18.6553 14.0122 24.3845 11.6394 30.1265 9.27916C30.5385 9.1142 31.0149 9.01269 31.4655 9.01269C36.2162 9 40.954 9.01269 45.7048 9.01269H46.3742V9Z" fill="#77B81E"/>
<path d="M0.0643768 58.3992V56.4958H0.733855C4.51898 56.4958 8.29124 56.4958 12.0764 56.4958C12.5398 56.4958 13.042 56.5974 13.4668 56.775C19.2089 59.1352 24.9381 61.5208 30.6801 63.881C30.9891 64.0079 31.3367 64.0713 31.6715 64.0713C36.3321 64.0713 41.0056 64.0713 45.6662 64.0713H46.3614V65.9747H45.6919C40.9412 65.9747 36.2033 65.9747 31.4526 65.9747C31.002 65.9747 30.5256 65.8859 30.1137 65.7082C24.3716 63.348 18.6424 60.9625 12.9003 58.6023C12.5785 58.4754 12.2051 58.3865 11.8575 58.3865C8.16249 58.3739 4.45461 58.3865 0.759604 58.3865H0.0643768V58.3992Z" fill="#77B81E"/>
<path d="M50.2238 10.8907H48.3827V9.03809H50.2238V10.8907Z" fill="#77B81E"/>
<path d="M54.0861 10.8907H52.2451V9.03809H54.0861V10.8907Z" fill="#77B81E"/>
<path d="M57.9485 10.8907H56.1074V9.03809H57.9485V10.8907Z" fill="#77B81E"/>
<path d="M48.3441 65.9493V64.1475H50.2237V65.9493H48.3441Z" fill="#77B81E"/>
<path d="M52.2451 64.1221H54.099V65.9747H52.2451V64.1221Z" fill="#77B81E"/>
<path d="M56.0946 64.1221H57.9485V65.962H56.0946V64.1221Z" fill="#77B81E"/>
<path d="M47.3398 36.4722V38.5278C46.6961 38.4771 46.091 38.4263 45.4602 38.3629V36.6498C46.0653 36.5864 46.6832 36.5356 47.3398 36.4722Z" fill="#77B81E"/>
<path d="M22.2988 34.188C21.7323 34.5053 21.1916 34.8098 20.6637 35.1017C18.681 32.1578 15.1791 32.2085 13.2222 33.9723C11.1108 35.8757 11.0979 39.0607 13.1836 40.9768C15.1276 42.766 18.6681 42.8548 20.6766 39.8855C21.2044 40.19 21.7452 40.4819 22.273 40.7864C21.1787 43.1466 18.0244 44.5551 15.1405 44.0095C12.1922 43.4639 9.8748 40.8499 9.72031 37.906C9.55294 34.7717 11.5485 31.9928 14.5612 31.1173C17.5223 30.2544 20.7281 31.4979 22.3116 34.188H22.2988Z" fill="#77B81E"/>
<path d="M23.1871 36.3833V38.6039C22.5305 38.4897 21.9383 38.4009 21.3203 38.2994V36.7259C21.8997 36.6244 22.4919 36.5229 23.1871 36.396V36.3833Z" fill="#77B81E"/>
</g>
<defs>
<clipPath id="clip0_84_4">
<rect width="58" height="57" fill="white" transform="translate(0 9)"/>
</clipPath>
</defs>
</svg>
