<svg width="35" height="35" viewBox="0 0 35 35" fill="none" xmlns="http://www.w3.org/2000/svg">
<mask id="mask0_292_96" style="mask-type:alpha" maskUnits="userSpaceOnUse" x="0" y="0" width="35" height="35">
<rect width="35" height="35" fill="#D9D9D9"/>
</mask>
<g mask="url(#mask0_292_96)">
</g>
<path d="M17.5 12.9856C15.0006 12.9856 12.9856 15.02 12.9856 17.5C12.9856 19.98 15.02 22.0144 17.5 22.0144C19.98 22.0144 22.0144 19.98 22.0144 17.5C22.0144 15.02 19.98 12.9856 17.5 12.9856ZM31.0625 17.5C31.0625 15.6206 31.0625 13.78 30.9656 11.9006C30.8688 9.73063 30.365 7.79313 28.7763 6.22375C27.1875 4.635 25.2694 4.13125 23.0994 4.03437C21.22 3.9375 19.3794 3.9375 17.5 3.9375C15.6206 3.9375 13.78 3.9375 11.9006 4.03437C9.73063 4.13125 7.79313 4.635 6.22375 6.22375C4.635 7.8125 4.13125 9.73063 4.03437 11.9006C3.9375 13.78 3.9375 15.6206 3.9375 17.5C3.9375 19.3794 3.9375 21.22 4.03437 23.0994C4.13125 25.2694 4.635 27.2069 6.22375 28.7762C7.8125 30.365 9.73063 30.8687 11.9006 30.9656C13.78 31.0625 15.6206 31.0625 17.5 31.0625C19.3794 31.0625 21.22 31.0625 23.0994 30.9656C25.2694 30.8687 27.2069 30.365 28.7763 28.7762C30.365 27.1875 30.8688 25.2694 30.9656 23.0994C31.0819 21.2394 31.0625 19.3794 31.0625 17.5ZM17.5 24.4556C13.6444 24.4556 10.5444 21.3556 10.5444 17.5C10.5444 13.6444 13.6444 10.5444 17.5 10.5444C21.3556 10.5444 24.4556 13.6444 24.4556 17.5C24.4556 21.3556 21.3556 24.4556 17.5 24.4556ZM24.7463 11.8812C23.855 11.8812 23.1188 11.1644 23.1188 10.2538C23.1188 9.34313 23.8356 8.62625 24.7463 8.62625C25.6569 8.62625 26.3738 9.34313 26.3738 10.2538C26.3787 10.466 26.3399 10.6769 26.2599 10.8736C26.1799 11.0702 26.0604 11.2483 25.9088 11.3969C25.7602 11.5485 25.5821 11.6681 25.3855 11.748C25.1888 11.828 24.9779 11.8668 24.7656 11.8619L24.7463 11.8812Z" fill="#383838"/>
</svg>
