<svg width="108" height="61" viewBox="0 0 108 61" fill="none" xmlns="http://www.w3.org/2000/svg">
<path d="M104.205 28.5601H52.6923C52.666 28.5601 52.6427 28.5514 52.6135 28.5514C49.7617 28.5514 46.9216 28.8091 44.1311 29.3158V27.1703C47.7564 24.1273 49.7442 20.1403 49.7442 15.8928C49.7442 11.6452 47.6192 7.38902 43.7575 4.30833C43.3897 4.0159 42.8672 4.0159 42.4995 4.30833C38.6377 7.38902 36.5128 11.5005 36.5128 15.8928C36.5128 20.2851 38.5035 24.1273 42.1258 27.1703V29.724C40.2198 30.1554 38.3429 30.7027 36.504 31.3628V25.5402C36.504 25.268 36.3931 25.019 36.2121 24.8395L30.5961 19.2369C30.4064 19.0487 30.1524 18.9445 29.8839 18.9445H18.4213C18.1557 18.9445 17.8988 19.0487 17.7091 19.2369L12.0931 24.8395C11.9121 25.019 11.8012 25.268 11.8012 25.5402V29.3389C11.1036 29.2116 10.4001 29.0986 9.69665 29.0031V25.4562C12.4375 23.1168 13.9408 20.0679 13.9408 16.8193C13.9408 13.5707 12.3003 10.2468 9.32302 7.87255C8.95524 7.58012 8.43275 7.58012 8.06789 7.87255C5.09059 10.2468 3.45016 13.4259 3.45016 16.8193C3.45016 20.2127 4.9534 23.1168 7.69427 25.4562V28.7743C6.23189 28.6383 4.76075 28.5688 3.28378 28.5688C2.72919 28.5688 2.28259 29.0147 2.28259 29.5648C2.28259 30.1149 2.73211 30.5579 3.28378 30.5579C11.3021 30.5579 19.1423 32.6628 26.0572 36.6527C24.4022 37.7703 22.8201 38.9893 21.3227 40.3009C15.7213 37.4692 9.49816 35.9752 3.2867 35.9752C2.73211 35.9752 2.28551 36.4211 2.28551 36.9712C2.28551 37.5213 2.73503 37.9643 3.2867 37.9643C8.93773 37.9643 14.6033 39.2672 19.7465 41.7428C18.2228 43.205 16.7984 44.7714 15.4819 46.4246C11.5823 44.8032 7.48411 43.9809 3.2867 43.9809C2.73211 43.9809 2.28551 44.4268 2.28551 44.974C2.28551 45.5213 2.73503 45.9672 3.2867 45.9672C7.04627 45.9672 10.7212 46.6736 14.2356 48.0663C13.5438 49.0218 12.8841 50.0033 12.2653 51.008L10.7387 53.4923C10.4497 53.9613 10.5986 54.5722 11.0715 54.8589C11.2349 54.9573 11.4159 55.0037 11.5939 55.0037C11.9325 55.0037 12.2624 54.8328 12.4492 54.5259L13.9758 52.0417C14.7726 50.7474 15.6337 49.4995 16.5503 48.3037C16.5853 48.2632 16.6203 48.2227 16.6495 48.1763C23.2463 39.6465 32.794 33.7226 43.3313 31.5018C43.3313 31.5018 43.3343 31.5018 43.3372 31.5018C46.3612 30.8648 49.4669 30.5318 52.6077 30.5318H104.208C104.751 30.5318 105.192 30.0889 105.192 29.5416C105.192 28.9944 104.751 28.5514 104.208 28.5514L104.205 28.5601ZM8.69838 15.0299C8.14378 15.0299 7.69427 15.4758 7.69427 16.026V22.6448C6.23773 20.9278 5.45546 18.9184 5.45546 16.8222C5.45546 14.2858 6.59967 11.8769 8.69546 9.96013C10.7912 11.874 11.9355 14.2829 11.9355 16.8222C11.9355 18.9184 11.1532 20.9278 9.69665 22.6448V16.026C9.69665 15.4758 9.24713 15.0299 8.69546 15.0299H8.69838ZM18.4242 21.3477L21.6292 24.5442H15.2192L18.4242 21.3477ZM19.6268 31.4613C18.8329 31.1717 18.0302 30.9025 17.2216 30.6535V29.9007H19.6268V31.4613ZM23.0361 32.8597C22.572 32.6484 22.105 32.4428 21.6321 32.2459V28.9046C21.6321 28.3545 21.1826 27.9086 20.6309 27.9086H16.2204C15.6658 27.9086 15.2192 28.3545 15.2192 28.9046V30.086C14.7522 29.9644 14.2852 29.8514 13.8152 29.7443V26.5333H23.039V32.8568L23.0361 32.8597ZM20.8352 20.9307H29.4723L33.0947 24.5442H24.4576L20.8352 20.9307ZM34.4987 32.1359C32.7824 32.8424 31.104 33.6473 29.4752 34.5535C28.9557 34.8431 28.4419 35.1442 27.934 35.4511C26.9854 34.8778 26.0222 34.3364 25.0414 33.8326V26.5333H34.4987V32.133V32.1359ZM43.1299 15.8262C42.5753 15.8262 42.1288 16.2721 42.1288 16.8193V24.4342C39.7878 21.976 38.521 19.0053 38.521 15.8899C38.521 12.3546 40.1526 9.00754 43.1329 6.38143C46.1131 9.00465 47.7448 12.3546 47.7448 15.8899C47.7448 19.0053 46.4779 21.976 44.137 24.4342V16.8193C44.137 16.2692 43.6875 15.8262 43.1358 15.8262H43.1299Z" fill="white"/>
<path d="M47.7039 55.0529H43.9589V51.3381H36.469V55.0529H32.7386V43.923C32.7386 42.8952 32.9342 41.931 33.3253 41.0305C33.7164 40.1301 34.2506 39.3425 34.9249 38.6679C35.5991 37.9933 36.3902 37.4634 37.3009 37.0754C38.2087 36.6874 39.1807 36.4935 40.2169 36.4935C41.2531 36.4935 42.2251 36.6874 43.1329 37.0754C44.0407 37.4634 44.8346 37.9933 45.5147 38.6679C46.1919 39.3396 46.729 40.1272 47.1201 41.0305C47.5112 41.931 47.7068 42.8952 47.7068 43.923V55.0529H47.7039ZM43.9589 47.6378V43.923C43.9589 43.4134 43.8597 42.9328 43.6641 42.4811C43.4685 42.0294 43.2 41.6328 42.8614 41.2969C42.5228 40.961 42.1229 40.6947 41.6676 40.5007C41.2122 40.3067 40.7248 40.2082 40.214 40.2082C39.7031 40.2082 39.2157 40.3067 38.7603 40.5007C38.305 40.6947 37.9051 40.961 37.5665 41.2969C37.2279 41.6328 36.9594 42.0294 36.7638 42.4811C36.5682 42.9328 36.469 43.4163 36.469 43.923V47.6378H43.9589Z" fill="white"/>
<path d="M65.8391 53.1767C64.9693 53.9092 64.0002 54.4738 62.929 54.8647C61.8577 55.2556 60.7456 55.4525 59.5897 55.4525C58.7024 55.4525 57.8471 55.3366 57.0269 55.1108C56.2038 54.8821 55.4361 54.5578 54.7239 54.1408C54.0117 53.7239 53.3578 53.223 52.7682 52.641C52.1757 52.0591 51.6736 51.4105 51.2533 50.6982C50.8359 49.986 50.5119 49.2216 50.2813 48.4022C50.0507 47.5828 49.9369 46.7315 49.9369 45.8513C49.9369 44.9712 50.0507 44.1257 50.2813 43.315C50.5119 42.5043 50.8359 41.7428 51.2533 41.0305C51.6707 40.3183 52.1757 39.6726 52.7682 39.0877C53.3608 38.5058 54.0117 38.0077 54.7239 37.5937C55.4361 37.1797 56.2038 36.8583 57.0269 36.6295C57.8501 36.4008 58.7024 36.2879 59.5897 36.2879C60.7456 36.2879 61.8607 36.4848 62.929 36.8757C64.0002 37.2694 64.9693 37.8311 65.8391 38.5637L63.8806 41.7978C63.3143 41.2274 62.6634 40.7815 61.922 40.4572C61.1835 40.133 60.4041 39.9708 59.5868 39.9708C58.7695 39.9708 58.0018 40.1272 57.2838 40.437C56.5657 40.7468 55.9382 41.1695 55.3982 41.6994C54.8582 42.2292 54.432 42.8517 54.1197 43.564C53.8074 44.2763 53.6497 45.0377 53.6497 45.8485C53.6497 46.6592 53.8074 47.4351 54.1197 48.1532C54.432 48.8683 54.8582 49.4937 55.3982 50.0294C55.9382 50.565 56.5657 50.9878 57.2838 51.2976C58.0018 51.6074 58.7695 51.7637 59.5868 51.7637C60.0568 51.7637 60.5121 51.7087 60.9558 51.5958C61.3995 51.4829 61.8198 51.3294 62.2226 51.1296V45.8485H65.8362V53.1738L65.8391 53.1767Z" fill="white"/>
<path d="M72.468 55.0529H68.723V36.4935H76.213C76.8989 36.4935 77.5615 36.5832 78.1949 36.7598C78.8283 36.9364 79.4238 37.1883 79.9755 37.5097C80.5271 37.834 81.0321 38.222 81.4875 38.6737C81.9428 39.1254 82.3369 39.6292 82.6609 40.1822C82.9878 40.7352 83.2388 41.3259 83.4169 41.9542C83.5949 42.5853 83.6854 43.2397 83.6854 43.9201C83.6854 44.56 83.6037 45.1796 83.4431 45.7848C83.2826 46.3899 83.052 46.9632 82.7514 47.5075C82.4507 48.0518 82.0829 48.5527 81.648 49.0073C81.2131 49.4648 80.7256 49.8615 80.1856 50.1973L82.261 55.05H78.2825L76.6508 51.3091L72.4622 51.3352V55.05L72.468 55.0529ZM72.468 40.2082V47.6378H76.213C76.7267 47.6378 77.2083 47.5394 77.6608 47.3454C78.1132 47.1514 78.5102 46.885 78.8488 46.5491C79.1874 46.2133 79.4559 45.8166 79.6515 45.3649C79.847 44.9132 79.9463 44.4297 79.9463 43.923C79.9463 43.4163 79.85 42.9328 79.6515 42.4811C79.4559 42.0294 79.1874 41.6328 78.8488 41.2969C78.5102 40.961 78.1132 40.6947 77.6608 40.5007C77.2083 40.3067 76.7267 40.2082 76.213 40.2082H72.468Z" fill="white"/>
<path d="M104.471 45.8513C104.471 46.7315 104.354 47.5799 104.127 48.3935C103.896 49.21 103.572 49.9715 103.155 50.6837C102.737 51.396 102.232 52.0446 101.643 52.6323C101.05 53.2201 100.399 53.721 99.684 54.1408C98.9718 54.5607 98.2012 54.8821 97.3751 55.1108C96.5491 55.3395 95.6909 55.4524 94.8036 55.4524C93.9162 55.4524 93.061 55.3366 92.2408 55.1108C91.4176 54.8821 90.6499 54.5578 89.9319 54.1408C89.2138 53.7239 88.56 53.2201 87.9675 52.6323C87.3749 52.0446 86.8699 51.396 86.4467 50.6837C86.0235 49.9715 85.6995 49.21 85.4689 48.3935C85.2383 47.577 85.1244 46.7315 85.1244 45.8513C85.1244 44.9711 85.2383 44.1228 85.4689 43.3005C85.6995 42.4811 86.0264 41.7167 86.4467 41.0103C86.867 40.3038 87.3749 39.6552 87.9675 39.0675C88.56 38.4797 89.2138 37.9817 89.9319 37.5676C90.6499 37.1536 91.4205 36.8322 92.2408 36.6035C93.0639 36.3747 93.9162 36.2618 94.8036 36.2618C95.6909 36.2618 96.5462 36.3776 97.3751 36.6035C98.2012 36.8322 98.9718 37.1536 99.684 37.5676C100.396 37.9817 101.05 38.4826 101.643 39.0675C102.235 39.6552 102.737 40.3009 103.155 41.0103C103.572 41.7167 103.896 42.4811 104.127 43.3005C104.357 44.1199 104.471 44.9711 104.471 45.8513ZM100.752 45.8513C100.752 45.0406 100.595 44.2734 100.282 43.5553C99.9701 42.8344 99.5439 42.2089 99.0097 41.6791C98.4756 41.1492 97.8451 40.7265 97.1183 40.4167C96.3915 40.1069 95.6209 39.9505 94.8036 39.9505C93.9863 39.9505 93.204 40.1069 92.4801 40.4167C91.7591 40.7265 91.1287 41.1492 90.5887 41.6791C90.0487 42.2089 89.6225 42.8344 89.3102 43.5553C88.9978 44.2763 88.8402 45.0406 88.8402 45.8513C88.8402 46.6621 88.9978 47.4235 89.3102 48.1358C89.6225 48.8481 90.0487 49.4706 90.5887 50.0062C91.1287 50.5419 91.7591 50.9646 92.4801 51.2744C93.2011 51.5842 93.9746 51.7406 94.8036 51.7406C95.6325 51.7406 96.3944 51.5842 97.1183 51.2744C97.8451 50.9646 98.4756 50.5419 99.0097 50.0062C99.5439 49.4706 99.9701 48.8481 100.282 48.1358C100.595 47.4235 100.752 46.6621 100.752 45.8513Z" fill="white"/>
<path d="M56.268 25.187L55.6171 24.4139C55.4361 24.4573 55.2522 24.4805 55.0654 24.4805C54.6655 24.4805 54.2948 24.3878 53.962 24.1996C53.6264 24.0143 53.3608 23.7538 53.1652 23.4237C52.9696 23.0936 52.8704 22.7172 52.8704 22.3003C52.8704 21.8833 52.9696 21.5127 53.1652 21.1827C53.3608 20.8526 53.6264 20.592 53.962 20.4067C54.2977 20.2214 54.6655 20.1258 55.0654 20.1258C55.4653 20.1258 55.8389 20.2185 56.1717 20.4067C56.5044 20.592 56.77 20.8526 56.9627 21.1827C57.1583 21.5127 57.2546 21.8862 57.2546 22.3003C57.2546 22.6767 57.1729 23.0212 57.0123 23.331C56.8518 23.6408 56.6299 23.8927 56.3526 24.0896L57.3334 25.1841H56.2651L56.268 25.187ZM53.9183 23.0502C54.0292 23.2644 54.1839 23.4295 54.3824 23.5453C54.5809 23.6611 54.8085 23.719 55.0654 23.719C55.3223 23.719 55.5499 23.6611 55.7455 23.5453C55.9411 23.4295 56.0958 23.2644 56.2067 23.0502C56.3176 22.8359 56.3731 22.5869 56.3731 22.3003C56.3731 22.0136 56.3176 21.7675 56.2067 21.5533C56.0958 21.339 55.944 21.1769 55.7455 21.0639C55.5499 20.951 55.3223 20.8931 55.0654 20.8931C54.8085 20.8931 54.5809 20.951 54.3824 21.0639C54.1839 21.1769 54.0292 21.3419 53.9183 21.5533C53.8073 21.7675 53.7519 22.0136 53.7519 22.3003C53.7519 22.5869 53.8073 22.833 53.9183 23.0502Z" fill="white"/>
<path d="M61.1163 21.0639V24.4371H60.2523V24.0114C60.1414 24.1562 59.9984 24.272 59.8203 24.356C59.6423 24.44 59.4496 24.4805 59.2394 24.4805C58.9738 24.4805 58.7374 24.4255 58.5331 24.3126C58.3287 24.1996 58.1682 24.0375 58.0514 23.8203C57.9347 23.6032 57.8763 23.3455 57.8763 23.0444V21.0668H58.7345V22.9228C58.7345 23.192 58.8016 23.3976 58.9359 23.5395C59.0702 23.6843 59.254 23.7566 59.4876 23.7566C59.7211 23.7566 59.9108 23.6843 60.0451 23.5395C60.1793 23.3947 60.2465 23.1891 60.2465 22.9228V21.0668H61.1105L61.1163 21.0639Z" fill="white"/>
<path d="M61.9482 21.8312C62.0854 21.5677 62.2722 21.3651 62.5057 21.2232C62.7422 21.0813 63.0049 21.0089 63.2938 21.0089C63.5478 21.0089 63.7696 21.061 63.9593 21.1624C64.1491 21.2637 64.3009 21.3911 64.4176 21.5446V21.0639H65.2816V24.4371H64.4176V23.9448C64.3067 24.1041 64.1549 24.2344 63.9593 24.3386C63.7638 24.4429 63.5419 24.495 63.288 24.495C63.0019 24.495 62.7422 24.4226 62.5057 24.2749C62.2693 24.1302 62.0854 23.9217 61.9482 23.6582C61.811 23.3918 61.741 23.0878 61.741 22.7433C61.741 22.3987 61.811 22.1005 61.9482 21.837V21.8312ZM64.295 22.2192C64.2133 22.0715 64.1024 21.9586 63.9623 21.8775C63.8222 21.7994 63.6733 21.7588 63.5157 21.7588C63.358 21.7588 63.2092 21.7965 63.0749 21.8746C62.9406 21.9528 62.8297 22.0657 62.748 22.2134C62.6633 22.3611 62.6225 22.5377 62.6225 22.7404C62.6225 22.943 62.6633 23.1197 62.748 23.2731C62.8326 23.4266 62.9436 23.5424 63.0807 23.6235C63.2179 23.7045 63.3639 23.7451 63.5186 23.7451C63.6733 23.7451 63.828 23.7045 63.9652 23.6264C64.1024 23.5482 64.2162 23.4324 64.2979 23.2847C64.3797 23.137 64.4205 22.9604 64.4205 22.752C64.4205 22.5435 64.3797 22.3669 64.2979 22.2192H64.295Z" fill="white"/>
<path d="M66.9833 19.9318V24.4371H66.1252V19.9318H66.9833Z" fill="white"/>
<path d="M67.8882 20.5196C67.789 20.4241 67.7364 20.3053 67.7364 20.1635C67.7364 20.0216 67.7861 19.9029 67.8882 19.8073C67.9875 19.7118 68.113 19.6655 68.2648 19.6655C68.4165 19.6655 68.5421 19.7147 68.6413 19.8073C68.7405 19.9029 68.7902 20.0216 68.7902 20.1635C68.7902 20.3053 68.7405 20.4241 68.6413 20.5196C68.5421 20.6152 68.4165 20.6615 68.2648 20.6615C68.113 20.6615 67.9875 20.6152 67.8882 20.5196ZM68.688 21.0639V24.4371H67.8298V21.0639H68.688Z" fill="white"/>
<path d="M70.5357 21.7646V23.3947C70.5357 23.5076 70.5619 23.5916 70.6174 23.6408C70.6729 23.693 70.7663 23.7161 70.8976 23.7161H71.2975V24.4342H70.7575C70.0336 24.4342 69.6717 24.0838 69.6717 23.386V21.7617H69.2659V21.061H69.6717V20.2272H70.5357V21.061H71.2975V21.7617H70.5357V21.7646Z" fill="white"/>
<path d="M75.168 21.0639L73.0635 26.0295H72.1498L72.8854 24.3502L71.5223 21.0639H72.4855L73.3641 23.4208L74.2544 21.0639H75.168Z" fill="white"/>
<path d="M80.0484 22.1439C79.9404 22.3437 79.7711 22.5029 79.5405 22.6245C79.3099 22.7462 79.0181 22.807 78.6649 22.807H77.9468V24.4371H77.0887V20.1895H78.6649C78.9947 20.1895 79.2778 20.2474 79.5114 20.3604C79.7449 20.4733 79.92 20.6296 80.0368 20.8294C80.1535 21.0292 80.2119 21.2521 80.2119 21.504C80.2119 21.7299 80.1564 21.9441 80.0484 22.1439ZM79.1552 21.9557C79.2691 21.8486 79.3275 21.698 79.3275 21.5011C79.3275 21.0871 79.0939 20.8815 78.6269 20.8815H77.9468V22.1179H78.6269C78.8634 22.1179 79.0414 22.0628 79.1552 21.9557Z" fill="white"/>
<path d="M82.1121 21.1682C82.2902 21.0668 82.4945 21.0147 82.7222 21.0147V21.9094H82.4945C82.2259 21.9094 82.0216 21.9731 81.8844 22.0976C81.7472 22.2221 81.6801 22.4421 81.6801 22.7549V24.4342H80.8219V21.061H81.6801V21.5851C81.791 21.4056 81.934 21.2666 82.1121 21.1653V21.1682Z" fill="white"/>
<path d="M83.9247 24.2749C83.662 24.1302 83.4577 23.9275 83.3089 23.664C83.16 23.4005 83.0841 23.0965 83.0841 22.752C83.0841 22.4074 83.16 22.1034 83.3147 21.8399C83.4694 21.5764 83.6766 21.3709 83.9452 21.229C84.2137 21.0871 84.5085 21.0118 84.8355 21.0118C85.1624 21.0118 85.4601 21.0842 85.7257 21.229C85.9913 21.3737 86.2015 21.5764 86.3533 21.8399C86.5051 22.1034 86.5839 22.4074 86.5839 22.752C86.5839 23.0965 86.5051 23.4005 86.3475 23.664C86.1898 23.9275 85.9768 24.1331 85.7082 24.2749C85.4397 24.4197 85.1419 24.4921 84.8092 24.4921C84.4764 24.4921 84.1875 24.4197 83.9247 24.2749ZM85.247 23.6379C85.3842 23.5627 85.4922 23.4497 85.5739 23.2992C85.6557 23.1486 85.6965 22.9662 85.6965 22.752C85.6965 22.4306 85.6119 22.1845 85.4426 22.0136C85.2733 21.8399 85.066 21.7559 84.8209 21.7559C84.5757 21.7559 84.3713 21.8428 84.205 22.0136C84.0386 22.1874 83.9569 22.4335 83.9569 22.752C83.9569 23.0704 84.0386 23.3194 84.1991 23.4903C84.3597 23.6611 84.564 23.748 84.8092 23.748C84.9639 23.748 85.1098 23.7103 85.247 23.635V23.6379Z" fill="white"/>
<path d="M87.1969 21.8312C87.3341 21.5677 87.5209 21.3651 87.7573 21.2232C87.9937 21.0813 88.2594 21.0089 88.5483 21.0089C88.7702 21.0089 88.9803 21.0582 89.1817 21.1508C89.3831 21.2464 89.5408 21.3738 89.6604 21.5301V19.929H90.5332V24.4342H89.6604V23.9362C89.5524 24.1041 89.4036 24.2373 89.2109 24.3386C89.0183 24.44 88.7964 24.4921 88.5425 24.4921C88.2564 24.4921 87.9937 24.4197 87.7573 24.272C87.5209 24.1273 87.3341 23.9188 87.1969 23.6553C87.0597 23.3889 86.9896 23.0849 86.9896 22.7404C86.9896 22.3958 87.0597 22.0976 87.1969 21.8341V21.8312ZM89.5437 22.2192C89.4619 22.0715 89.351 21.9586 89.2109 21.8775C89.0708 21.7994 88.922 21.7588 88.7643 21.7588C88.6067 21.7588 88.4578 21.7965 88.3236 21.8747C88.1893 21.9528 88.0784 22.0658 87.9967 22.2134C87.912 22.3611 87.8711 22.5377 87.8711 22.7404C87.8711 22.9431 87.912 23.1197 87.9967 23.2731C88.0813 23.4266 88.1922 23.5424 88.3294 23.6235C88.4666 23.7045 88.6125 23.7451 88.7672 23.7451C88.9219 23.7451 89.0767 23.7045 89.2138 23.6264C89.351 23.5482 89.4649 23.4324 89.5466 23.2847C89.6283 23.137 89.6692 22.9604 89.6692 22.752C89.6692 22.5435 89.6283 22.3669 89.5466 22.2192H89.5437Z" fill="white"/>
<path d="M94.5817 21.0639V24.4371H93.7177V24.0114C93.6068 24.1562 93.4638 24.272 93.2857 24.356C93.1077 24.44 92.915 24.4805 92.7049 24.4805C92.4392 24.4805 92.2028 24.4255 91.9985 24.3126C91.7942 24.1996 91.6336 24.0375 91.5169 23.8203C91.4001 23.6032 91.3417 23.3455 91.3417 23.0444V21.0668H92.1999V22.9228C92.1999 23.192 92.267 23.3976 92.4013 23.5395C92.5356 23.6843 92.7195 23.7566 92.953 23.7566C93.1865 23.7566 93.3762 23.6843 93.5105 23.5395C93.6447 23.3947 93.7119 23.1891 93.7119 22.9228V21.0668H94.5759L94.5817 21.0639Z" fill="white"/>
<path d="M95.4224 21.8341C95.5654 21.5735 95.7639 21.3708 96.0178 21.2261C96.2718 21.0813 96.5608 21.0089 96.8906 21.0089C97.3109 21.0089 97.6612 21.1132 97.9356 21.3216C98.2129 21.5301 98.3968 21.8225 98.4902 22.2018H97.5649C97.5152 22.0571 97.4335 21.9412 97.3167 21.8573C97.2 21.7733 97.057 21.7328 96.8848 21.7328C96.6396 21.7328 96.444 21.8196 96.301 21.9963C96.1579 22.1729 96.085 22.4248 96.085 22.7491C96.085 23.0733 96.1579 23.3194 96.301 23.4961C96.444 23.6727 96.6396 23.7595 96.8848 23.7595C97.2321 23.7595 97.4598 23.6061 97.5649 23.2963H98.4902C98.3968 23.6611 98.2099 23.9506 97.9326 24.1678C97.6553 24.3821 97.308 24.4892 96.8906 24.4892C96.5637 24.4892 96.2718 24.4168 96.0178 24.272C95.7639 24.1273 95.5654 23.9246 95.4224 23.664C95.2793 23.4034 95.2064 23.0965 95.2064 22.7491C95.2064 22.4016 95.2793 22.0947 95.4224 21.8341Z" fill="white"/>
<path d="M100.125 21.7646V23.3947C100.125 23.5076 100.151 23.5916 100.206 23.6408C100.262 23.693 100.355 23.7161 100.487 23.7161H100.887V24.4342H100.347C99.6227 24.4342 99.2608 24.0838 99.2608 23.386V21.7617H98.855V21.061H99.2608V20.2272H100.125V21.061H100.887V21.7617H100.125V21.7646Z" fill="white"/>
<path d="M102.057 24.3444C101.835 24.246 101.66 24.1099 101.532 23.9391C101.403 23.7682 101.333 23.58 101.322 23.3716H102.186C102.203 23.5019 102.267 23.609 102.378 23.693C102.492 23.7769 102.632 23.8203 102.798 23.8203C102.965 23.8203 103.09 23.7885 103.181 23.7219C103.271 23.6553 103.318 23.5742 103.318 23.4729C103.318 23.3629 103.263 23.2818 103.149 23.2268C103.035 23.1718 102.857 23.111 102.612 23.0473C102.358 22.9865 102.15 22.9228 101.99 22.8591C101.829 22.7954 101.689 22.694 101.573 22.5609C101.456 22.4277 101.397 22.2453 101.397 22.0194C101.397 21.8341 101.453 21.6633 101.561 21.5069C101.669 21.3535 101.824 21.2319 102.028 21.1421C102.229 21.0524 102.469 21.0089 102.743 21.0089C103.149 21.0089 103.47 21.1103 103.712 21.31C103.954 21.5098 104.086 21.782 104.112 22.1237H103.289C103.277 21.9905 103.219 21.8833 103.12 21.8052C103.02 21.727 102.886 21.6864 102.717 21.6864C102.562 21.6864 102.442 21.7154 102.358 21.7704C102.273 21.8254 102.232 21.9065 102.232 22.0078C102.232 22.1208 102.291 22.2076 102.404 22.2655C102.518 22.3234 102.696 22.3842 102.939 22.445C103.184 22.5058 103.385 22.5695 103.546 22.6332C103.706 22.6969 103.843 22.7983 103.96 22.9344C104.077 23.0704 104.138 23.25 104.141 23.4729C104.141 23.6669 104.086 23.8435 103.978 23.997C103.87 24.1504 103.715 24.272 103.511 24.3589C103.309 24.4457 103.073 24.4892 102.801 24.4892C102.53 24.4892 102.273 24.44 102.054 24.3415L102.057 24.3444Z" fill="white"/>
</svg>
