<svg width="70" height="70" viewBox="0 0 70 70" fill="none" xmlns="http://www.w3.org/2000/svg">
<mask id="mask0_36_303" style="mask-type:alpha" maskUnits="userSpaceOnUse" x="0" y="0" width="70" height="70">
<rect width="70" height="70" fill="#D9D9D9"/>
</mask>
<g mask="url(#mask0_36_303)">
</g>
<g clip-path="url(#clip0_36_303)">
<path d="M9.48784 40.3256C10.5121 39.1989 11.6262 38.2785 12.9892 37.6643C14.0744 37.1756 15.2143 36.9201 16.4071 36.9026C17.152 36.8931 17.4072 37.1391 17.4104 37.8611C17.4297 41.8903 14.1772 45.6068 10.1332 46.1273C9.60343 46.1956 9.46215 46.3701 9.47339 46.8795C9.5071 48.4268 9.48463 49.9756 9.48463 51.6672C9.69493 51.4324 9.81694 51.3007 9.93574 51.1658C11.6423 49.2091 13.7887 48.1602 16.4135 48.103C17.1616 48.0872 17.4088 48.3347 17.4104 49.0599C17.4217 53.078 14.2157 56.7469 10.1894 57.3246C9.97588 57.3547 9.76557 57.3944 9.52155 57.4357V60.6063C10.3178 60.6063 11.1141 60.6063 11.9104 60.6063C12.225 60.6063 12.5381 60.5968 12.8527 60.6095C13.4419 60.6317 13.7678 60.9126 13.7662 61.3775C13.763 61.852 13.4515 62.1155 12.8447 62.117C10.6855 62.1234 8.52782 62.1202 6.36857 62.1202C5.76013 62.1202 5.15169 62.1139 4.54325 62.1202C4.03755 62.125 3.70202 61.9187 3.65226 61.4013C3.60891 60.9538 3.97815 60.6238 4.54485 60.6127C5.50648 60.5952 6.4681 60.6079 7.42973 60.6047C7.58224 60.6047 7.73636 60.5841 7.92259 60.5698V57.4515C7.49555 57.3706 7.07173 57.3039 6.65433 57.2087C2.87846 56.3581 0.104352 53.0034 1.97918e-06 49.1742C-0.0224734 48.3474 0.232783 48.0808 1.06758 48.1046C3.57359 48.1744 5.65578 49.1552 7.3302 50.9912C7.5084 51.188 7.67857 51.3927 7.95469 51.7133C7.95469 50.6342 7.95469 49.6947 7.95469 48.7568C7.95469 48.0967 7.93222 47.4365 7.96272 46.7796C7.98198 46.3749 7.87121 46.2067 7.43294 46.148C3.28783 45.6005 0.141276 42.141 0.00160737 38.0103C-0.0272896 37.1296 0.242415 36.8677 1.15588 36.9074C3.72771 37.0216 5.8404 38.0563 7.50037 39.9987C7.61114 40.1288 7.72673 40.2542 7.95309 40.5097C7.95309 39.8908 7.95309 39.4179 7.95309 38.945C7.95309 37.8786 7.97877 36.8106 7.93703 35.7458C7.92419 35.43 7.80058 35.0539 7.59509 34.819C3.6362 30.29 3.64584 23.8281 7.64004 19.3546C7.78292 19.1943 7.92901 19.0372 8.08634 18.8912C8.52782 18.4818 8.89866 18.4675 9.31285 18.8817C11.2554 20.824 12.4129 23.1505 12.6954 25.8704C13.0534 29.3188 12.0195 32.3339 9.71741 34.938C9.60985 35.0602 9.49586 35.2332 9.49426 35.384C9.47821 37.0312 9.48463 38.6784 9.48463 40.324L9.48784 40.3256ZM8.71404 33.6891C12.1207 30.1614 12.0484 23.9439 8.70922 20.5289C5.33952 23.955 5.3347 30.2551 8.71404 33.6891ZM15.8259 38.5102C12.9507 38.3848 9.50068 41.7919 9.58095 44.6325C12.5108 44.661 15.4197 41.8252 15.8259 38.5102ZM15.8291 49.6915C12.4578 49.8312 9.58095 53.0542 9.59861 55.8599C12.8222 55.5663 15.4069 53.024 15.8291 49.6915ZM1.63268 49.6773C1.64873 52.6543 5.05697 55.9916 7.84713 55.8075C7.71067 52.8955 4.97188 49.9153 1.63268 49.6773ZM7.86158 44.6325C7.74439 41.5745 4.12585 38.0722 1.62144 38.5498C1.74185 41.5507 4.88519 44.6356 7.86158 44.6325Z" fill="#524B2B"/>
<path d="M26.3797 45.4418C26.3797 45.1117 26.3797 44.9007 26.3797 44.6896C26.3845 41.0064 26.3893 37.3232 26.391 33.6384C26.391 32.9052 26.5065 32.2117 26.9898 31.6182C27.7154 30.7296 28.9371 30.3582 30.0047 30.7105C31.1028 31.0707 31.8798 32.0943 31.8862 33.2686C31.9006 36.1377 31.891 39.0069 31.8926 41.876C31.8926 42.0871 31.8926 42.2981 31.8926 42.5155C34.1658 42.1902 34.7791 42.4727 35.7969 44.2865C37.9096 43.8057 38.73 44.1643 39.706 45.9226C40.3723 45.8925 41.0032 45.7592 41.5972 45.8576C42.8076 46.0575 43.7243 47.0636 43.742 48.2982C43.7966 52.2639 43.6457 56.2106 42.0258 59.9382C41.7946 60.4714 41.5201 60.9856 41.2777 61.514C41.0738 61.9568 40.7415 62.125 40.2503 62.1234C36.346 62.1123 32.4433 62.1155 28.539 62.1186C28.1392 62.1186 27.8326 62.0203 27.6046 61.6521C26.8196 60.3794 26.0667 59.0813 25.1933 57.8705C24.2381 56.5454 23.9363 55.0553 23.7742 53.5033C23.5623 51.4768 22.5798 49.9994 20.7159 49.06C19.9758 48.687 19.2679 48.1967 18.6642 47.6333C17.9193 46.9383 17.5276 46.0337 17.8936 44.9943C18.2613 43.9469 19.1105 43.4788 20.1685 43.3138C21.281 43.1392 22.3085 43.4217 23.2926 43.9009C24.2911 44.3865 25.28 44.8896 26.3829 45.4402L26.3797 45.4418ZM30.3627 45.0102V44.3405C30.3627 40.7922 30.3627 37.2422 30.3627 33.6939C30.3627 33.5193 30.3723 33.3432 30.3531 33.1702C30.2872 32.5847 29.812 32.1356 29.2245 32.0864C28.6545 32.0388 28.1135 32.4355 27.9835 33.0258C27.9305 33.2686 27.9273 33.5257 27.9257 33.7764C27.9161 37.9659 27.9129 42.1537 27.9048 46.3432C27.9032 47.3874 27.4393 47.6635 26.4857 47.189C25.2078 46.5526 23.9379 45.902 22.6568 45.2752C21.8927 44.9007 21.098 44.623 20.2247 44.8356C19.2406 45.0752 18.9773 45.7608 19.6676 46.4955C20.0962 46.9525 20.6405 47.3556 21.2104 47.6238C23.7324 48.8092 25.0649 50.7802 25.3025 53.4906C25.4341 54.9966 25.9045 56.347 26.826 57.569C27.4569 58.4069 28.0012 59.3098 28.5422 60.208C28.7316 60.5222 28.9371 60.6142 29.2887 60.6127C32.7033 60.6016 36.1164 60.5984 39.531 60.6158C39.9308 60.6174 40.1138 60.4794 40.2792 60.135C41.2311 58.153 41.8043 56.063 41.9969 53.8873C42.1478 52.1703 42.1767 50.4422 42.2345 48.7188C42.2602 47.9206 41.8573 47.4064 41.2103 47.3096C40.5553 47.2112 40.0945 47.5349 39.82 48.2824C39.7959 48.349 39.7574 48.4109 39.743 48.4379H38.266C38.266 48.1284 38.266 47.8603 38.266 47.5921C38.266 47.3017 38.2756 47.0097 38.2596 46.7193C38.2259 46.1273 37.8342 45.6862 37.2658 45.583C36.72 45.4831 36.1726 45.7877 35.9414 46.3257C35.8836 46.4606 35.8419 46.6034 35.8033 46.7129H34.3071C34.3071 46.0908 34.3424 45.5084 34.2975 44.934C34.2509 44.3341 33.8207 43.9326 33.2427 43.8517C32.7226 43.7787 32.2169 44.085 31.9857 44.615C31.9263 44.7515 31.8782 44.8943 31.8332 45.0102H30.3595H30.3627Z" fill="#524B2B"/>
<path d="M29.1715 12.25C35.0376 12.2659 40.178 15.957 41.9905 21.4541C43.7837 26.894 41.7962 32.9433 37.1117 36.3107C37.0331 36.3678 36.9576 36.4313 36.8741 36.4805C36.4648 36.7217 36.0714 36.7122 35.7873 36.3091C35.524 35.933 35.6171 35.5696 35.9703 35.2824C36.3941 34.938 36.8549 34.6318 37.2466 34.2541C40.7848 30.847 41.9937 26.7274 40.5456 22.0841C39.0976 17.4376 35.752 14.6653 30.8732 13.8972C25.0842 12.9863 19.4862 16.514 17.7524 22.0492C17.6769 22.2888 17.6625 22.6014 17.4971 22.7474C17.2804 22.941 16.9079 23.1441 16.6719 23.0822C16.4392 23.0219 16.2176 22.6617 16.1293 22.3888C16.0635 22.1825 16.2 21.9016 16.2738 21.662C18.0012 16.0681 23.2556 12.2341 29.1715 12.25Z" fill="#524B2B"/>
<path d="M23.2829 24.8517C24.0679 24.8517 24.853 24.8342 25.638 24.8596C25.996 24.8707 26.179 24.7818 26.3331 24.4248C26.9464 22.9934 28.4795 22.2761 29.9613 22.676C31.3628 23.0553 32.3501 24.4295 32.2265 25.834C32.0933 27.3542 30.8956 28.5317 29.3513 28.6571C28.091 28.7586 26.8324 28.0033 26.3203 26.775C26.1806 26.4386 26.0105 26.3561 25.6749 26.3592C24.2429 26.3751 22.8093 26.3529 21.3773 26.3783C21.1333 26.383 20.8331 26.4894 20.6597 26.6528C19.2229 28.0017 17.8037 29.3696 16.4006 30.7534C16.232 30.9184 16.1293 31.2152 16.1181 31.4564C16.0827 32.2308 16.1116 33.0068 16.102 33.7828C16.0956 34.3874 15.7857 34.7476 15.3106 34.7334C14.8498 34.7191 14.5801 34.3858 14.5769 33.7987C14.5705 32.8291 14.5464 31.8579 14.5929 30.8899C14.6074 30.5947 14.7567 30.2392 14.967 30.0329C16.6189 28.4032 18.2934 26.7925 19.9854 25.2024C20.1893 25.0104 20.5297 24.885 20.8154 24.8691C21.6374 24.8247 22.4626 24.8533 23.2877 24.8533L23.2829 24.8517ZM29.141 24.0788C28.2628 24.0915 27.5902 24.7818 27.6094 25.6499C27.6287 26.4894 28.3078 27.1495 29.1554 27.1511C29.995 27.1527 30.7239 26.4116 30.7014 25.5769C30.6789 24.7549 29.9629 24.0661 29.141 24.0788Z" fill="#524B2B"/>
<path d="M29.1715 17.5725C32.3373 17.6979 34.7566 19.0499 36.2577 21.7715C37.7699 24.5121 37.6174 27.2749 35.9799 29.9456C35.6219 30.528 35.2045 30.674 34.7839 30.4074C34.3762 30.1504 34.3489 29.706 34.7021 29.1316C36.6703 25.945 35.7327 21.9444 32.5717 20.037C29.4155 18.1343 25.3924 19.1562 23.4242 22.3618C23.0694 22.9394 22.6616 23.1029 22.2378 22.8379C21.8285 22.5824 21.7691 22.1698 22.1046 21.616C23.7068 18.9626 26.11 17.6804 29.1715 17.5709V17.5725Z" fill="#524B2B"/>
</g>
<defs>
<clipPath id="clip0_36_303">
<rect width="43.75" height="49.875" fill="white" transform="translate(0 12.25)"/>
</clipPath>
</defs>
</svg>
