<svg width="76" height="75" viewBox="0 0 76 75" fill="none" xmlns="http://www.w3.org/2000/svg">
<mask id="mask0_84_8" style="mask-type:alpha" maskUnits="userSpaceOnUse" x="1" y="0" width="75" height="75">
<rect x="1" width="75" height="75" fill="#D9D9D9"/>
</mask>
<g mask="url(#mask0_84_8)">
</g>
<g clip-path="url(#clip0_84_8)">
<mask id="path-2-outside-1_84_8" maskUnits="userSpaceOnUse" x="-0.0055542" y="8.98877" width="57" height="57" fill="black">
<rect fill="white" x="-0.0055542" y="8.98877" width="57" height="57"/>
<path d="M8.91759 50.7148C7.13737 48.0395 5.94226 45.2024 5.31981 42.0666C4.72225 42.0666 4.14959 42.0666 3.56449 42.0666C2.05815 42.0542 1.01243 41.0089 0.999979 39.5282C0.999979 38.1843 0.98753 36.8279 0.999979 35.484C1.01243 34.0282 2.0706 32.9829 3.52714 32.958C4.0998 32.958 4.66001 32.958 5.30736 32.958C5.94226 29.8721 7.10002 27.0101 8.90514 24.3347C8.48187 23.9365 8.07105 23.5508 7.67268 23.1402C6.58961 22.0451 6.57716 20.5768 7.64778 19.4818C8.58146 18.5361 9.51514 17.5904 10.4737 16.6571C11.5443 15.6119 13.0009 15.5994 14.0964 16.6571C14.5072 17.0553 14.8807 17.4784 15.3164 17.9264C17.9681 16.1594 20.8189 14.9648 23.9436 14.3426C23.9436 13.7205 23.9436 13.1356 23.9436 12.5508C23.9685 11.1198 24.9769 10.0497 26.4085 10.0123C27.7904 9.975 29.1847 9.98744 30.5665 10.0123C31.9982 10.0372 33.0314 11.1074 33.0563 12.5259C33.0688 13.1107 33.0563 13.6956 33.0563 14.2182C34.5876 14.716 36.0939 15.1266 37.5256 15.7114C38.9447 16.2963 40.2768 17.0678 41.7707 17.8268C42.0695 17.5157 42.4554 17.0926 42.8538 16.6945C43.9742 15.587 45.4307 15.5745 46.5511 16.682C47.4848 17.6028 48.4185 18.5236 49.3273 19.4693C50.373 20.5395 50.3854 22.0202 49.3522 23.0904C48.9414 23.5135 48.4932 23.8868 48.0575 24.2974C49.8501 26.9852 51.0328 29.8347 51.6552 32.9456C52.2279 32.9456 52.7757 32.9456 53.3234 32.9456C54.9169 32.958 55.9751 34.0033 55.9875 35.5836C55.9875 36.8777 55.9875 38.1718 55.9875 39.466C55.9875 41.0214 54.9294 42.0542 53.3608 42.0666C52.813 42.0666 52.2653 42.0666 51.7175 42.0666C51.3191 43.423 50.9332 44.7544 50.5348 46.1356C51.842 46.7454 53.1865 47.3675 54.5185 48.0022C56.0996 48.7612 56.0373 48.4377 55.9253 50.3664C55.8008 52.4693 55.6514 54.5847 55.0414 56.613C53.8463 60.57 51.2071 63.2205 47.4973 64.863C47.2234 64.9874 46.7752 64.9377 46.4764 64.8132C43.5634 63.5316 41.335 61.4908 39.8535 58.6537C39.8037 58.5542 39.7415 58.4671 39.7415 58.4795C37.5131 59.2759 35.347 60.0598 33.0563 60.8811C33.0563 61.2544 33.0563 61.8144 33.0563 62.3868C33.0439 63.9546 32.0106 64.9999 30.4545 65.0123C29.1473 65.0123 27.8277 65.0123 26.5206 65.0123C24.9893 65.0123 23.9561 63.9671 23.9436 62.4241C23.9436 61.8517 23.9436 61.2917 23.9436 60.6945C20.8438 60.0723 17.993 58.9026 15.3164 57.1107C14.9305 57.5214 14.5446 57.932 14.1462 58.3302C13.0258 59.4377 11.5692 59.4501 10.4488 58.3426C9.51514 57.4218 8.58146 56.501 7.66023 55.5553C6.58961 54.4603 6.58961 52.992 7.66023 51.8969C8.0586 51.4863 8.49432 51.113 8.91759 50.7148ZM49.3397 45.5632C49.7007 44.1447 50.0742 42.8008 50.3854 41.432C50.5099 40.9094 50.7714 40.6854 51.2942 40.6978C51.9789 40.6978 52.6636 40.6978 53.3483 40.6978C54.1824 40.6978 54.6181 40.2748 54.6306 39.4411C54.6306 38.1718 54.6306 36.8902 54.6306 35.6209C54.6306 34.7499 54.1949 34.3268 53.3234 34.3144C52.6387 34.3144 51.954 34.3144 51.2693 34.3144C50.7714 34.3144 50.485 34.1277 50.3979 33.6175C49.8252 30.4071 48.6052 27.4705 46.7379 24.7951C46.4266 24.3472 46.4889 23.9988 46.8624 23.6379C47.3603 23.165 47.8334 22.6798 48.3189 22.182C48.8916 21.5847 48.8916 20.975 48.3189 20.3777C47.4226 19.4693 46.5262 18.5734 45.6175 17.6775C45.0074 17.0802 44.3974 17.0926 43.775 17.7024C43.2895 18.1752 42.804 18.6605 42.3184 19.1583C41.9699 19.5191 41.6213 19.544 41.2105 19.2578C38.5215 17.3788 35.5586 16.1594 32.3343 15.587C31.8861 15.5123 31.6869 15.251 31.6869 14.7906C31.6869 14.0689 31.6869 13.3472 31.6869 12.6255C31.6745 11.8291 31.2388 11.3811 30.4545 11.3687C29.1598 11.3562 27.8651 11.3562 26.5704 11.3687C25.7363 11.3687 25.313 11.8166 25.3006 12.6379C25.3006 13.3223 25.3006 14.0067 25.3006 14.6911C25.3006 15.2012 25.1014 15.4999 24.5661 15.5994C21.3667 16.1718 18.4162 17.3913 15.7521 19.2578C15.3289 19.5564 14.9927 19.4942 14.6442 19.1334C14.1586 18.6232 13.6607 18.1255 13.1503 17.6402C12.5776 17.0926 11.9552 17.0926 11.395 17.6402C10.4737 18.5485 9.55249 19.4569 8.65616 20.3777C8.07105 20.975 8.0835 21.5598 8.66861 22.1696C9.12922 22.6424 9.60229 23.1277 10.0878 23.5757C10.5111 23.9739 10.5484 24.3472 10.2123 24.82C8.35738 27.458 7.17472 30.3698 6.60206 33.5429C6.51492 34.0655 6.22859 34.2895 5.70573 34.277C5.02103 34.2521 4.33633 34.2646 3.65163 34.277C2.80509 34.2895 2.38183 34.7126 2.36938 35.5463C2.36938 36.8404 2.36938 38.1345 2.36938 39.4286C2.36938 40.2374 2.79264 40.6605 3.60183 40.673C4.29898 40.673 5.00858 40.673 5.70573 40.673C6.20369 40.673 6.49002 40.8845 6.57716 41.3698C7.13737 44.5802 8.35738 47.5169 10.2247 50.1922C10.536 50.6277 10.4737 50.9886 10.1003 51.3494C9.58984 51.8347 9.09188 52.3325 8.60636 52.8426C8.07105 53.4026 8.0586 53.9999 8.60636 54.5598C9.51514 55.5055 10.4488 56.4264 11.3825 57.3472C11.9552 57.9071 12.5527 57.9071 13.1378 57.3472C13.6358 56.8743 14.1213 56.389 14.5944 55.8913C14.9678 55.4931 15.3413 55.4433 15.8019 55.7669C18.4536 57.6209 21.3791 58.8404 24.5661 59.4003C25.0889 59.4874 25.313 59.7861 25.3006 60.3087C25.2881 61.018 25.2881 61.7148 25.3006 62.4241C25.313 63.1956 25.7363 63.6187 26.5081 63.6311C27.8153 63.6311 29.1349 63.6311 30.442 63.6311C31.2263 63.6311 31.662 63.1831 31.6745 62.3868C31.6745 61.7273 31.6745 61.0553 31.6745 60.3958C31.6745 59.6865 31.799 59.5372 32.4961 59.4003C34.6996 58.9897 36.7911 58.268 38.7705 57.2352C38.9945 57.1107 39.1937 57.0361 39.0941 56.6877C38.3721 54.3234 38.2476 51.8721 38.1231 49.4207C38.0982 48.9105 38.26 48.5994 38.7331 48.3879C41.3474 47.1809 43.9617 45.9365 46.5885 44.742C46.8499 44.6175 47.2607 44.6549 47.5471 44.742C48.1197 44.9411 48.6426 45.2397 49.3273 45.5508L49.3397 45.5632ZM54.531 50.7273C54.5559 50.4784 54.5559 50.2295 54.5932 49.9931C54.643 49.682 54.5434 49.5078 54.2447 49.3834C51.954 48.3257 49.6758 47.2431 47.3728 46.1978C47.1985 46.1232 46.9246 46.1107 46.7503 46.1978C44.4721 47.2431 42.2064 48.3132 39.9407 49.3709C39.6294 49.5078 39.5174 49.682 39.5548 50.018C39.6917 51.3992 39.7539 52.7929 39.9407 54.1617C40.5258 58.4422 42.8289 61.5033 46.6881 63.4071C46.8748 63.5067 47.186 63.5316 47.3603 63.4445C50.1614 62.113 52.2653 60.0847 53.423 57.173C54.2322 55.1198 54.4065 52.9298 54.5434 50.7397L54.531 50.7273Z"/>
</mask>
<path d="M8.91759 50.7148C7.13737 48.0395 5.94226 45.2024 5.31981 42.0666C4.72225 42.0666 4.14959 42.0666 3.56449 42.0666C2.05815 42.0542 1.01243 41.0089 0.999979 39.5282C0.999979 38.1843 0.98753 36.8279 0.999979 35.484C1.01243 34.0282 2.0706 32.9829 3.52714 32.958C4.0998 32.958 4.66001 32.958 5.30736 32.958C5.94226 29.8721 7.10002 27.0101 8.90514 24.3347C8.48187 23.9365 8.07105 23.5508 7.67268 23.1402C6.58961 22.0451 6.57716 20.5768 7.64778 19.4818C8.58146 18.5361 9.51514 17.5904 10.4737 16.6571C11.5443 15.6119 13.0009 15.5994 14.0964 16.6571C14.5072 17.0553 14.8807 17.4784 15.3164 17.9264C17.9681 16.1594 20.8189 14.9648 23.9436 14.3426C23.9436 13.7205 23.9436 13.1356 23.9436 12.5508C23.9685 11.1198 24.9769 10.0497 26.4085 10.0123C27.7904 9.975 29.1847 9.98744 30.5665 10.0123C31.9982 10.0372 33.0314 11.1074 33.0563 12.5259C33.0688 13.1107 33.0563 13.6956 33.0563 14.2182C34.5876 14.716 36.0939 15.1266 37.5256 15.7114C38.9447 16.2963 40.2768 17.0678 41.7707 17.8268C42.0695 17.5157 42.4554 17.0926 42.8538 16.6945C43.9742 15.587 45.4307 15.5745 46.5511 16.682C47.4848 17.6028 48.4185 18.5236 49.3273 19.4693C50.373 20.5395 50.3854 22.0202 49.3522 23.0904C48.9414 23.5135 48.4932 23.8868 48.0575 24.2974C49.8501 26.9852 51.0328 29.8347 51.6552 32.9456C52.2279 32.9456 52.7757 32.9456 53.3234 32.9456C54.9169 32.958 55.9751 34.0033 55.9875 35.5836C55.9875 36.8777 55.9875 38.1718 55.9875 39.466C55.9875 41.0214 54.9294 42.0542 53.3608 42.0666C52.813 42.0666 52.2653 42.0666 51.7175 42.0666C51.3191 43.423 50.9332 44.7544 50.5348 46.1356C51.842 46.7454 53.1865 47.3675 54.5185 48.0022C56.0996 48.7612 56.0373 48.4377 55.9253 50.3664C55.8008 52.4693 55.6514 54.5847 55.0414 56.613C53.8463 60.57 51.2071 63.2205 47.4973 64.863C47.2234 64.9874 46.7752 64.9377 46.4764 64.8132C43.5634 63.5316 41.335 61.4908 39.8535 58.6537C39.8037 58.5542 39.7415 58.4671 39.7415 58.4795C37.5131 59.2759 35.347 60.0598 33.0563 60.8811C33.0563 61.2544 33.0563 61.8144 33.0563 62.3868C33.0439 63.9546 32.0106 64.9999 30.4545 65.0123C29.1473 65.0123 27.8277 65.0123 26.5206 65.0123C24.9893 65.0123 23.9561 63.9671 23.9436 62.4241C23.9436 61.8517 23.9436 61.2917 23.9436 60.6945C20.8438 60.0723 17.993 58.9026 15.3164 57.1107C14.9305 57.5214 14.5446 57.932 14.1462 58.3302C13.0258 59.4377 11.5692 59.4501 10.4488 58.3426C9.51514 57.4218 8.58146 56.501 7.66023 55.5553C6.58961 54.4603 6.58961 52.992 7.66023 51.8969C8.0586 51.4863 8.49432 51.113 8.91759 50.7148ZM49.3397 45.5632C49.7007 44.1447 50.0742 42.8008 50.3854 41.432C50.5099 40.9094 50.7714 40.6854 51.2942 40.6978C51.9789 40.6978 52.6636 40.6978 53.3483 40.6978C54.1824 40.6978 54.6181 40.2748 54.6306 39.4411C54.6306 38.1718 54.6306 36.8902 54.6306 35.6209C54.6306 34.7499 54.1949 34.3268 53.3234 34.3144C52.6387 34.3144 51.954 34.3144 51.2693 34.3144C50.7714 34.3144 50.485 34.1277 50.3979 33.6175C49.8252 30.4071 48.6052 27.4705 46.7379 24.7951C46.4266 24.3472 46.4889 23.9988 46.8624 23.6379C47.3603 23.165 47.8334 22.6798 48.3189 22.182C48.8916 21.5847 48.8916 20.975 48.3189 20.3777C47.4226 19.4693 46.5262 18.5734 45.6175 17.6775C45.0074 17.0802 44.3974 17.0926 43.775 17.7024C43.2895 18.1752 42.804 18.6605 42.3184 19.1583C41.9699 19.5191 41.6213 19.544 41.2105 19.2578C38.5215 17.3788 35.5586 16.1594 32.3343 15.587C31.8861 15.5123 31.6869 15.251 31.6869 14.7906C31.6869 14.0689 31.6869 13.3472 31.6869 12.6255C31.6745 11.8291 31.2388 11.3811 30.4545 11.3687C29.1598 11.3562 27.8651 11.3562 26.5704 11.3687C25.7363 11.3687 25.313 11.8166 25.3006 12.6379C25.3006 13.3223 25.3006 14.0067 25.3006 14.6911C25.3006 15.2012 25.1014 15.4999 24.5661 15.5994C21.3667 16.1718 18.4162 17.3913 15.7521 19.2578C15.3289 19.5564 14.9927 19.4942 14.6442 19.1334C14.1586 18.6232 13.6607 18.1255 13.1503 17.6402C12.5776 17.0926 11.9552 17.0926 11.395 17.6402C10.4737 18.5485 9.55249 19.4569 8.65616 20.3777C8.07105 20.975 8.0835 21.5598 8.66861 22.1696C9.12922 22.6424 9.60229 23.1277 10.0878 23.5757C10.5111 23.9739 10.5484 24.3472 10.2123 24.82C8.35738 27.458 7.17472 30.3698 6.60206 33.5429C6.51492 34.0655 6.22859 34.2895 5.70573 34.277C5.02103 34.2521 4.33633 34.2646 3.65163 34.277C2.80509 34.2895 2.38183 34.7126 2.36938 35.5463C2.36938 36.8404 2.36938 38.1345 2.36938 39.4286C2.36938 40.2374 2.79264 40.6605 3.60183 40.673C4.29898 40.673 5.00858 40.673 5.70573 40.673C6.20369 40.673 6.49002 40.8845 6.57716 41.3698C7.13737 44.5802 8.35738 47.5169 10.2247 50.1922C10.536 50.6277 10.4737 50.9886 10.1003 51.3494C9.58984 51.8347 9.09188 52.3325 8.60636 52.8426C8.07105 53.4026 8.0586 53.9999 8.60636 54.5598C9.51514 55.5055 10.4488 56.4264 11.3825 57.3472C11.9552 57.9071 12.5527 57.9071 13.1378 57.3472C13.6358 56.8743 14.1213 56.389 14.5944 55.8913C14.9678 55.4931 15.3413 55.4433 15.8019 55.7669C18.4536 57.6209 21.3791 58.8404 24.5661 59.4003C25.0889 59.4874 25.313 59.7861 25.3006 60.3087C25.2881 61.018 25.2881 61.7148 25.3006 62.4241C25.313 63.1956 25.7363 63.6187 26.5081 63.6311C27.8153 63.6311 29.1349 63.6311 30.442 63.6311C31.2263 63.6311 31.662 63.1831 31.6745 62.3868C31.6745 61.7273 31.6745 61.0553 31.6745 60.3958C31.6745 59.6865 31.799 59.5372 32.4961 59.4003C34.6996 58.9897 36.7911 58.268 38.7705 57.2352C38.9945 57.1107 39.1937 57.0361 39.0941 56.6877C38.3721 54.3234 38.2476 51.8721 38.1231 49.4207C38.0982 48.9105 38.26 48.5994 38.7331 48.3879C41.3474 47.1809 43.9617 45.9365 46.5885 44.742C46.8499 44.6175 47.2607 44.6549 47.5471 44.742C48.1197 44.9411 48.6426 45.2397 49.3273 45.5508L49.3397 45.5632ZM54.531 50.7273C54.5559 50.4784 54.5559 50.2295 54.5932 49.9931C54.643 49.682 54.5434 49.5078 54.2447 49.3834C51.954 48.3257 49.6758 47.2431 47.3728 46.1978C47.1985 46.1232 46.9246 46.1107 46.7503 46.1978C44.4721 47.2431 42.2064 48.3132 39.9407 49.3709C39.6294 49.5078 39.5174 49.682 39.5548 50.018C39.6917 51.3992 39.7539 52.7929 39.9407 54.1617C40.5258 58.4422 42.8289 61.5033 46.6881 63.4071C46.8748 63.5067 47.186 63.5316 47.3603 63.4445C50.1614 62.113 52.2653 60.0847 53.423 57.173C54.2322 55.1198 54.4065 52.9298 54.5434 50.7397L54.531 50.7273Z" fill="#77B81E"/>
<path d="M8.91759 50.7148C7.13737 48.0395 5.94226 45.2024 5.31981 42.0666C4.72225 42.0666 4.14959 42.0666 3.56449 42.0666C2.05815 42.0542 1.01243 41.0089 0.999979 39.5282C0.999979 38.1843 0.98753 36.8279 0.999979 35.484C1.01243 34.0282 2.0706 32.9829 3.52714 32.958C4.0998 32.958 4.66001 32.958 5.30736 32.958C5.94226 29.8721 7.10002 27.0101 8.90514 24.3347C8.48187 23.9365 8.07105 23.5508 7.67268 23.1402C6.58961 22.0451 6.57716 20.5768 7.64778 19.4818C8.58146 18.5361 9.51514 17.5904 10.4737 16.6571C11.5443 15.6119 13.0009 15.5994 14.0964 16.6571C14.5072 17.0553 14.8807 17.4784 15.3164 17.9264C17.9681 16.1594 20.8189 14.9648 23.9436 14.3426C23.9436 13.7205 23.9436 13.1356 23.9436 12.5508C23.9685 11.1198 24.9769 10.0497 26.4085 10.0123C27.7904 9.975 29.1847 9.98744 30.5665 10.0123C31.9982 10.0372 33.0314 11.1074 33.0563 12.5259C33.0688 13.1107 33.0563 13.6956 33.0563 14.2182C34.5876 14.716 36.0939 15.1266 37.5256 15.7114C38.9447 16.2963 40.2768 17.0678 41.7707 17.8268C42.0695 17.5157 42.4554 17.0926 42.8538 16.6945C43.9742 15.587 45.4307 15.5745 46.5511 16.682C47.4848 17.6028 48.4185 18.5236 49.3273 19.4693C50.373 20.5395 50.3854 22.0202 49.3522 23.0904C48.9414 23.5135 48.4932 23.8868 48.0575 24.2974C49.8501 26.9852 51.0328 29.8347 51.6552 32.9456C52.2279 32.9456 52.7757 32.9456 53.3234 32.9456C54.9169 32.958 55.9751 34.0033 55.9875 35.5836C55.9875 36.8777 55.9875 38.1718 55.9875 39.466C55.9875 41.0214 54.9294 42.0542 53.3608 42.0666C52.813 42.0666 52.2653 42.0666 51.7175 42.0666C51.3191 43.423 50.9332 44.7544 50.5348 46.1356C51.842 46.7454 53.1865 47.3675 54.5185 48.0022C56.0996 48.7612 56.0373 48.4377 55.9253 50.3664C55.8008 52.4693 55.6514 54.5847 55.0414 56.613C53.8463 60.57 51.2071 63.2205 47.4973 64.863C47.2234 64.9874 46.7752 64.9377 46.4764 64.8132C43.5634 63.5316 41.335 61.4908 39.8535 58.6537C39.8037 58.5542 39.7415 58.4671 39.7415 58.4795C37.5131 59.2759 35.347 60.0598 33.0563 60.8811C33.0563 61.2544 33.0563 61.8144 33.0563 62.3868C33.0439 63.9546 32.0106 64.9999 30.4545 65.0123C29.1473 65.0123 27.8277 65.0123 26.5206 65.0123C24.9893 65.0123 23.9561 63.9671 23.9436 62.4241C23.9436 61.8517 23.9436 61.2917 23.9436 60.6945C20.8438 60.0723 17.993 58.9026 15.3164 57.1107C14.9305 57.5214 14.5446 57.932 14.1462 58.3302C13.0258 59.4377 11.5692 59.4501 10.4488 58.3426C9.51514 57.4218 8.58146 56.501 7.66023 55.5553C6.58961 54.4603 6.58961 52.992 7.66023 51.8969C8.0586 51.4863 8.49432 51.113 8.91759 50.7148ZM49.3397 45.5632C49.7007 44.1447 50.0742 42.8008 50.3854 41.432C50.5099 40.9094 50.7714 40.6854 51.2942 40.6978C51.9789 40.6978 52.6636 40.6978 53.3483 40.6978C54.1824 40.6978 54.6181 40.2748 54.6306 39.4411C54.6306 38.1718 54.6306 36.8902 54.6306 35.6209C54.6306 34.7499 54.1949 34.3268 53.3234 34.3144C52.6387 34.3144 51.954 34.3144 51.2693 34.3144C50.7714 34.3144 50.485 34.1277 50.3979 33.6175C49.8252 30.4071 48.6052 27.4705 46.7379 24.7951C46.4266 24.3472 46.4889 23.9988 46.8624 23.6379C47.3603 23.165 47.8334 22.6798 48.3189 22.182C48.8916 21.5847 48.8916 20.975 48.3189 20.3777C47.4226 19.4693 46.5262 18.5734 45.6175 17.6775C45.0074 17.0802 44.3974 17.0926 43.775 17.7024C43.2895 18.1752 42.804 18.6605 42.3184 19.1583C41.9699 19.5191 41.6213 19.544 41.2105 19.2578C38.5215 17.3788 35.5586 16.1594 32.3343 15.587C31.8861 15.5123 31.6869 15.251 31.6869 14.7906C31.6869 14.0689 31.6869 13.3472 31.6869 12.6255C31.6745 11.8291 31.2388 11.3811 30.4545 11.3687C29.1598 11.3562 27.8651 11.3562 26.5704 11.3687C25.7363 11.3687 25.313 11.8166 25.3006 12.6379C25.3006 13.3223 25.3006 14.0067 25.3006 14.6911C25.3006 15.2012 25.1014 15.4999 24.5661 15.5994C21.3667 16.1718 18.4162 17.3913 15.7521 19.2578C15.3289 19.5564 14.9927 19.4942 14.6442 19.1334C14.1586 18.6232 13.6607 18.1255 13.1503 17.6402C12.5776 17.0926 11.9552 17.0926 11.395 17.6402C10.4737 18.5485 9.55249 19.4569 8.65616 20.3777C8.07105 20.975 8.0835 21.5598 8.66861 22.1696C9.12922 22.6424 9.60229 23.1277 10.0878 23.5757C10.5111 23.9739 10.5484 24.3472 10.2123 24.82C8.35738 27.458 7.17472 30.3698 6.60206 33.5429C6.51492 34.0655 6.22859 34.2895 5.70573 34.277C5.02103 34.2521 4.33633 34.2646 3.65163 34.277C2.80509 34.2895 2.38183 34.7126 2.36938 35.5463C2.36938 36.8404 2.36938 38.1345 2.36938 39.4286C2.36938 40.2374 2.79264 40.6605 3.60183 40.673C4.29898 40.673 5.00858 40.673 5.70573 40.673C6.20369 40.673 6.49002 40.8845 6.57716 41.3698C7.13737 44.5802 8.35738 47.5169 10.2247 50.1922C10.536 50.6277 10.4737 50.9886 10.1003 51.3494C9.58984 51.8347 9.09188 52.3325 8.60636 52.8426C8.07105 53.4026 8.0586 53.9999 8.60636 54.5598C9.51514 55.5055 10.4488 56.4264 11.3825 57.3472C11.9552 57.9071 12.5527 57.9071 13.1378 57.3472C13.6358 56.8743 14.1213 56.389 14.5944 55.8913C14.9678 55.4931 15.3413 55.4433 15.8019 55.7669C18.4536 57.6209 21.3791 58.8404 24.5661 59.4003C25.0889 59.4874 25.313 59.7861 25.3006 60.3087C25.2881 61.018 25.2881 61.7148 25.3006 62.4241C25.313 63.1956 25.7363 63.6187 26.5081 63.6311C27.8153 63.6311 29.1349 63.6311 30.442 63.6311C31.2263 63.6311 31.662 63.1831 31.6745 62.3868C31.6745 61.7273 31.6745 61.0553 31.6745 60.3958C31.6745 59.6865 31.799 59.5372 32.4961 59.4003C34.6996 58.9897 36.7911 58.268 38.7705 57.2352C38.9945 57.1107 39.1937 57.0361 39.0941 56.6877C38.3721 54.3234 38.2476 51.8721 38.1231 49.4207C38.0982 48.9105 38.26 48.5994 38.7331 48.3879C41.3474 47.1809 43.9617 45.9365 46.5885 44.742C46.8499 44.6175 47.2607 44.6549 47.5471 44.742C48.1197 44.9411 48.6426 45.2397 49.3273 45.5508L49.3397 45.5632ZM54.531 50.7273C54.5559 50.4784 54.5559 50.2295 54.5932 49.9931C54.643 49.682 54.5434 49.5078 54.2447 49.3834C51.954 48.3257 49.6758 47.2431 47.3728 46.1978C47.1985 46.1232 46.9246 46.1107 46.7503 46.1978C44.4721 47.2431 42.2064 48.3132 39.9407 49.3709C39.6294 49.5078 39.5174 49.682 39.5548 50.018C39.6917 51.3992 39.7539 52.7929 39.9407 54.1617C40.5258 58.4422 42.8289 61.5033 46.6881 63.4071C46.8748 63.5067 47.186 63.5316 47.3603 63.4445C50.1614 62.113 52.2653 60.0847 53.423 57.173C54.2322 55.1198 54.4065 52.9298 54.5434 50.7397L54.531 50.7273Z" stroke="#77B81E" mask="url(#path-2-outside-1_84_8)"/>
<path d="M28.3992 18.6106C33.9869 18.5728 38.8066 22.6068 39.6776 28.094C39.7505 28.5526 39.8963 28.9367 40.1317 29.3137L40.2381 29.4758C45.397 36.9717 42.2266 47.3595 33.7723 50.7424L33.7713 50.7415C33.6487 50.7918 33.5337 50.8661 33.4012 50.9475C33.2727 51.0264 33.129 51.1124 32.9686 51.1682L32.9676 51.1672C32.3905 51.3839 31.7772 51.6826 31.1326 51.76H31.1317C30.3839 51.8467 29.6084 51.8051 28.8553 51.7913L28.8621 51.7981H28.4998C27.6429 51.7981 26.7393 51.8608 25.8582 51.7727V51.7717C25.2865 51.7195 24.7186 51.5001 24.201 51.303L24.1981 51.302C23.9448 51.1982 23.7058 51.0626 23.4764 50.9309C23.2442 50.7976 23.0215 50.6684 22.7879 50.5667C14.5342 46.9698 11.6534 36.6325 16.8494 29.2756C17.0495 28.9933 17.201 28.6418 17.2469 28.3206L17.3338 27.804C18.3507 22.5178 22.9608 18.6473 28.3992 18.6106ZM24.3592 48.0774C24.3178 48.8007 24.4499 49.2961 24.7332 49.6155C25.0329 49.9531 25.5315 50.1291 26.284 50.1292H31.0145C31.6105 50.1292 32.0776 49.8765 32.3572 49.4875C32.6202 49.1217 32.7232 48.6242 32.6004 48.0774H24.3592ZM39.7098 31.9875C39.4358 33.3622 38.9375 34.6439 38.1336 35.7922L38.1346 35.7932C37.7972 36.2803 37.4397 36.7531 37.0789 37.22L36.0018 38.6116C35.1127 39.7718 34.4251 41.0229 34.3768 42.4573V42.4583C34.305 44.4795 34.3461 46.5094 34.3494 48.6497C37.7311 46.7438 39.8961 44.0028 40.7401 40.2795L40.741 40.2786C41.3986 37.3907 41.0674 34.6083 39.7098 31.9875ZM17.2576 32.0149C15.6744 35.2101 15.4859 38.4902 16.702 41.8538L16.9236 42.4202C18.0526 45.1337 19.9686 47.1831 22.658 48.6321C22.6526 47.03 22.6025 45.5185 22.6736 44.0129C22.7712 41.764 22.0632 39.8472 20.6297 38.1448C19.1058 36.3404 17.7038 34.4461 17.2576 32.0149ZM24.3797 46.3596H32.6326V44.2952H24.3797V46.3596ZM33.1697 21.4915C29.7633 19.5809 25.4354 19.9731 22.3826 22.4485C18.3964 25.6728 17.5683 31.7499 20.7723 35.6624L21.1883 36.1721C21.3251 36.3437 21.4602 36.5164 21.5945 36.6897L22.3943 37.7327L22.3953 37.7336C23.2522 38.8673 23.8867 40.107 24.1658 41.5276V41.5286C24.2327 41.8739 24.281 42.2239 24.3338 42.5637H32.6824C32.8207 40.9476 33.3571 39.4981 34.2635 38.1985L34.4549 37.9329C34.7735 37.502 35.101 37.0805 35.4276 36.6624C35.7547 36.2435 36.0809 35.8281 36.3973 35.4065L36.5662 35.177C37.3868 34.0238 37.9033 32.7425 38.0867 31.3215V31.3206C38.6093 27.474 36.8306 23.72 33.4969 21.6838L33.1697 21.4915Z" fill="#77B81E" stroke="#77B81E" stroke-width="0.3"/>
<path d="M46.1154 55.9039C47.1487 54.7093 48.1197 53.5645 49.1156 52.4446C49.2899 52.2455 49.5638 52.0713 49.8128 52.0464C49.9995 52.034 50.3356 52.2579 50.3605 52.4197C50.4103 52.681 50.3605 53.0419 50.1863 53.241C49.265 54.3733 48.294 55.4683 47.3354 56.5758C46.5802 57.4468 45.7834 57.4842 44.9452 56.6878C44.5966 56.3643 44.248 56.0407 43.9119 55.7048C43.6007 55.3937 43.5385 55.0328 43.8621 54.6968C44.1858 54.3609 44.5468 54.4231 44.8705 54.7217C45.2689 55.095 45.6672 55.4683 46.103 55.8914L46.1154 55.9039Z" fill="#77B81E"/>
<path d="M27.7406 29.5238C26.8443 30.37 25.9728 31.1788 25.1014 32.0001C24.9396 32.1618 24.7777 32.3236 24.6283 32.4853C24.3047 32.8338 23.9436 32.9831 23.5328 32.6471C23.1967 32.3734 23.2465 31.9627 23.6324 31.5521C24.0059 31.1539 24.3918 30.7557 24.7777 30.37C25.5122 29.6234 26.2343 28.8767 26.9688 28.1301C27.4418 27.6573 27.7282 27.6573 28.2261 28.1177C28.6867 28.5408 29.1349 28.9763 29.7698 29.5611C30.081 29.1754 30.3674 28.7772 30.7035 28.4288C31.2761 27.8191 31.8737 27.2467 32.4713 26.6618C32.7949 26.3507 33.156 26.301 33.4796 26.6245C33.7784 26.9231 33.766 27.2964 33.4796 27.5951C32.3841 28.7025 31.2886 29.7976 30.1682 30.8926C29.8196 31.241 29.4461 31.1663 29.11 30.8553C28.6245 30.3948 28.1514 29.9469 27.7406 29.5487V29.5238Z" fill="#77B81E"/>
</g>
<defs>
<clipPath id="clip0_84_8">
<rect width="59" height="55" fill="white" transform="translate(0 10)"/>
</clipPath>
</defs>
</svg>
