<svg width="55" height="55" viewBox="0 0 55 55" fill="none" xmlns="http://www.w3.org/2000/svg">
<mask id="mask0_272_41" style="mask-type:alpha" maskUnits="userSpaceOnUse" x="0" y="0" width="55" height="55">
<rect width="55" height="55" fill="#D9D9D9"/>
</mask>
<g mask="url(#mask0_272_41)">
</g>
<g opacity="0.8" clip-path="url(#clip0_272_41)">
<path d="M29.2367 51.9999C26.5937 51.2851 23.9487 50.5703 21.3079 49.8512C20.3655 49.594 19.4272 49.3283 18.4869 49.0626C17.7497 48.8539 17.044 48.9361 16.3696 49.2925C16.0953 49.438 15.8335 49.613 15.5508 49.7332C15.0503 49.944 14.6942 50.1907 14.7403 50.8486C14.7717 51.2893 14.4199 51.5592 13.9717 51.5508C11.9236 51.5107 9.8754 51.4622 7.82933 51.3926C7.24503 51.3736 6.98535 51.0447 7.0021 50.429C7.10053 46.7432 7.20734 43.0595 7.30996 39.3737C7.3309 38.6082 7.34556 37.8428 7.3686 37.0774C7.38954 36.3879 7.66807 36.1201 8.35498 36.1349C10.2628 36.1791 12.1707 36.2255 14.0785 36.2782C14.9309 36.3014 15.1696 36.5756 15.1361 37.4422C15.1257 37.7353 15.1361 38.0305 15.1361 38.3299C15.8042 38.0937 16.4597 37.8154 17.1382 37.6277C19.5843 36.9509 21.9864 37.1238 24.2377 38.2962C25.6869 39.051 27.1655 39.4285 28.7843 39.42C30.2105 39.4116 31.6388 39.5002 33.0649 39.5234C34.9665 39.555 36.4325 40.3563 37.4503 41.9778C37.4838 42.0305 37.5215 42.0769 37.578 42.157C37.999 41.9588 38.4157 41.7669 38.8325 41.5687C40.4995 40.7759 42.1581 39.9662 43.8356 39.1944C45.599 38.3826 47.666 38.9878 48.7319 40.5882C49.1571 41.2271 49.0859 41.6235 48.4513 42.0347C43.934 44.9762 39.421 47.9261 34.8932 50.8507C33.9131 51.4854 32.7801 51.7237 31.6408 51.9029C31.4901 51.9261 31.3414 51.9662 31.1927 51.9978H29.2367V51.9999ZM36.4932 43.8523C36.1812 42.3236 34.9037 41.1976 33.4398 41.1238C32.4492 41.0732 31.4545 41.0605 30.4618 41.0289C29.3309 40.9931 28.1958 40.9825 27.067 40.9066C25.7707 40.8201 24.6461 40.2108 23.488 39.671C20.7675 38.4058 18.0806 38.5471 15.4586 40.0147C15.1696 40.177 15.0461 40.3647 15.0377 40.7063C14.9833 43.1417 14.9058 45.5771 14.8367 48.0126C14.8367 48.0842 14.8513 48.158 14.866 48.293C15.0524 48.2002 15.2052 48.1391 15.3456 48.0547C16.5644 47.323 17.844 47.2113 19.1969 47.6119C20.6817 48.0526 22.1728 48.4743 23.6681 48.8834C25.5047 49.3852 27.3288 49.9757 29.1969 50.3236C30.9351 50.6462 32.6963 50.3847 34.2189 49.4106C38.3801 46.7495 42.5037 44.0294 46.6419 41.3325C46.7759 41.244 46.9058 41.1512 47.0503 41.0521C46.2524 40.3478 45.3225 40.2234 44.3634 40.6768C42.6105 41.5054 40.8618 42.3447 39.1131 43.1776C38.7675 43.342 38.422 43.5065 38.0932 43.6646C38.1183 43.9851 38.1539 44.2487 38.156 44.5123C38.1623 45.1364 37.8649 45.4569 37.2555 45.4422C34.2314 45.3663 31.2073 45.2819 28.1833 45.1913C27.6136 45.1744 27.2785 44.8476 27.2953 44.3837C27.3121 43.9156 27.666 43.6246 28.2314 43.6351C29.2094 43.6541 30.1853 43.6815 31.1634 43.7089C32.9288 43.7574 34.6963 43.8059 36.4953 43.8544L36.4932 43.8523ZM8.91624 37.8112C8.80734 41.7922 8.69844 45.8049 8.58535 49.8871H13.2241C13.333 45.8934 13.4419 41.8913 13.5529 37.8112H8.91624Z" fill="white"/>
<path d="M28.4869 37.3073C22.2252 37.3073 17.1424 32.196 17.1445 25.8998C17.1466 19.6098 22.2398 14.4923 28.4953 14.4944C34.7592 14.4944 39.8377 19.6077 39.8356 25.904C39.8356 32.2002 34.7508 37.3051 28.4869 37.3051V37.3073ZM28.4723 35.7427C33.8314 35.7638 38.2356 31.3737 38.267 25.9799C38.2985 20.5186 33.9592 16.099 28.5351 16.0695C23.1508 16.0379 18.7403 20.4322 18.7152 25.8492C18.6922 31.2978 23.0524 35.7216 28.4702 35.7427H28.4723Z" fill="white"/>
<path d="M27.7162 8.55463C27.7162 7.3211 27.7036 6.08758 27.7204 4.85405C27.7288 4.18141 28.3528 3.77867 28.8596 4.12869C29.0565 4.26575 29.2429 4.57572 29.245 4.80977C29.2722 7.29158 29.268 9.7755 29.2576 12.2573C29.2576 12.7275 28.9329 13.0396 28.512 13.0523C28.0722 13.0649 27.7288 12.7465 27.7225 12.2531C27.7078 11.0196 27.7183 9.78605 27.7183 8.55252L27.7162 8.55463Z" fill="white"/>
<path d="M35.1277 10.4776C35.1277 11.0553 35.1382 11.6331 35.1256 12.2108C35.1151 12.7169 34.8136 13.0416 34.378 13.0543C33.9214 13.069 33.5905 12.738 33.5843 12.2108C33.5717 11.0722 33.5717 9.93144 33.5843 8.79069C33.5905 8.26354 33.9235 7.93249 34.378 7.94725C34.8178 7.9599 35.113 8.28041 35.1256 8.79069C35.1382 9.35157 35.1277 9.91457 35.1277 10.4776Z" fill="white"/>
<path d="M21.8503 10.5029C21.8503 9.93989 21.8419 9.379 21.8524 8.81601C21.8628 8.27621 22.1644 7.94937 22.6231 7.94727C23.0796 7.94727 23.3916 8.2741 23.3958 8.81179C23.4063 9.93567 23.4063 11.0595 23.3958 12.1834C23.3916 12.7169 23.0775 13.0501 22.6252 13.0522C22.1707 13.0522 21.8628 12.719 21.8524 12.1876C21.8398 11.6268 21.8503 11.0638 21.8503 10.5008V10.5029Z" fill="white"/>
<path d="M31.8335 28.4322C31.8272 29.8598 30.933 31.1165 29.555 31.5867C29.2492 31.69 29.1194 31.8271 29.1654 32.1455C29.1843 32.2825 29.1738 32.428 29.1529 32.5651C29.09 32.9805 28.8178 33.1913 28.4241 33.2293C28.0471 33.2672 27.622 32.9636 27.6576 32.5798C27.7246 31.846 27.3518 31.5677 26.7654 31.2577C25.7686 30.7306 25.2764 29.7902 25.1612 28.6663C25.1026 28.0906 25.3895 27.6837 25.8628 27.6352C26.3361 27.5888 26.6712 27.9325 26.7256 28.5187C26.8178 29.5287 27.5571 30.2013 28.5581 30.1866C29.4586 30.1718 30.2126 29.4401 30.2649 28.5313C30.3194 27.5719 29.6764 26.7601 28.6963 26.6547C27.9801 26.5767 27.2827 26.4987 26.6691 26.0727C25.6073 25.3389 25.0817 24.3163 25.1738 23.0385C25.266 21.7206 25.9424 20.7401 27.1592 20.2129C27.5445 20.0464 27.6722 19.8524 27.6283 19.456C27.5864 19.0954 27.6827 18.7664 28.0283 18.5746C28.5016 18.311 29.0775 18.602 29.1592 19.1439C29.1801 19.2809 29.1885 19.4264 29.1717 19.5635C29.1382 19.8587 29.2492 19.9852 29.5424 20.0885C30.9037 20.5672 31.6471 21.5667 31.8293 22.9963C31.8796 23.3969 31.7937 23.749 31.4126 23.9578C30.8806 24.2488 30.3319 23.8756 30.2691 23.1861C30.1644 22.039 29.2262 21.3073 28.1372 21.5245C27.2995 21.6911 26.7131 22.4375 26.7277 23.3105C26.7445 24.156 27.3497 24.875 28.177 25.0142C28.5728 25.0817 28.9832 25.0859 29.3707 25.185C30.8283 25.5603 31.8482 26.9162 31.8398 28.4301L31.8335 28.4322Z" fill="white"/>
</g>
<defs>
<clipPath id="clip0_272_41">
<rect width="42" height="48" fill="white" transform="translate(7 4)"/>
</clipPath>
</defs>
</svg>
