<svg width="70" height="70" viewBox="0 0 70 70" fill="none" xmlns="http://www.w3.org/2000/svg">
<mask id="mask0_36_301" style="mask-type:alpha" maskUnits="userSpaceOnUse" x="0" y="0" width="70" height="70">
<rect width="70" height="70" fill="#D9D9D9"/>
</mask>
<g mask="url(#mask0_36_301)">
</g>
<g clip-path="url(#clip0_36_301)">
<path d="M21.6112 62.125C20.8925 61.8921 20.1593 61.6566 19.6776 61.0451C19.2919 60.5545 18.9931 59.9963 18.6206 59.4108C16.4447 59.1962 16.1591 58.9008 15.8405 56.4078C14.8928 56.3141 14.1359 55.8783 13.9964 54.9037C13.8753 54.0632 13.9305 53.1888 13.9924 52.3353C14.0319 51.7966 14.3807 51.3542 14.8849 51.1278C15.2521 50.9626 15.2376 50.7336 15.1837 50.4291C14.7559 48.0142 13.7041 45.909 12.0021 44.1238C11.1808 43.2612 10.3528 42.405 9.53537 41.5385C9.29054 41.2783 9.1747 40.9348 9.42612 40.6589C9.59592 40.4716 9.90657 40.3857 10.1712 40.3167C10.2751 40.2894 10.4594 40.4013 10.5489 40.5002C11.9732 42.0863 13.6686 43.4498 14.7625 45.3092C15.3035 46.2291 15.7405 47.2075 16.2459 48.2003C18.2349 47.1958 19.95 45.4705 22.4221 45.291V43.1285C22.0627 43.0699 21.6942 43.014 21.3282 42.9476C16.6435 42.1019 13.1526 37.9799 13.1394 33.2737C13.1355 31.8073 13.6173 30.4567 14.2846 29.1868C14.9717 27.8805 15.7628 26.6262 16.5276 25.3615C16.8119 24.8905 17.2253 24.7812 17.6031 25.0089C18.0058 25.2522 18.0624 25.6621 17.7571 26.15C17.6886 26.2593 17.6188 26.3673 17.5109 26.5364C19.1392 27.4628 20.7477 28.3801 22.4142 29.3287C22.43 29.1296 22.4497 28.9904 22.4497 28.8511C22.4523 27.5526 22.4431 26.2541 22.4563 24.9556C22.4589 24.6654 22.3865 24.4806 22.1114 24.3349C21.4046 23.9602 20.7148 23.5529 19.9961 23.1457C19.8711 23.2914 19.7618 23.4293 19.6407 23.5568C19.334 23.8808 18.951 23.9264 18.6285 23.6843C18.3152 23.4501 18.2138 23.0104 18.4797 22.689C19.7355 21.1693 20.9899 19.6456 22.2957 18.1688C22.8328 17.5612 23.6923 17.6549 24.2662 18.3562C26.0393 20.5252 27.8269 22.6864 29.5196 24.9165C30.7214 26.4987 31.6718 28.2409 32.4945 30.056C34.2333 33.893 32.5959 38.0462 30.1857 40.3167C29.8026 40.6784 29.3604 40.7032 29.0537 40.3961C28.7364 40.0786 28.7601 39.6662 29.1537 39.2823C30.6201 37.8485 31.4823 36.1258 31.7139 34.0986C31.7402 33.8735 31.7468 33.6458 31.7574 33.4194C31.7613 33.3283 31.7495 33.2373 31.7416 33.0798C30.8412 33.5899 29.9922 34.0713 29.1445 34.5527C27.5228 35.4739 25.905 36.4003 24.2781 37.3098C24.0174 37.4555 23.9135 37.6221 23.9174 37.9213C23.9332 39.1353 23.924 40.3492 23.924 41.7037C24.723 41.5021 25.4443 41.3238 26.163 41.1364C26.3368 41.0909 26.4974 41.0037 26.6698 40.9504C27.0766 40.8242 27.4649 40.9933 27.607 41.3459C27.7518 41.7089 27.6202 42.1396 27.2161 42.2723C26.3342 42.5625 25.4285 42.7876 24.5308 43.0296C24.3597 43.0751 24.1767 43.079 23.9279 43.1116C23.9279 43.7829 23.9187 44.4413 23.9398 45.0984C23.9424 45.1804 24.0898 45.317 24.1833 45.3287C25.6352 45.5069 26.8265 46.2538 28.0164 47.0097C28.7048 47.4469 29.4051 47.8659 30.1317 48.3135C30.3357 47.8112 30.5148 47.3298 30.7254 46.8627C31.3927 45.3794 32.3418 44.09 33.4633 42.9073C34.5177 41.7961 35.6234 40.7136 36.5369 39.4931C43.6358 30.0105 38.0112 16.0649 26.2802 13.9974C17.0936 12.3801 8.8114 17.9346 6.9712 26.997C6.21695 30.7066 6.77902 34.256 8.5692 37.6078C8.62317 37.708 8.67977 37.8068 8.73374 37.907C9.00622 38.4184 8.92855 38.8204 8.51655 39.0403C8.11244 39.255 7.69122 39.1145 7.44375 38.5901C6.95145 37.5505 6.40913 36.52 6.05504 35.431C2.78532 25.3771 9.11152 14.6311 19.5907 12.6091C29.7618 10.647 38.901 16.9289 40.8136 26.7745C41.9456 32.6023 40.3081 37.7171 36.2894 42.0993C35.6063 42.8448 34.8757 43.5474 34.1873 44.2891C32.5221 46.0833 31.4967 48.186 31.1505 50.6009C31.1308 50.7388 31.2282 50.973 31.344 51.0368C32.0588 51.4349 32.4024 52.0295 32.4129 52.8271C32.4181 53.2656 32.4155 53.7041 32.4142 54.1413C32.4129 55.5816 31.8495 56.2231 30.3687 56.4169C30.4016 57.2236 30.3647 58.0303 29.7447 58.6731C29.1353 59.3041 28.3652 59.4421 27.5057 59.3835C27.4293 59.5891 27.3701 59.7869 27.2858 59.9755C26.8541 60.9488 26.1393 61.6202 25.1113 61.9533C24.9599 62.0027 24.8138 62.0664 24.6651 62.1237H21.6112V62.125ZM23.1882 54.9206C25.5496 54.9206 27.9111 54.9206 30.2739 54.9206C30.832 54.9206 30.9347 54.8204 30.9412 54.274C30.9465 53.8849 30.9426 53.4959 30.9412 53.1069C30.9399 52.3951 30.8675 52.321 30.1607 52.321C26.8475 52.321 23.5344 52.321 20.2212 52.321C18.8272 52.321 17.4332 52.3288 16.0393 52.3171C15.5825 52.3132 15.3732 52.4875 15.3982 52.952C15.4206 53.3723 15.4022 53.7952 15.4035 54.2167C15.4061 54.8543 15.4693 54.9206 16.1025 54.9219C18.4639 54.9219 20.8254 54.9219 23.1882 54.9219V54.9206ZM29.5683 50.8585C29.6105 50.6985 29.6341 50.5879 29.6697 50.4812C29.8303 49.9971 29.6697 49.707 29.2077 49.4468C28.1678 48.8639 27.1792 48.1938 26.1525 47.5888C24.1241 46.3917 22.0838 46.4021 20.0619 47.6057C19.0089 48.2315 17.994 48.9211 16.9252 49.5183C16.3526 49.8384 16.679 50.2418 16.7027 50.6139C16.7277 51.012 17.0778 50.8494 17.2845 50.8507C21.1874 50.8611 25.0902 50.8585 28.9918 50.8585H29.5683ZM14.6335 33.0798C14.5505 38.3533 19.1524 41.5905 22.4523 41.5606C22.4523 40.3493 22.4431 39.1353 22.4589 37.9239C22.4629 37.6234 22.3563 37.4594 22.0969 37.3137C20.6701 36.5174 19.2537 35.7055 17.8334 34.8988C16.7869 34.3042 15.7392 33.7096 14.6335 33.0811V33.0798ZM22.4221 35.8239C22.4352 35.5962 22.451 35.4544 22.451 35.3139C22.4523 34.0336 22.4379 32.7532 22.4616 31.4729C22.4681 31.1281 22.3365 30.9551 22.0496 30.7937C20.3831 29.8595 18.7259 28.9084 17.0647 27.9651C16.9567 27.9039 16.8383 27.861 16.6395 27.7712C16.0287 29.0307 15.4311 30.2603 14.827 31.5068C17.4056 32.9731 19.8724 34.3758 22.4221 35.8252V35.8239ZM29.7184 27.74C27.7966 28.8316 25.9761 29.8569 24.1701 30.9069C24.0332 30.9863 23.9358 31.2439 23.9332 31.4196C23.9135 32.748 23.9214 34.0778 23.924 35.4062C23.924 35.5247 23.9529 35.6418 23.9753 35.8122C26.5092 34.3705 28.9878 32.9614 31.5533 31.5016C30.9373 30.2395 30.3436 29.0216 29.7171 27.7387L29.7184 27.74ZM26.4158 23.1249C25.6641 23.5529 24.9902 23.9524 24.2991 24.3206C24.0174 24.4702 23.9095 24.6446 23.9148 24.966C23.9345 26.2632 23.9214 27.5591 23.924 28.8563C23.924 28.9943 23.9437 29.1335 23.9595 29.33C25.626 28.3814 27.2345 27.4654 28.8957 26.5208C28.048 25.3602 27.245 24.2594 26.4158 23.1249ZM17.378 56.4C17.3701 56.5509 17.3595 56.6628 17.3595 56.7734C17.349 57.6972 17.5807 57.9315 18.5047 57.9328C19.4564 57.9328 20.4094 57.9328 21.3611 57.9328C23.5449 57.9328 25.7286 57.9354 27.9124 57.9314C28.5153 57.9314 28.847 57.6582 28.8878 57.1352C28.9062 56.8984 28.8904 56.6589 28.8904 56.4013H17.3766L17.378 56.4ZM25.909 59.4343H20.3212C20.703 60.1967 21.2742 60.6131 22.0746 60.6534C22.7775 60.6886 23.4857 60.6951 24.1886 60.6508C24.9797 60.6001 25.5549 60.1954 25.909 59.4343ZM22.4142 22.8386V20.2025C21.8719 20.8427 21.4046 21.3931 20.9096 21.9773C21.4111 22.2648 21.8732 22.5289 22.4142 22.8386ZM23.9595 20.2038V22.836C24.4953 22.5328 24.9705 22.2648 25.4746 21.9799C24.9678 21.3865 24.4992 20.8362 23.9595 20.2038Z" fill="#524B2B"/>
<path d="M2.00341 43.4485C1.86257 43.321 1.5427 43.1649 1.49005 42.945C1.43082 42.703 1.52822 42.2866 1.71251 42.1487C2.28247 41.7232 2.9143 41.3719 3.54745 41.0388C3.88179 40.8619 4.2293 40.9556 4.45175 41.2835C4.6571 41.5866 4.66895 41.9613 4.37672 42.163C3.72383 42.6132 3.01961 42.9918 2.33381 43.3952C2.28247 43.4251 2.20744 43.4173 2.00341 43.4485Z" fill="#524B2B"/>
<path d="M44.9652 42.5807C44.9586 43.213 44.4269 43.5904 43.9662 43.3561C43.3146 43.0244 42.6841 42.6457 42.0733 42.2437C41.7508 42.0316 41.7034 41.6764 41.8943 41.3368C42.1022 40.9673 42.4629 40.8554 42.8183 41.0375C43.4541 41.3641 44.0675 41.7401 44.6638 42.1344C44.8296 42.2437 44.906 42.4896 44.9652 42.582V42.5807Z" fill="#524B2B"/>
<path d="M4.57551 19.3945C4.57156 20.0698 4.03187 20.4263 3.53694 20.1713C2.91564 19.8512 2.3154 19.4856 1.72832 19.107C1.38345 18.8845 1.30974 18.5384 1.50718 18.1702C1.69541 17.8202 2.10347 17.6848 2.47599 17.8865C3.07623 18.2118 3.66857 18.5579 4.23721 18.9352C4.41755 19.0549 4.50969 19.3021 4.57419 19.3945H4.57551Z" fill="#524B2B"/>
<path d="M42.4445 20.3366C42.2431 20.1544 41.9338 20.0022 41.8679 19.7797C41.8008 19.552 41.8851 19.1382 42.0575 19.0133C42.6591 18.5748 43.3146 18.2014 43.9767 17.8553C44.2952 17.6888 44.6796 17.7968 44.8165 18.1272C44.9152 18.368 44.9271 18.8442 44.7823 18.9496C44.1162 19.431 43.3804 19.82 42.6683 20.239C42.6301 20.2611 42.5722 20.2494 42.5235 20.2533C42.4971 20.2806 42.4708 20.3092 42.4445 20.3366Z" fill="#524B2B"/>
<path d="M1.62827 31.3389C1.31762 31.3389 1.00697 31.3584 0.697634 31.3337C0.271149 31.2999 -0.00264432 30.9967 -1.16997e-05 30.6038C0.00262092 30.2082 0.280363 29.9051 0.709481 29.8907C1.32946 29.8712 1.95076 29.8699 2.57075 29.8907C2.9867 29.9051 3.29472 30.2355 3.27366 30.6142C3.25128 31.0227 3.01434 31.2817 2.60629 31.3259C2.28379 31.361 1.95471 31.3337 1.62827 31.3337C1.62827 31.3337 1.62827 31.3363 1.62827 31.3376V31.3389Z" fill="#524B2B"/>
<path d="M44.7507 31.3389C44.44 31.3389 44.1294 31.3572 43.82 31.335C43.3949 31.3038 43.104 31.0006 43.0974 30.6194C43.0908 30.2213 43.3988 29.9012 43.8477 29.8895C44.4519 29.8726 45.0561 29.8713 45.6589 29.8908C46.0894 29.9051 46.3684 30.2043 46.3724 30.5999C46.3776 30.9915 46.1038 31.2986 45.6787 31.3324C45.3707 31.3572 45.0587 31.3376 44.7481 31.3376L44.7507 31.3389Z" fill="#524B2B"/>
</g>
<defs>
<clipPath id="clip0_36_301">
<rect width="46.375" height="49.875" fill="white" transform="translate(0 12.25)"/>
</clipPath>
</defs>
</svg>
