<svg width="75" height="75" viewBox="0 0 75 75" fill="none" xmlns="http://www.w3.org/2000/svg">
<mask id="mask0_84_6" style="mask-type:alpha" maskUnits="userSpaceOnUse" x="0" y="0" width="75" height="75">
<rect width="75" height="75" fill="#D9D9D9"/>
</mask>
<g mask="url(#mask0_84_6)">
</g>
<g clip-path="url(#clip0_84_6)">
<path d="M44.0952 40.5047C44.2971 40.3162 44.4587 40.1682 44.6203 40.0201C46.8419 37.8125 49.05 35.5914 51.2985 33.4107C52.995 31.755 55.4993 31.5934 57.2766 32.9934C59.4039 34.6626 59.6059 37.6644 57.6805 39.6432C55.6474 41.7162 53.5605 43.7488 51.5005 45.7949C49.1712 48.0968 46.8419 50.3986 44.526 52.7139C42.2102 55.0427 39.4366 56.1869 36.1513 56.16C31.385 56.133 26.6052 56.16 21.8389 56.1465C21.3946 56.1465 21.0714 56.2676 20.7752 56.5907C20.304 57.1022 19.7923 57.5599 19.1865 58.1387C19.6308 58.556 20.0482 58.906 20.4252 59.2964C20.9503 59.8214 20.9503 60.3329 20.4386 60.8579C18.8498 62.4597 17.2476 64.0347 15.6454 65.6231C15.1203 66.1346 14.6221 66.1346 14.0835 65.6096C9.51918 61.0867 4.95482 56.5638 0.39047 52.0274C-0.134633 51.5024 -0.134633 50.9909 0.39047 50.4659C1.97924 48.8775 3.58148 47.2891 5.18371 45.7141C5.69535 45.2161 6.1666 45.2161 6.6917 45.7141C6.90713 45.9026 7.10909 46.1045 7.29759 46.3199C7.47262 46.5218 7.63419 46.7372 7.82269 46.9795C8.07851 46.7506 8.22662 46.6295 8.36126 46.4949C9.76153 45.1084 11.1483 43.7219 12.5486 42.3354C15.1472 39.7643 18.2709 38.4721 21.9331 38.4721C27.8843 38.4721 33.8489 38.499 39.8001 38.4586C41.5908 38.4451 43.0719 38.8759 44.0682 40.5182L44.0952 40.5047ZM17.8804 56.8195C18.594 56.0792 19.2403 55.4196 19.8597 54.7331C20.2367 54.3292 20.6675 54.1677 21.2195 54.1677C26.2955 54.1812 31.3715 54.1677 36.461 54.1677C38.9519 54.1677 41.1061 53.3062 42.8834 51.5563C47.3131 47.1814 51.7294 42.7931 56.1456 38.4048C57.2766 37.274 57.3574 35.7798 56.3341 34.7433C55.3108 33.7068 53.722 33.7472 52.6045 34.851C50.0329 37.3952 47.4612 39.9528 44.8896 42.5104C44.728 42.6719 44.5799 42.9008 44.5126 43.1161C43.9471 45.2026 42.5468 46.3064 40.3656 46.3064C35.6397 46.3064 30.9003 46.3064 26.1744 46.3064C25.9859 46.3064 25.7974 46.3199 25.6223 46.2795C25.1242 46.1718 24.8279 45.8622 24.8145 45.3372C24.8145 44.7853 25.1107 44.4623 25.6358 44.3546C25.8378 44.3142 26.0397 44.3411 26.2551 44.3411C30.9676 44.3411 35.6801 44.3411 40.3791 44.3276C40.8099 44.3276 41.2812 44.22 41.6582 44.018C42.4391 43.6007 42.7622 42.6315 42.5064 41.7835C42.264 40.9489 41.4697 40.4105 40.4733 40.4105C34.2663 40.4105 28.0593 40.4105 21.8524 40.4105C18.796 40.4105 16.1839 41.4874 14.0027 43.6277C12.791 44.8257 11.5927 46.0237 10.3809 47.2218C10.0308 47.5583 9.68075 47.8948 9.42493 48.1506C12.2389 51.0313 14.9856 53.8581 17.867 56.8061L17.8804 56.8195ZM2.67938 51.0986C6.71863 55.2446 10.7848 59.4175 14.8241 63.5501C16.0224 62.3386 17.1668 61.1675 18.1362 60.1848C14.1105 56.0657 10.0443 51.9062 5.9781 47.7333C4.80672 48.9313 3.67573 50.089 2.67938 51.0851V51.0986Z" fill="#77B81E"/>
<path d="M34.2394 28.9686C33.0007 31.405 32.1928 33.8953 31.7081 36.5068C31.56 37.3279 30.8734 37.7048 30.2405 37.3414C29.7962 37.0856 29.6616 36.6683 29.7693 36.1837C29.9847 35.2684 30.2136 34.353 30.4156 33.4377C30.4694 33.1954 30.5098 32.8858 30.4156 32.6704C29.4865 30.3012 28.0459 28.2551 26.3898 26.4783C25.4608 26.9225 24.626 27.5148 23.7104 27.7302C21.0041 28.3628 18.7017 27.5417 16.8572 25.4687C15.3492 23.7457 14.7163 21.6188 14.272 19.4516C13.6392 16.4228 13.6796 13.3941 14.3663 10.3788C14.6086 9.3423 15.403 9.04615 16.1705 9.75959C18.1093 11.5365 20.304 12.8826 22.7141 13.9056C23.0911 14.0671 23.4546 14.2691 23.8181 14.4306C27.8305 16.2344 29.6481 20.8381 27.5881 24.6341C28.9345 26.4648 30.2405 28.2686 31.5466 30.0455C31.8832 29.332 32.2871 28.5244 32.6506 27.6898C32.7045 27.5821 32.6506 27.3667 32.5564 27.259C28.6383 22.3726 31.4523 15.7767 36.2994 13.5825C37.767 12.9229 39.2346 12.223 40.6618 11.4826C42.6949 10.4461 44.5395 9.12692 46.236 7.59235C47.3131 6.62315 48.0132 6.82507 48.3229 8.22503C49.5212 13.6768 49.1442 19.0074 47.0169 24.1764C45.8859 26.9494 44.0009 29.0493 41.0388 29.9512C38.6556 30.6647 36.3533 30.4897 34.199 28.9686H34.2394ZM35.1684 27.259C35.6935 27.5417 36.1378 27.8513 36.6226 28.0128C39.2211 28.8878 41.4562 28.1744 43.3546 26.3033C44.4318 25.2533 45.105 23.9476 45.5897 22.5342C46.8149 18.9804 47.2189 15.3325 46.9092 11.5903C46.8688 11.0384 46.7611 10.4865 46.6803 9.84036C44.2163 11.8999 41.537 13.3806 38.723 14.6325C37.7401 15.0767 36.7437 15.5479 35.8686 16.1671C33.7278 17.6882 32.6506 19.8285 32.7045 22.4669C32.7314 23.5976 33.1488 24.6341 33.8489 25.5898C33.997 25.361 34.1182 25.186 34.2259 25.011C36.1109 22.0765 38.4133 19.5189 41.1465 17.3651C41.4293 17.1497 41.8601 16.9613 42.1833 17.0151C42.466 17.069 42.843 17.4459 42.8834 17.7286C42.9373 18.0382 42.7488 18.4958 42.5199 18.7247C41.6312 19.5997 40.6483 20.3804 39.7732 21.2554C38.0228 23.0188 36.5148 24.9706 35.1684 27.2456V27.259ZM16.0224 12.3037C15.7127 14.6729 15.78 16.9747 16.2782 19.2497C16.6283 20.865 17.0591 22.4669 18.0824 23.8264C19.0383 25.1052 20.2905 25.8994 21.9062 25.9668C23.0103 26.0206 24.047 25.8052 24.8279 24.8764C23.118 23.3015 21.3138 21.915 19.3615 20.7438C18.6883 20.34 18.4863 19.815 18.8095 19.2766C19.1191 18.7381 19.6981 18.6305 20.3578 19.0477C21.5427 19.815 22.7006 20.6092 23.8451 21.4438C24.599 21.9957 25.2857 22.6284 26.0397 23.2476C26.4706 22.3996 26.6456 21.5515 26.4706 20.6631C26.0801 18.5901 24.9222 17.1094 22.9968 16.2075C21.7043 15.6017 20.3982 15.0094 19.1461 14.3229C18.0824 13.7306 17.086 13.0037 16.0089 12.3037H16.0224Z" fill="#77B81E"/>
</g>
<defs>
<clipPath id="clip0_84_6">
<rect width="59" height="59" fill="white" transform="translate(0 7)"/>
</clipPath>
</defs>
</svg>
