<svg width="70" height="70" viewBox="0 0 70 70" fill="none" xmlns="http://www.w3.org/2000/svg">
<mask id="mask0_36_403" style="mask-type:alpha" maskUnits="userSpaceOnUse" x="0" y="0" width="70" height="70">
<rect width="70" height="70" fill="#D9D9D9"/>
</mask>
<g mask="url(#mask0_36_403)">
</g>
<g clip-path="url(#clip0_36_403)">
<path d="M46.8793 38.097C47.4396 37.6371 48.0754 37.1461 48.6646 36.6088C48.8158 36.4694 48.8847 36.1797 48.8892 35.9542C49.0092 30.6843 52.9555 27.5861 58.0622 28.8665C62.0485 29.8661 65.0232 32.2788 67.1219 35.7684C67.6644 36.6729 67.3153 37.3496 66.2615 37.4403C64.7275 37.5729 63.3824 38.1833 62.0796 38.944C60.8613 39.6561 59.6741 40.4389 58.3913 41.0139C55.9168 42.1218 53.4334 42.2103 51.1657 40.4765C50.5232 39.9856 50.043 39.2824 49.3516 38.5261C48.569 39.7136 47.7731 40.8901 47.0216 42.0931C46.8905 42.3032 46.9171 42.6238 46.9127 42.8958C46.8349 46.7857 46.7838 50.6757 46.6659 54.5656C46.6526 55.0145 46.3858 55.616 46.0345 55.8592C45.4165 56.2905 44.6917 55.6757 44.7006 54.7646C44.7273 52.447 44.8406 50.1294 44.8162 47.8119C44.7695 43.4 44.6561 38.9905 44.5583 34.5787C44.5516 34.2248 44.4649 33.8732 44.4071 33.4486C43.8157 33.5194 43.2533 33.6189 42.6863 33.6476C40.701 33.7538 38.8935 33.2695 37.3639 31.9581C36.6925 31.3831 36.5835 30.7993 37.0593 30.3305C37.6196 29.7799 38.1265 29.9988 38.6623 30.4389C40.2719 31.7613 42.0927 31.9382 44.1003 31.3942C43.6223 29.1872 43.0843 27.0886 41.617 25.3636C41.1679 24.8351 40.9989 24.2977 41.5636 23.7626C42.026 23.3269 42.5841 23.4463 43.1332 24.0744C44.5161 25.6578 45.1897 27.5773 45.7299 29.5587C45.7877 29.7688 45.8478 29.9789 45.91 30.2C47.653 29.0589 48.3978 26.1354 47.4641 23.9417C46.3146 21.2415 44.2359 19.5033 41.5036 18.5325C38.5644 17.4887 35.5831 17.5064 32.5928 18.3379C32.4439 18.3799 32.3016 18.4485 32.0504 18.5458C33.8845 20.0916 34.9428 22.0354 35.7165 24.1562C35.941 24.771 35.921 25.3482 35.2452 25.6202C34.6004 25.8811 34.1402 25.5914 33.8712 24.9413C33.5222 24.1031 33.1731 23.2584 32.7418 22.46C31.9926 21.0668 30.8743 20.0186 29.5181 19.1937C28.631 18.6542 28.6688 17.7674 29.587 17.3339C34.6227 14.9655 41.5347 15.0893 46.0212 18.8244C48.24 20.6732 49.8518 22.9399 49.874 25.9475C49.8918 28.4198 48.878 30.5052 46.9127 32.0598C46.4881 32.396 46.3324 32.6945 46.3947 33.2275C46.5903 34.9214 46.7304 36.622 46.8705 38.0926L46.8793 38.097ZM50.9879 34.959C51.3747 34.7799 51.6593 34.5853 51.9728 34.5145C53.5557 34.1519 55.1387 33.787 56.735 33.4951C57.3841 33.3756 57.9177 33.7029 57.96 34.415C58.0022 35.1271 57.5487 35.45 56.855 35.461C56.7172 35.4632 56.5771 35.4721 56.4393 35.4809C54.5584 35.6136 52.7932 36.0802 51.2369 37.1705C51.6615 38.6101 52.8665 39.5654 54.3939 39.7512C56.1213 39.9591 57.5842 39.2912 59.0271 38.473C60.819 37.4557 62.6354 36.4783 64.5007 35.45C64.5341 35.576 64.5363 35.4831 64.4896 35.4256C62.5087 32.9444 60.0498 31.1731 56.8572 30.6644C53.7669 30.1713 51.3369 31.9625 50.9857 34.9634L50.9879 34.959Z" fill="#524B2B"/>
<path d="M24.1651 45.5241C24.1651 42.3304 24.1651 39.1367 24.1651 35.943C24.1651 35.0697 24.3609 34.869 25.2278 34.8673C27.4403 34.864 29.6528 34.8623 31.8653 34.8673C32.6753 34.869 32.9079 35.0998 32.9096 35.9112C32.9129 42.3187 32.9129 48.7278 32.9096 55.1352C32.9096 55.9818 32.6736 56.2143 31.8335 56.2143C29.621 56.2176 27.4085 56.2176 25.196 56.2143C24.3876 56.2143 24.1651 55.9868 24.1651 55.167C24.1634 51.9533 24.1651 48.7378 24.1651 45.5241ZM31.3699 54.6936V36.4048H25.7131V54.6936H31.3699Z" fill="#524B2B"/>
<path d="M23.2278 59.4732C16.0046 59.4732 8.77966 59.4732 1.55642 59.4732C1.34722 59.4732 1.08781 59.5451 0.942206 59.4481C0.677778 59.2725 0.31126 58.9981 0.302892 58.7572C0.296198 58.5079 0.639285 58.2151 0.885304 58.0094C0.999108 57.914 1.2468 57.9726 1.43424 57.9726C15.9661 57.9726 30.4962 57.9726 45.0281 57.9726C45.2155 57.9726 45.4097 57.9558 45.5904 57.9943C46.0088 58.0847 46.3201 58.3707 46.1946 58.7856C46.1126 59.0566 45.7846 59.2875 45.5151 59.4531C45.3628 59.5468 45.1084 59.4749 44.8992 59.4749C37.676 59.4749 30.4511 59.4749 23.2278 59.4749V59.4732Z" fill="#524B2B"/>
<path d="M12.2692 48.619C12.2692 46.4475 12.2675 44.276 12.2692 42.1045C12.2692 41.2462 12.4817 41.0338 13.3386 41.0321C15.5511 41.0288 17.7652 41.0288 19.9777 41.0321C20.7811 41.0321 21.017 41.268 21.017 42.0794C21.0204 46.4425 21.0204 50.8072 21.017 55.1703C21.017 55.9733 20.7727 56.2142 19.971 56.2142C17.7368 56.2176 15.5025 56.2193 13.2683 56.2142C12.5018 56.2142 12.2692 55.9733 12.2675 55.1954C12.2641 53.0038 12.2675 50.8106 12.2675 48.619H12.2692ZM13.8038 54.6684H19.4757V42.5679H13.8038V54.6684Z" fill="#524B2B"/>
<path d="M27.1759 26.6615C24.9115 28.562 22.7291 30.5411 20.3945 32.3228C16.5519 35.2539 12.2792 37.3267 7.49103 38.2351C5.30699 38.6483 3.10453 38.7621 0.885344 38.6818C0.374897 38.6634 0.0301364 38.4676 0.00168528 37.9273C-0.0234187 37.4588 0.34812 37.1544 0.948941 37.1811C3.97648 37.3116 6.94711 36.9871 9.8508 36.1104C14.2574 34.7787 18.0966 32.4266 21.6011 29.5006C23.1509 28.2057 24.6186 26.8104 26.1232 25.462C26.1031 25.4102 26.083 25.3566 26.0629 25.3048C25.5424 25.2646 25.022 25.2178 24.4998 25.1843C24.063 25.1575 23.6228 25.1642 23.186 25.1224C22.7057 25.0772 22.3927 24.8079 22.4346 24.306C22.4731 23.8426 22.7844 23.6067 23.253 23.6301C24.8579 23.7104 26.4629 23.7941 28.0662 23.8878C28.5281 23.9145 28.8227 24.1789 28.8043 24.6506C28.7357 26.2968 28.6486 27.9447 28.5432 29.5892C28.5164 30.0175 28.2319 30.2802 27.7901 30.2668C27.3198 30.2517 27.0537 29.9589 27.0621 29.4972C27.0755 28.746 27.1374 27.9966 27.1725 27.2471C27.1826 27.0262 27.1725 26.8054 27.1725 26.6649L27.1759 26.6615Z" fill="#524B2B"/>
<path d="M9.12613 50.7839C9.12613 52.2444 9.12948 53.7049 9.12613 55.1654C9.12278 55.9734 8.88681 56.2127 8.08683 56.2143C5.85425 56.2177 3.62167 56.2193 1.38909 56.2143C0.624261 56.2143 0.378242 55.9684 0.376568 55.2039C0.371548 52.2611 0.371548 49.3184 0.376568 46.3773C0.376568 45.6445 0.61924 45.3953 1.3506 45.3936C3.60494 45.3852 5.8576 45.3869 8.11193 45.3936C8.88681 45.3953 9.12278 45.6345 9.12613 46.4024C9.13283 47.8629 9.1278 49.3234 9.1278 50.7839H9.12613ZM1.9213 46.9294V54.6735H7.5881V46.9294H1.9213Z" fill="#524B2B"/>
</g>
<defs>
<clipPath id="clip0_36_403">
<rect width="67.375" height="46.375" fill="white" transform="translate(0 13.125)"/>
</clipPath>
</defs>
</svg>
