<svg width="35" height="35" viewBox="0 0 35 35" fill="none" xmlns="http://www.w3.org/2000/svg">
<mask id="mask0_292_97" style="mask-type:alpha" maskUnits="userSpaceOnUse" x="0" y="0" width="35" height="35">
<rect width="35" height="35" fill="#D9D9D9"/>
</mask>
<g mask="url(#mask0_292_97)">
</g>
<path d="M32.8183 9.49935C31.7275 9.99518 30.5516 10.321 29.3333 10.4768C30.58 9.72602 31.5433 8.53602 31.9966 7.10518C30.8208 7.81352 29.5175 8.30935 28.1433 8.59268C27.0241 7.37435 25.4516 6.66602 23.6666 6.66602C20.3375 6.66602 17.6175 9.38602 17.6175 12.7435C17.6175 13.2252 17.6741 13.6927 17.7733 14.1319C12.73 13.8769 8.23914 11.4543 5.24997 7.78518C4.72581 8.67768 4.42831 9.72602 4.42831 10.831C4.42831 12.9418 5.49081 14.8118 7.13414 15.8743C6.12831 15.8743 5.19331 15.591 4.37164 15.166V15.2085C4.37164 18.1552 6.46831 20.6202 9.24497 21.1727C8.35366 21.4177 7.41753 21.4516 6.51081 21.2719C6.89558 22.4795 7.64915 23.5363 8.66558 24.2935C9.68201 25.0507 10.9102 25.4704 12.1775 25.4935C10.0293 27.1942 7.36649 28.1135 4.62664 28.1002C4.14497 28.1002 3.66331 28.0718 3.18164 28.0152C5.87331 29.7435 9.07497 30.7494 12.5033 30.7494C23.6666 30.7494 29.8008 21.4843 29.8008 13.4518C29.8008 13.1827 29.8008 12.9277 29.7866 12.6585C30.9766 11.8085 31.9966 10.7318 32.8183 9.49935Z" fill="#383838"/>
</svg>
