<svg width="35" height="36" viewBox="0 0 35 36" fill="none" xmlns="http://www.w3.org/2000/svg">
<mask id="mask0_292_98" style="mask-type:alpha" maskUnits="userSpaceOnUse" x="0" y="1" width="35" height="35">
<rect y="1" width="35" height="35" fill="#D9D9D9"/>
</mask>
<g mask="url(#mask0_292_98)">
</g>
<path d="M33.9998 14.5641C34.074 12.4171 33.6045 10.2861 32.6348 8.3691C31.9769 7.5825 31.0639 7.05167 30.0548 6.8691C25.8812 6.48936 21.6901 6.33414 17.4998 6.4041C13.3248 6.33359 9.14897 6.4838 4.98981 6.8541C4.16754 7.00368 3.40659 7.38937 2.79981 7.9641C1.44981 9.2091 1.29981 11.3391 1.14981 13.1391C0.930858 16.3754 0.930858 19.6228 1.14981 22.8591C1.19376 23.8722 1.3446 24.8777 1.59981 25.8591C1.78067 26.6167 2.14659 27.3176 2.66481 27.8991C3.27571 28.5043 4.05438 28.9119 4.89981 29.0691C8.1336 29.4692 11.3921 29.6347 14.6498 29.5641C19.8998 29.6391 24.5048 29.5641 29.9498 29.1441C30.8154 28.9948 31.6155 28.5869 32.2448 27.9741C32.6643 27.5536 32.9779 27.0395 33.1598 26.4741C33.6957 24.8279 33.9592 23.1052 33.9398 21.3741C33.9998 20.5341 33.9998 15.4641 33.9998 14.5641ZM14.1098 22.2741V12.9891L22.9898 17.6541C20.4998 19.0341 17.2148 20.5941 14.1098 22.2741Z" fill="#383838"/>
</svg>
